%TF.GenerationSoftware,KiCad,Pcbnew,7.0.10*%
%TF.CreationDate,2024-03-07T14:05:51+00:00*%
%TF.ProjectId,tp4056,74703430-3536-42e6-9b69-6361645f7063,rev?*%
%TF.SameCoordinates,Original*%
%TF.FileFunction,Paste,Top*%
%TF.FilePolarity,Positive*%
%FSLAX46Y46*%
G04 Gerber Fmt 4.6, Leading zero omitted, Abs format (unit mm)*
G04 Created by KiCad (PCBNEW 7.0.10) date 2024-03-07 14:05:51*
%MOMM*%
%LPD*%
G01*
G04 APERTURE LIST*
G04 Aperture macros list*
%AMRoundRect*
0 Rectangle with rounded corners*
0 $1 Rounding radius*
0 $2 $3 $4 $5 $6 $7 $8 $9 X,Y pos of 4 corners*
0 Add a 4 corners polygon primitive as box body*
4,1,4,$2,$3,$4,$5,$6,$7,$8,$9,$2,$3,0*
0 Add four circle primitives for the rounded corners*
1,1,$1+$1,$2,$3*
1,1,$1+$1,$4,$5*
1,1,$1+$1,$6,$7*
1,1,$1+$1,$8,$9*
0 Add four rect primitives between the rounded corners*
20,1,$1+$1,$2,$3,$4,$5,0*
20,1,$1+$1,$4,$5,$6,$7,0*
20,1,$1+$1,$6,$7,$8,$9,0*
20,1,$1+$1,$8,$9,$2,$3,0*%
G04 Aperture macros list end*
%ADD10RoundRect,0.237500X0.237500X-0.250000X0.237500X0.250000X-0.237500X0.250000X-0.237500X-0.250000X0*%
%ADD11RoundRect,0.250000X-0.350000X-0.450000X0.350000X-0.450000X0.350000X0.450000X-0.350000X0.450000X0*%
%ADD12RoundRect,0.230000X0.375000X-0.230000X0.375000X0.230000X-0.375000X0.230000X-0.375000X-0.230000X0*%
%ADD13RoundRect,0.150000X0.150000X-0.825000X0.150000X0.825000X-0.150000X0.825000X-0.150000X-0.825000X0*%
%ADD14RoundRect,0.237500X-0.250000X-0.237500X0.250000X-0.237500X0.250000X0.237500X-0.250000X0.237500X0*%
%ADD15RoundRect,0.250000X-0.337500X-0.475000X0.337500X-0.475000X0.337500X0.475000X-0.337500X0.475000X0*%
%ADD16RoundRect,0.237500X-0.237500X0.250000X-0.237500X-0.250000X0.237500X-0.250000X0.237500X0.250000X0*%
%ADD17RoundRect,0.250000X0.325000X0.450000X-0.325000X0.450000X-0.325000X-0.450000X0.325000X-0.450000X0*%
%ADD18RoundRect,0.250000X0.475000X-0.337500X0.475000X0.337500X-0.475000X0.337500X-0.475000X-0.337500X0*%
%ADD19R,1.450000X0.600000*%
%ADD20R,1.450000X0.300000*%
%ADD21R,1.560000X0.650000*%
%ADD22RoundRect,0.250000X-0.475000X0.337500X-0.475000X-0.337500X0.475000X-0.337500X0.475000X0.337500X0*%
%ADD23RoundRect,0.250000X0.450000X-0.350000X0.450000X0.350000X-0.450000X0.350000X-0.450000X-0.350000X0*%
%ADD24R,1.000000X1.500000*%
%ADD25R,1.500000X2.000000*%
%ADD26R,0.650000X1.560000*%
G04 APERTURE END LIST*
D10*
%TO.C,R4*%
X168020000Y-85082500D03*
X168020000Y-83257500D03*
%TD*%
D11*
%TO.C,R5*%
X160500000Y-77000000D03*
X162500000Y-77000000D03*
%TD*%
D12*
%TO.C,U1*%
X155300000Y-84000000D03*
X156800000Y-84000000D03*
X155300000Y-82860000D03*
X156800000Y-82860000D03*
D13*
X154145000Y-85905000D03*
X155415000Y-85905000D03*
X156685000Y-85905000D03*
X157955000Y-85905000D03*
X157955000Y-80955000D03*
X156685000Y-80955000D03*
X155415000Y-80955000D03*
X154145000Y-80955000D03*
%TD*%
D14*
%TO.C,R2*%
X155837500Y-75750000D03*
X157662500Y-75750000D03*
%TD*%
D15*
%TO.C,C2*%
X160462500Y-79000000D03*
X162537500Y-79000000D03*
%TD*%
D16*
%TO.C,R7*%
X148820000Y-85155000D03*
X148820000Y-86980000D03*
%TD*%
D17*
%TO.C,D2*%
X152122500Y-76290000D03*
X150072500Y-76290000D03*
%TD*%
D16*
%TO.C,R6*%
X147290000Y-87097500D03*
X147290000Y-88922500D03*
%TD*%
D18*
%TO.C,C1*%
X160000000Y-83237500D03*
X160000000Y-81162500D03*
%TD*%
D14*
%TO.C,R1*%
X154087500Y-78000000D03*
X155912500Y-78000000D03*
%TD*%
D19*
%TO.C,J8*%
X145195000Y-80670000D03*
X145195000Y-81470000D03*
D20*
X145195000Y-82670000D03*
X145195000Y-83670000D03*
X145195000Y-84170000D03*
X145195000Y-85170000D03*
D19*
X145195000Y-86370000D03*
X145195000Y-87170000D03*
X145195000Y-87170000D03*
X145195000Y-86370000D03*
D20*
X145195000Y-85670000D03*
X145195000Y-84670000D03*
X145195000Y-83170000D03*
X145195000Y-82170000D03*
D19*
X145195000Y-81470000D03*
X145195000Y-80670000D03*
%TD*%
D21*
%TO.C,U3*%
X163290000Y-83320000D03*
X163290000Y-84270000D03*
X163290000Y-85220000D03*
X165990000Y-85220000D03*
X165990000Y-84270000D03*
X165990000Y-83320000D03*
%TD*%
D10*
%TO.C,R10*%
X147280000Y-85552500D03*
X147280000Y-83727500D03*
%TD*%
D22*
%TO.C,C3*%
X164750000Y-76962500D03*
X164750000Y-79037500D03*
%TD*%
D23*
%TO.C,R8*%
X151470000Y-85620000D03*
X151470000Y-83620000D03*
%TD*%
%TO.C,R9*%
X151480000Y-89360000D03*
X151480000Y-87360000D03*
%TD*%
D24*
%TO.C,J6*%
X172700000Y-87450000D03*
X175700000Y-87450000D03*
X178700000Y-87450000D03*
D25*
X174200000Y-91810000D03*
X177200000Y-91810000D03*
%TD*%
D17*
%TO.C,D1*%
X152122500Y-78722000D03*
X150072500Y-78722000D03*
%TD*%
D11*
%TO.C,R3*%
X158000000Y-88800000D03*
X160000000Y-88800000D03*
%TD*%
D26*
%TO.C,U2*%
X166780000Y-81210000D03*
X167730000Y-81210000D03*
X168680000Y-81210000D03*
X168680000Y-78510000D03*
X167730000Y-78510000D03*
X166780000Y-78510000D03*
%TD*%
M02*
