%TF.GenerationSoftware,KiCad,Pcbnew,7.0.10*%
%TF.CreationDate,2024-03-07T14:05:51+00:00*%
%TF.ProjectId,tp4056,74703430-3536-42e6-9b69-6361645f7063,rev?*%
%TF.SameCoordinates,Original*%
%TF.FileFunction,Copper,L2,Bot*%
%TF.FilePolarity,Positive*%
%FSLAX46Y46*%
G04 Gerber Fmt 4.6, Leading zero omitted, Abs format (unit mm)*
G04 Created by KiCad (PCBNEW 7.0.10) date 2024-03-07 14:05:51*
%MOMM*%
%LPD*%
G01*
G04 APERTURE LIST*
%TA.AperFunction,ComponentPad*%
%ADD10R,1.700000X1.700000*%
%TD*%
%TA.AperFunction,ComponentPad*%
%ADD11O,2.100000X1.000000*%
%TD*%
%TA.AperFunction,ComponentPad*%
%ADD12O,1.600000X1.000000*%
%TD*%
%TA.AperFunction,ViaPad*%
%ADD13C,0.800000*%
%TD*%
%TA.AperFunction,ViaPad*%
%ADD14C,0.600000*%
%TD*%
%TA.AperFunction,ViaPad*%
%ADD15C,2.000000*%
%TD*%
%TA.AperFunction,Conductor*%
%ADD16C,1.000000*%
%TD*%
%TA.AperFunction,Conductor*%
%ADD17C,0.800000*%
%TD*%
G04 APERTURE END LIST*
D10*
%TO.P,J3,1,Pin_1*%
%TO.N,VIN*%
X147320000Y-76200000D03*
%TD*%
%TO.P,J7,1,Pin_1*%
%TO.N,GND*%
X177800000Y-78740000D03*
%TD*%
D11*
%TO.P,J8,S1,SHIELD*%
%TO.N,GND*%
X144280000Y-79600000D03*
D12*
X140100000Y-79600000D03*
D11*
X144280000Y-88240000D03*
D12*
X140100000Y-88240000D03*
%TD*%
D10*
%TO.P,J4,1,Pin_1*%
%TO.N,BAT-*%
X175260000Y-78740000D03*
%TD*%
%TO.P,J2,1,Pin_1*%
%TO.N,GND*%
X147320000Y-91440000D03*
%TD*%
%TO.P,J5,1,Pin_1*%
%TO.N,BAT+*%
X172705000Y-78765000D03*
%TD*%
D13*
%TO.N,GND*%
X178750000Y-91840000D03*
X146570000Y-79980000D03*
X175720000Y-91850000D03*
D14*
X156050000Y-83430000D03*
D13*
X172760000Y-91840000D03*
D15*
X169788629Y-83271371D03*
%TO.N,VIN*%
X150072500Y-81217500D03*
X160000000Y-85500000D03*
%TO.N,BAT-*%
X164230000Y-81170000D03*
%TD*%
D16*
%TO.N,VIN*%
X155715836Y-85500000D02*
X160000000Y-85500000D01*
X150072500Y-81217500D02*
X151433336Y-81217500D01*
X151433336Y-81217500D02*
X155715836Y-85500000D01*
D17*
%TO.N,BAT-*%
X175260000Y-79110000D02*
X175260000Y-78740000D01*
X164230000Y-81170000D02*
X173200000Y-81170000D01*
X173200000Y-81170000D02*
X175260000Y-79110000D01*
%TD*%
%TA.AperFunction,Conductor*%
%TO.N,GND*%
G36*
X178404042Y-73000764D02*
G01*
X178483586Y-73005978D01*
X178483767Y-73005991D01*
X178661587Y-73018709D01*
X178676904Y-73020772D01*
X178788378Y-73042945D01*
X178790437Y-73043374D01*
X178930240Y-73073786D01*
X178943703Y-73077522D01*
X179057725Y-73116228D01*
X179061074Y-73117420D01*
X179188808Y-73165062D01*
X179200300Y-73170024D01*
X179310687Y-73224461D01*
X179315187Y-73226798D01*
X179432478Y-73290844D01*
X179441942Y-73296574D01*
X179545269Y-73365615D01*
X179550688Y-73369450D01*
X179656727Y-73448830D01*
X179664145Y-73454844D01*
X179757976Y-73537131D01*
X179763898Y-73542678D01*
X179857320Y-73636100D01*
X179862867Y-73642022D01*
X179945150Y-73735848D01*
X179951173Y-73743278D01*
X179988691Y-73793396D01*
X180030548Y-73849310D01*
X180034383Y-73854729D01*
X180103424Y-73958056D01*
X180109154Y-73967520D01*
X180173183Y-74084779D01*
X180175564Y-74089363D01*
X180229969Y-74199687D01*
X180234938Y-74211196D01*
X180282556Y-74338863D01*
X180283793Y-74342338D01*
X180322470Y-74456276D01*
X180326217Y-74469777D01*
X180356613Y-74609508D01*
X180357064Y-74611675D01*
X180379224Y-74723080D01*
X180381291Y-74738425D01*
X180393995Y-74916046D01*
X180394045Y-74916781D01*
X180399234Y-74995941D01*
X180399500Y-75004052D01*
X180399500Y-75051330D01*
X180399550Y-75051793D01*
X180415282Y-91431675D01*
X180415016Y-91439905D01*
X180409832Y-91518992D01*
X180409782Y-91519726D01*
X180397079Y-91697360D01*
X180395012Y-91712706D01*
X180372852Y-91824112D01*
X180372401Y-91826278D01*
X180342006Y-91966008D01*
X180338260Y-91979508D01*
X180299575Y-92093470D01*
X180298350Y-92096912D01*
X180250729Y-92224588D01*
X180245759Y-92236098D01*
X180191349Y-92346431D01*
X180188969Y-92351014D01*
X180124943Y-92468269D01*
X180119214Y-92477732D01*
X180050176Y-92581056D01*
X180046340Y-92586476D01*
X179966970Y-92692502D01*
X179960931Y-92699951D01*
X179878657Y-92793766D01*
X179873110Y-92799688D01*
X179779688Y-92893110D01*
X179773766Y-92898657D01*
X179679951Y-92980931D01*
X179672502Y-92986970D01*
X179566476Y-93066340D01*
X179561056Y-93070176D01*
X179457732Y-93139214D01*
X179448269Y-93144943D01*
X179331014Y-93208969D01*
X179326431Y-93211349D01*
X179216098Y-93265759D01*
X179204588Y-93270729D01*
X179076912Y-93318350D01*
X179073470Y-93319575D01*
X178959509Y-93358260D01*
X178946008Y-93362006D01*
X178806278Y-93392401D01*
X178804112Y-93392852D01*
X178692706Y-93415012D01*
X178677360Y-93417079D01*
X178499726Y-93429782D01*
X178498990Y-93429833D01*
X178450183Y-93433031D01*
X178419751Y-93435026D01*
X178411848Y-93435291D01*
X139004148Y-93499492D01*
X138995835Y-93499226D01*
X138916690Y-93494038D01*
X138915955Y-93493988D01*
X138738425Y-93481291D01*
X138723080Y-93479224D01*
X138611675Y-93457064D01*
X138609508Y-93456613D01*
X138469777Y-93426217D01*
X138456276Y-93422470D01*
X138342338Y-93383793D01*
X138338863Y-93382556D01*
X138211196Y-93334938D01*
X138199687Y-93329969D01*
X138134947Y-93298043D01*
X138089348Y-93275556D01*
X138084779Y-93273183D01*
X137967520Y-93209154D01*
X137958056Y-93203424D01*
X137854729Y-93134383D01*
X137849310Y-93130548D01*
X137768662Y-93070176D01*
X137743278Y-93051173D01*
X137735848Y-93045150D01*
X137642022Y-92962867D01*
X137636100Y-92957320D01*
X137542678Y-92863898D01*
X137537131Y-92857976D01*
X137505450Y-92821851D01*
X137454844Y-92764145D01*
X137448830Y-92756727D01*
X137369450Y-92650688D01*
X137365615Y-92645269D01*
X137296574Y-92541942D01*
X137290844Y-92532478D01*
X137282258Y-92516754D01*
X137226798Y-92415187D01*
X137224461Y-92410687D01*
X137170024Y-92300300D01*
X137165060Y-92288802D01*
X137161790Y-92280034D01*
X137117420Y-92161074D01*
X137116228Y-92157725D01*
X137077522Y-92043703D01*
X137073786Y-92030240D01*
X137043374Y-91890437D01*
X137042945Y-91888378D01*
X137020772Y-91776904D01*
X137018709Y-91761587D01*
X137005991Y-91583767D01*
X137005978Y-91583586D01*
X137000765Y-91504043D01*
X137000500Y-91495934D01*
X137000500Y-91440000D01*
X138393143Y-91440000D01*
X138399432Y-91511889D01*
X138400620Y-91525461D01*
X138401092Y-91536269D01*
X138401092Y-91553641D01*
X138404108Y-91570748D01*
X138405519Y-91581467D01*
X138412996Y-91666929D01*
X138412998Y-91666938D01*
X138435201Y-91749802D01*
X138437541Y-91760358D01*
X138440556Y-91777456D01*
X138440560Y-91777469D01*
X138446498Y-91793786D01*
X138449748Y-91804095D01*
X138471957Y-91886974D01*
X138508211Y-91964722D01*
X138512349Y-91974709D01*
X138518293Y-91991039D01*
X138518294Y-91991041D01*
X138518295Y-91991043D01*
X138518296Y-91991046D01*
X138526976Y-92006080D01*
X138531970Y-92015672D01*
X138568229Y-92093429D01*
X138617438Y-92163708D01*
X138623246Y-92172824D01*
X138631934Y-92187870D01*
X138643093Y-92201170D01*
X138649675Y-92209748D01*
X138688487Y-92265176D01*
X138698889Y-92280031D01*
X138698892Y-92280034D01*
X138759551Y-92340693D01*
X138766850Y-92348657D01*
X138768828Y-92351014D01*
X138778028Y-92361978D01*
X138778029Y-92361979D01*
X138791330Y-92373139D01*
X138799305Y-92380447D01*
X138859969Y-92441111D01*
X138860682Y-92441610D01*
X138930250Y-92490323D01*
X138938832Y-92496908D01*
X138952128Y-92508065D01*
X138952131Y-92508067D01*
X138967176Y-92516754D01*
X138976294Y-92522563D01*
X139014896Y-92549592D01*
X139046571Y-92571771D01*
X139124346Y-92608038D01*
X139133910Y-92613017D01*
X139145327Y-92619609D01*
X139148957Y-92621705D01*
X139148961Y-92621707D01*
X139165290Y-92627650D01*
X139175258Y-92631778D01*
X139253029Y-92668044D01*
X139253031Y-92668044D01*
X139253038Y-92668047D01*
X139293783Y-92678964D01*
X139335906Y-92690251D01*
X139346212Y-92693500D01*
X139362534Y-92699441D01*
X139379627Y-92702455D01*
X139379633Y-92702456D01*
X139390179Y-92704793D01*
X139473067Y-92727003D01*
X139558563Y-92734482D01*
X139569230Y-92735887D01*
X139586360Y-92738908D01*
X139603730Y-92738908D01*
X139614537Y-92739380D01*
X139699998Y-92746857D01*
X139700000Y-92746857D01*
X139700002Y-92746857D01*
X139785463Y-92739380D01*
X139796270Y-92738908D01*
X139813640Y-92738908D01*
X139830772Y-92735887D01*
X139841436Y-92734482D01*
X139926933Y-92727003D01*
X140009813Y-92704795D01*
X140020339Y-92702460D01*
X140037466Y-92699441D01*
X140053816Y-92693489D01*
X140064080Y-92690254D01*
X140117728Y-92675879D01*
X140146958Y-92668048D01*
X140146963Y-92668046D01*
X140146971Y-92668044D01*
X140224739Y-92631779D01*
X140234692Y-92627656D01*
X140251039Y-92621707D01*
X140266084Y-92613020D01*
X140275668Y-92608031D01*
X140353429Y-92571771D01*
X140423711Y-92522558D01*
X140432817Y-92516757D01*
X140447869Y-92508067D01*
X140461201Y-92496879D01*
X140469732Y-92490334D01*
X140540031Y-92441111D01*
X140600716Y-92380425D01*
X140608660Y-92373146D01*
X140621975Y-92361975D01*
X140633146Y-92348660D01*
X140640425Y-92340716D01*
X140701111Y-92280031D01*
X140750334Y-92209732D01*
X140756879Y-92201201D01*
X140768067Y-92187869D01*
X140776757Y-92172817D01*
X140782559Y-92163711D01*
X140782561Y-92163708D01*
X140831771Y-92093429D01*
X140868031Y-92015668D01*
X140873023Y-92006080D01*
X140881707Y-91991039D01*
X140887656Y-91974692D01*
X140891779Y-91964739D01*
X140928044Y-91886971D01*
X140928046Y-91886963D01*
X140928048Y-91886958D01*
X140944139Y-91826902D01*
X140950254Y-91804080D01*
X140953489Y-91793816D01*
X140959441Y-91777466D01*
X140962460Y-91760339D01*
X140964798Y-91749802D01*
X140987003Y-91666933D01*
X140994483Y-91581433D01*
X140995883Y-91570791D01*
X140998908Y-91553640D01*
X140999481Y-91527314D01*
X140999918Y-91519303D01*
X141006857Y-91440000D01*
X143774659Y-91440000D01*
X143793975Y-91636129D01*
X143803319Y-91666933D01*
X143850999Y-91824112D01*
X143851188Y-91824733D01*
X143944086Y-91998532D01*
X143944090Y-91998539D01*
X144069116Y-92150883D01*
X144221460Y-92275909D01*
X144221467Y-92275913D01*
X144385178Y-92363418D01*
X144395273Y-92368814D01*
X144424157Y-92377575D01*
X144431195Y-92379946D01*
X144431791Y-92380166D01*
X144431799Y-92380170D01*
X144435570Y-92381146D01*
X144440422Y-92382509D01*
X144583868Y-92426024D01*
X144614662Y-92429056D01*
X144621911Y-92430344D01*
X144621955Y-92430063D01*
X144628178Y-92431016D01*
X144628182Y-92431017D01*
X144638423Y-92431536D01*
X144644229Y-92431968D01*
X144780000Y-92445341D01*
X144815203Y-92441873D01*
X144824500Y-92441653D01*
X144824498Y-92441610D01*
X144830768Y-92441291D01*
X144830780Y-92441292D01*
X144844926Y-92439124D01*
X144851482Y-92438300D01*
X144976132Y-92426024D01*
X145014291Y-92414448D01*
X145030827Y-92410694D01*
X145031296Y-92410573D01*
X145031299Y-92410573D01*
X145046956Y-92404774D01*
X145054006Y-92402400D01*
X145164727Y-92368814D01*
X145203920Y-92347864D01*
X145219301Y-92340945D01*
X145221530Y-92340120D01*
X145236842Y-92330575D01*
X145243918Y-92326485D01*
X145330841Y-92280024D01*
X145338531Y-92275914D01*
X145338534Y-92275912D01*
X145338533Y-92275912D01*
X145338538Y-92275910D01*
X145376513Y-92244744D01*
X145389559Y-92235385D01*
X145393684Y-92232815D01*
X145407071Y-92220088D01*
X145413805Y-92214139D01*
X145490883Y-92150883D01*
X145525082Y-92109211D01*
X145535480Y-92098027D01*
X145540715Y-92093052D01*
X145540717Y-92093048D01*
X145540719Y-92093047D01*
X145545618Y-92086007D01*
X145551154Y-92078053D01*
X145557050Y-92070258D01*
X145615910Y-91998538D01*
X145643641Y-91946656D01*
X145651203Y-91934308D01*
X145656601Y-91926553D01*
X145663534Y-91910396D01*
X145668110Y-91900878D01*
X145708814Y-91824727D01*
X145727340Y-91763653D01*
X145765635Y-91705217D01*
X145829447Y-91676759D01*
X145898514Y-91687318D01*
X145950908Y-91733541D01*
X145970000Y-91799649D01*
X145970000Y-92337844D01*
X145976401Y-92397372D01*
X145976403Y-92397379D01*
X146026645Y-92532086D01*
X146026649Y-92532093D01*
X146112809Y-92647187D01*
X146112812Y-92647190D01*
X146227906Y-92733350D01*
X146227913Y-92733354D01*
X146362620Y-92783596D01*
X146362627Y-92783598D01*
X146422155Y-92789999D01*
X146422172Y-92790000D01*
X147070000Y-92790000D01*
X147070000Y-91875501D01*
X147177685Y-91924680D01*
X147284237Y-91940000D01*
X147355763Y-91940000D01*
X147462315Y-91924680D01*
X147570000Y-91875501D01*
X147570000Y-92790000D01*
X148217828Y-92790000D01*
X148217844Y-92789999D01*
X148277372Y-92783598D01*
X148277379Y-92783596D01*
X148412086Y-92733354D01*
X148412093Y-92733350D01*
X148527187Y-92647190D01*
X148527190Y-92647187D01*
X148613350Y-92532093D01*
X148613354Y-92532086D01*
X148663596Y-92397379D01*
X148663598Y-92397372D01*
X148669999Y-92337844D01*
X148670000Y-92337827D01*
X148670000Y-91690000D01*
X147753686Y-91690000D01*
X147779493Y-91649844D01*
X147820000Y-91511889D01*
X147820000Y-91368111D01*
X147779493Y-91230156D01*
X147753686Y-91190000D01*
X148670000Y-91190000D01*
X148670000Y-90542172D01*
X148669999Y-90542155D01*
X148663598Y-90482627D01*
X148663596Y-90482620D01*
X148613354Y-90347913D01*
X148613350Y-90347906D01*
X148527190Y-90232812D01*
X148527187Y-90232809D01*
X148412093Y-90146649D01*
X148412086Y-90146645D01*
X148277379Y-90096403D01*
X148277372Y-90096401D01*
X148217844Y-90090000D01*
X147570000Y-90090000D01*
X147570000Y-91004498D01*
X147462315Y-90955320D01*
X147355763Y-90940000D01*
X147284237Y-90940000D01*
X147177685Y-90955320D01*
X147070000Y-91004498D01*
X147070000Y-90090000D01*
X146422155Y-90090000D01*
X146362627Y-90096401D01*
X146362620Y-90096403D01*
X146227913Y-90146645D01*
X146227906Y-90146649D01*
X146112812Y-90232809D01*
X146112809Y-90232812D01*
X146026649Y-90347906D01*
X146026645Y-90347913D01*
X145976403Y-90482620D01*
X145976401Y-90482627D01*
X145970000Y-90542155D01*
X145970000Y-91080349D01*
X145950315Y-91147388D01*
X145897511Y-91193143D01*
X145828353Y-91203087D01*
X145764797Y-91174062D01*
X145727339Y-91116343D01*
X145723150Y-91102535D01*
X145708814Y-91055273D01*
X145668114Y-90979130D01*
X145663528Y-90969589D01*
X145656602Y-90953450D01*
X145656601Y-90953447D01*
X145651213Y-90945706D01*
X145643636Y-90933334D01*
X145615910Y-90881462D01*
X145615908Y-90881460D01*
X145615908Y-90881459D01*
X145557069Y-90809765D01*
X145551143Y-90801931D01*
X145540716Y-90786949D01*
X145535486Y-90781977D01*
X145525068Y-90770771D01*
X145490883Y-90729116D01*
X145413830Y-90665880D01*
X145407067Y-90659905D01*
X145393686Y-90647187D01*
X145393684Y-90647185D01*
X145389560Y-90644614D01*
X145376493Y-90635239D01*
X145338540Y-90604091D01*
X145338532Y-90604086D01*
X145243957Y-90553535D01*
X145236821Y-90549410D01*
X145221537Y-90539884D01*
X145221532Y-90539881D01*
X145221530Y-90539880D01*
X145221528Y-90539879D01*
X145221522Y-90539876D01*
X145219293Y-90539051D01*
X145203912Y-90532130D01*
X145164728Y-90511186D01*
X145054036Y-90477607D01*
X145046973Y-90475231D01*
X145031300Y-90469427D01*
X145030854Y-90469312D01*
X145014276Y-90465547D01*
X145013267Y-90465241D01*
X144995018Y-90459705D01*
X144976130Y-90453975D01*
X144851508Y-90441701D01*
X144844893Y-90440869D01*
X144830786Y-90438708D01*
X144824504Y-90438390D01*
X144824506Y-90438347D01*
X144815205Y-90438125D01*
X144780003Y-90434659D01*
X144779999Y-90434659D01*
X144644257Y-90448027D01*
X144638392Y-90448464D01*
X144628187Y-90448982D01*
X144621974Y-90449934D01*
X144621931Y-90449654D01*
X144614679Y-90450941D01*
X144583869Y-90453975D01*
X144440446Y-90497482D01*
X144435545Y-90498859D01*
X144431795Y-90499830D01*
X144431175Y-90500060D01*
X144424123Y-90502433D01*
X144395270Y-90511186D01*
X144221467Y-90604086D01*
X144221460Y-90604090D01*
X144069116Y-90729116D01*
X143944090Y-90881460D01*
X143944086Y-90881467D01*
X143851188Y-91055266D01*
X143793975Y-91243870D01*
X143774659Y-91440000D01*
X141006857Y-91440000D01*
X140999919Y-91360699D01*
X140999481Y-91352681D01*
X140998908Y-91326360D01*
X140995887Y-91309227D01*
X140994482Y-91298560D01*
X140987003Y-91213067D01*
X140964793Y-91130179D01*
X140962456Y-91119633D01*
X140959442Y-91102542D01*
X140959441Y-91102534D01*
X140953500Y-91086211D01*
X140950251Y-91075906D01*
X140933944Y-91015048D01*
X140928047Y-90993038D01*
X140928041Y-90993022D01*
X140891788Y-90915276D01*
X140887649Y-90905286D01*
X140886356Y-90901735D01*
X140881707Y-90888961D01*
X140881703Y-90888954D01*
X140873020Y-90873914D01*
X140868026Y-90864321D01*
X140831771Y-90786572D01*
X140831769Y-90786568D01*
X140802083Y-90744173D01*
X140782557Y-90716287D01*
X140776755Y-90707179D01*
X140768067Y-90692131D01*
X140768066Y-90692129D01*
X140768065Y-90692128D01*
X140756903Y-90678826D01*
X140750317Y-90670243D01*
X140701112Y-90599970D01*
X140701107Y-90599965D01*
X140640437Y-90539295D01*
X140633139Y-90531330D01*
X140621979Y-90518029D01*
X140621978Y-90518028D01*
X140621976Y-90518026D01*
X140621975Y-90518025D01*
X140608657Y-90506850D01*
X140600693Y-90499551D01*
X140540034Y-90438892D01*
X140540031Y-90438889D01*
X140533990Y-90434659D01*
X140469748Y-90389675D01*
X140461170Y-90383093D01*
X140447870Y-90371934D01*
X140447869Y-90371933D01*
X140442465Y-90368813D01*
X140432824Y-90363246D01*
X140423708Y-90357438D01*
X140353429Y-90308229D01*
X140275672Y-90271970D01*
X140266080Y-90266976D01*
X140251046Y-90258296D01*
X140251043Y-90258295D01*
X140251041Y-90258294D01*
X140251039Y-90258293D01*
X140241451Y-90254803D01*
X140234709Y-90252349D01*
X140224722Y-90248211D01*
X140146974Y-90211957D01*
X140146971Y-90211956D01*
X140137064Y-90209301D01*
X140064095Y-90189748D01*
X140053786Y-90186498D01*
X140037469Y-90180560D01*
X140037456Y-90180556D01*
X140020358Y-90177541D01*
X140009802Y-90175201D01*
X139926938Y-90152998D01*
X139926929Y-90152996D01*
X139841467Y-90145519D01*
X139830748Y-90144108D01*
X139813641Y-90141092D01*
X139813640Y-90141092D01*
X139796270Y-90141092D01*
X139785463Y-90140620D01*
X139700002Y-90133143D01*
X139699998Y-90133143D01*
X139614537Y-90140620D01*
X139603730Y-90141092D01*
X139586356Y-90141092D01*
X139569251Y-90144108D01*
X139558533Y-90145519D01*
X139473070Y-90152996D01*
X139473061Y-90152998D01*
X139390198Y-90175201D01*
X139379641Y-90177541D01*
X139362542Y-90180556D01*
X139362535Y-90180558D01*
X139346213Y-90186498D01*
X139335908Y-90189747D01*
X139253029Y-90211956D01*
X139175266Y-90248215D01*
X139165286Y-90252349D01*
X139148964Y-90258291D01*
X139148958Y-90258293D01*
X139133906Y-90266983D01*
X139124321Y-90271972D01*
X139046579Y-90308224D01*
X139046578Y-90308225D01*
X139046572Y-90308228D01*
X139046572Y-90308229D01*
X139045711Y-90308832D01*
X138976292Y-90357438D01*
X138967179Y-90363244D01*
X138952128Y-90371934D01*
X138938825Y-90383097D01*
X138930248Y-90389678D01*
X138868579Y-90432860D01*
X138860228Y-90438708D01*
X138859965Y-90438892D01*
X138799295Y-90499561D01*
X138791326Y-90506863D01*
X138778025Y-90518025D01*
X138766863Y-90531326D01*
X138759561Y-90539295D01*
X138698892Y-90599965D01*
X138698889Y-90599968D01*
X138698889Y-90599969D01*
X138696003Y-90604091D01*
X138649678Y-90670248D01*
X138643097Y-90678825D01*
X138631934Y-90692128D01*
X138623244Y-90707179D01*
X138617438Y-90716292D01*
X138579293Y-90770771D01*
X138571447Y-90781977D01*
X138568225Y-90786578D01*
X138568224Y-90786579D01*
X138531972Y-90864321D01*
X138526983Y-90873906D01*
X138518293Y-90888958D01*
X138518291Y-90888964D01*
X138512349Y-90905286D01*
X138508215Y-90915266D01*
X138471956Y-90993029D01*
X138449747Y-91075908D01*
X138446498Y-91086213D01*
X138440558Y-91102535D01*
X138440556Y-91102542D01*
X138437541Y-91119641D01*
X138435201Y-91130198D01*
X138412998Y-91213061D01*
X138412996Y-91213070D01*
X138405519Y-91298533D01*
X138404108Y-91309251D01*
X138401092Y-91326356D01*
X138401092Y-91343729D01*
X138400620Y-91354536D01*
X138393143Y-91440000D01*
X137000500Y-91440000D01*
X137000500Y-89773933D01*
X173445668Y-89773933D01*
X173461058Y-89861210D01*
X173476135Y-89946711D01*
X173545623Y-90107804D01*
X173545624Y-90107806D01*
X173545626Y-90107809D01*
X173623162Y-90211957D01*
X173650390Y-90248530D01*
X173784786Y-90361302D01*
X173828176Y-90383093D01*
X173941562Y-90440038D01*
X173941563Y-90440038D01*
X173941567Y-90440040D01*
X174112279Y-90480500D01*
X174112282Y-90480500D01*
X174243701Y-90480500D01*
X174243709Y-90480500D01*
X174374255Y-90465241D01*
X174539117Y-90405237D01*
X174685696Y-90308830D01*
X174806092Y-90181218D01*
X174893812Y-90029281D01*
X174944130Y-89861210D01*
X174949213Y-89773933D01*
X176445668Y-89773933D01*
X176461058Y-89861210D01*
X176476135Y-89946711D01*
X176545623Y-90107804D01*
X176545624Y-90107806D01*
X176545626Y-90107809D01*
X176623162Y-90211957D01*
X176650390Y-90248530D01*
X176784786Y-90361302D01*
X176828176Y-90383093D01*
X176941562Y-90440038D01*
X176941563Y-90440038D01*
X176941567Y-90440040D01*
X177112279Y-90480500D01*
X177112282Y-90480500D01*
X177243701Y-90480500D01*
X177243709Y-90480500D01*
X177374255Y-90465241D01*
X177539117Y-90405237D01*
X177685696Y-90308830D01*
X177806092Y-90181218D01*
X177893812Y-90029281D01*
X177944130Y-89861210D01*
X177954331Y-89686065D01*
X177923865Y-89513289D01*
X177854377Y-89352196D01*
X177749610Y-89211470D01*
X177677747Y-89151170D01*
X177615214Y-89098698D01*
X177615212Y-89098697D01*
X177458437Y-89019961D01*
X177458433Y-89019960D01*
X177287721Y-88979500D01*
X177156291Y-88979500D01*
X177051854Y-88991707D01*
X177025743Y-88994759D01*
X177025740Y-88994760D01*
X176860884Y-89054762D01*
X176860880Y-89054764D01*
X176714306Y-89151167D01*
X176714305Y-89151168D01*
X176593910Y-89278778D01*
X176506188Y-89430718D01*
X176455870Y-89598789D01*
X176455869Y-89598794D01*
X176445668Y-89773933D01*
X174949213Y-89773933D01*
X174954331Y-89686065D01*
X174923865Y-89513289D01*
X174854377Y-89352196D01*
X174749610Y-89211470D01*
X174677747Y-89151170D01*
X174615214Y-89098698D01*
X174615212Y-89098697D01*
X174458437Y-89019961D01*
X174458433Y-89019960D01*
X174287721Y-88979500D01*
X174156291Y-88979500D01*
X174051854Y-88991707D01*
X174025743Y-88994759D01*
X174025740Y-88994760D01*
X173860884Y-89054762D01*
X173860880Y-89054764D01*
X173714306Y-89151167D01*
X173714305Y-89151168D01*
X173593910Y-89278778D01*
X173506188Y-89430718D01*
X173455870Y-89598789D01*
X173455869Y-89598794D01*
X173445668Y-89773933D01*
X137000500Y-89773933D01*
X137000500Y-88490000D01*
X138826634Y-88490000D01*
X138826931Y-88491946D01*
X138826933Y-88491952D01*
X138897562Y-88682657D01*
X138897565Y-88682664D01*
X139005149Y-88855267D01*
X139145264Y-89002668D01*
X139145266Y-89002669D01*
X139312195Y-89118856D01*
X139499092Y-89199059D01*
X139698310Y-89240000D01*
X139850000Y-89240000D01*
X139850000Y-88540000D01*
X140350000Y-88540000D01*
X140350000Y-89240000D01*
X140450713Y-89240000D01*
X140602338Y-89224581D01*
X140796381Y-89163700D01*
X140796391Y-89163695D01*
X140974215Y-89064994D01*
X140974216Y-89064994D01*
X141128530Y-88932521D01*
X141128531Y-88932520D01*
X141253018Y-88771695D01*
X141342588Y-88589093D01*
X141368246Y-88490000D01*
X142756634Y-88490000D01*
X142756931Y-88491946D01*
X142756933Y-88491952D01*
X142827562Y-88682657D01*
X142827565Y-88682664D01*
X142935149Y-88855267D01*
X143075264Y-89002668D01*
X143075266Y-89002669D01*
X143242195Y-89118856D01*
X143429092Y-89199059D01*
X143628310Y-89240000D01*
X144030000Y-89240000D01*
X144030000Y-88540000D01*
X144530000Y-88540000D01*
X144530000Y-89240000D01*
X144880713Y-89240000D01*
X145032338Y-89224581D01*
X145226381Y-89163700D01*
X145226391Y-89163695D01*
X145404215Y-89064994D01*
X145404216Y-89064994D01*
X145558530Y-88932521D01*
X145558531Y-88932520D01*
X145683018Y-88771695D01*
X145772588Y-88589093D01*
X145798246Y-88490000D01*
X144996111Y-88490000D01*
X145035610Y-88465543D01*
X145103201Y-88376038D01*
X145133895Y-88268160D01*
X145123546Y-88156479D01*
X145073552Y-88056078D01*
X145001069Y-87990000D01*
X145803366Y-87990000D01*
X145803068Y-87988053D01*
X145803066Y-87988047D01*
X145732437Y-87797342D01*
X145732434Y-87797335D01*
X145624850Y-87624732D01*
X145484735Y-87477331D01*
X145484733Y-87477330D01*
X145317804Y-87361143D01*
X145130907Y-87280940D01*
X144931690Y-87240000D01*
X144380384Y-87240000D01*
X144313345Y-87220315D01*
X144267590Y-87167511D01*
X144257646Y-87098353D01*
X144265823Y-87068547D01*
X144271716Y-87054319D01*
X144310687Y-86960236D01*
X144330466Y-86810000D01*
X144310687Y-86659764D01*
X144252698Y-86519767D01*
X144160451Y-86399549D01*
X144040233Y-86307302D01*
X144040229Y-86307300D01*
X143976801Y-86281027D01*
X143900236Y-86249313D01*
X143886171Y-86247461D01*
X143787727Y-86234500D01*
X143787720Y-86234500D01*
X143712280Y-86234500D01*
X143712272Y-86234500D01*
X143599764Y-86249313D01*
X143599763Y-86249313D01*
X143459770Y-86307300D01*
X143459767Y-86307301D01*
X143459767Y-86307302D01*
X143339549Y-86399549D01*
X143291533Y-86462125D01*
X143247300Y-86519770D01*
X143189313Y-86659763D01*
X143189312Y-86659765D01*
X143169534Y-86809999D01*
X143169534Y-86810000D01*
X143189312Y-86960234D01*
X143189313Y-86960236D01*
X143247300Y-87100230D01*
X143247302Y-87100234D01*
X143283624Y-87147568D01*
X143298926Y-87167511D01*
X143301799Y-87171254D01*
X143326994Y-87236423D01*
X143312956Y-87304868D01*
X143264143Y-87354858D01*
X143263603Y-87355159D01*
X143155788Y-87415002D01*
X143155783Y-87415005D01*
X143001469Y-87547478D01*
X143001468Y-87547479D01*
X142876981Y-87708304D01*
X142787411Y-87890906D01*
X142761754Y-87990000D01*
X143563889Y-87990000D01*
X143524390Y-88014457D01*
X143456799Y-88103962D01*
X143426105Y-88211840D01*
X143436454Y-88323521D01*
X143486448Y-88423922D01*
X143558931Y-88490000D01*
X142756634Y-88490000D01*
X141368246Y-88490000D01*
X140566111Y-88490000D01*
X140605610Y-88465543D01*
X140673201Y-88376038D01*
X140703895Y-88268160D01*
X140693546Y-88156479D01*
X140643552Y-88056078D01*
X140571069Y-87990000D01*
X141373366Y-87990000D01*
X141373068Y-87988053D01*
X141373066Y-87988047D01*
X141302437Y-87797342D01*
X141302434Y-87797335D01*
X141194850Y-87624732D01*
X141054735Y-87477331D01*
X141054733Y-87477330D01*
X140887804Y-87361143D01*
X140700907Y-87280940D01*
X140501690Y-87240000D01*
X140350000Y-87240000D01*
X140350000Y-87940000D01*
X139850000Y-87940000D01*
X139850000Y-87240000D01*
X139749287Y-87240000D01*
X139597661Y-87255418D01*
X139403618Y-87316299D01*
X139403608Y-87316304D01*
X139225784Y-87415005D01*
X139225783Y-87415005D01*
X139071469Y-87547478D01*
X139071468Y-87547479D01*
X138946981Y-87708304D01*
X138857411Y-87890906D01*
X138831754Y-87990000D01*
X139633889Y-87990000D01*
X139594390Y-88014457D01*
X139526799Y-88103962D01*
X139496105Y-88211840D01*
X139506454Y-88323521D01*
X139556448Y-88423922D01*
X139628931Y-88490000D01*
X138826634Y-88490000D01*
X137000500Y-88490000D01*
X137000500Y-79850000D01*
X138826634Y-79850000D01*
X138826931Y-79851946D01*
X138826933Y-79851952D01*
X138897562Y-80042657D01*
X138897565Y-80042664D01*
X139005149Y-80215267D01*
X139145264Y-80362668D01*
X139145266Y-80362669D01*
X139312195Y-80478856D01*
X139499092Y-80559059D01*
X139698310Y-80600000D01*
X139850000Y-80600000D01*
X139850000Y-79900000D01*
X140350000Y-79900000D01*
X140350000Y-80600000D01*
X140450713Y-80600000D01*
X140602338Y-80584581D01*
X140796381Y-80523700D01*
X140796391Y-80523695D01*
X140974215Y-80424994D01*
X140974216Y-80424994D01*
X141128530Y-80292521D01*
X141128531Y-80292520D01*
X141253018Y-80131695D01*
X141342588Y-79949093D01*
X141368246Y-79850000D01*
X142756634Y-79850000D01*
X142756931Y-79851946D01*
X142756933Y-79851952D01*
X142827562Y-80042657D01*
X142827565Y-80042664D01*
X142935149Y-80215267D01*
X143075264Y-80362668D01*
X143075266Y-80362669D01*
X143242197Y-80478857D01*
X143250071Y-80482236D01*
X143303917Y-80526760D01*
X143325142Y-80593328D01*
X143307009Y-80660804D01*
X143299551Y-80671674D01*
X143247302Y-80739766D01*
X143247300Y-80739769D01*
X143189313Y-80879763D01*
X143189312Y-80879765D01*
X143169534Y-81029999D01*
X143169534Y-81030000D01*
X143189312Y-81180234D01*
X143189313Y-81180236D01*
X143247302Y-81320233D01*
X143339549Y-81440451D01*
X143459767Y-81532698D01*
X143599764Y-81590687D01*
X143712280Y-81605500D01*
X143712287Y-81605500D01*
X143787713Y-81605500D01*
X143787720Y-81605500D01*
X143900236Y-81590687D01*
X144040233Y-81532698D01*
X144160451Y-81440451D01*
X144252698Y-81320233D01*
X144295252Y-81217500D01*
X148866857Y-81217500D01*
X148887384Y-81439035D01*
X148887385Y-81439037D01*
X148948269Y-81653023D01*
X148948275Y-81653038D01*
X149047438Y-81852183D01*
X149047443Y-81852191D01*
X149181520Y-82029738D01*
X149345937Y-82179623D01*
X149345939Y-82179625D01*
X149535095Y-82296745D01*
X149535096Y-82296745D01*
X149535099Y-82296747D01*
X149742560Y-82377118D01*
X149961257Y-82418000D01*
X149961259Y-82418000D01*
X150183741Y-82418000D01*
X150183743Y-82418000D01*
X150402440Y-82377118D01*
X150609901Y-82296747D01*
X150799062Y-82179624D01*
X150963481Y-82029736D01*
X151002998Y-81977405D01*
X151059105Y-81935772D01*
X151128817Y-81931079D01*
X151189632Y-81964453D01*
X155202887Y-85977707D01*
X155208007Y-85983145D01*
X155247907Y-86028183D01*
X155297410Y-86062352D01*
X155303439Y-86066788D01*
X155350780Y-86103878D01*
X155350782Y-86103879D01*
X155350785Y-86103881D01*
X155360013Y-86108034D01*
X155379567Y-86119062D01*
X155387906Y-86124818D01*
X155444167Y-86146154D01*
X155451044Y-86149003D01*
X155472399Y-86158615D01*
X155505899Y-86173693D01*
X155505902Y-86173693D01*
X155505905Y-86173695D01*
X155515870Y-86175521D01*
X155537492Y-86181548D01*
X155540613Y-86182731D01*
X155546964Y-86185140D01*
X155604525Y-86192128D01*
X155606651Y-86192387D01*
X155614058Y-86193514D01*
X155673230Y-86204358D01*
X155733269Y-86200725D01*
X155740757Y-86200500D01*
X158962895Y-86200500D01*
X159029934Y-86220185D01*
X159061849Y-86249773D01*
X159109020Y-86312238D01*
X159273437Y-86462123D01*
X159273439Y-86462125D01*
X159462595Y-86579245D01*
X159462596Y-86579245D01*
X159462599Y-86579247D01*
X159670060Y-86659618D01*
X159888757Y-86700500D01*
X159888759Y-86700500D01*
X160111241Y-86700500D01*
X160111243Y-86700500D01*
X160329940Y-86659618D01*
X160537401Y-86579247D01*
X160726562Y-86462124D01*
X160890981Y-86312236D01*
X161025058Y-86134689D01*
X161124229Y-85935528D01*
X161185115Y-85721536D01*
X161205643Y-85500000D01*
X161185115Y-85278464D01*
X161124229Y-85064472D01*
X161124224Y-85064461D01*
X161025061Y-84865316D01*
X161025056Y-84865308D01*
X160890979Y-84687761D01*
X160726562Y-84537876D01*
X160726560Y-84537874D01*
X160537404Y-84420754D01*
X160537398Y-84420752D01*
X160329940Y-84340382D01*
X160111243Y-84299500D01*
X159888757Y-84299500D01*
X159670060Y-84340382D01*
X159538864Y-84391207D01*
X159462601Y-84420752D01*
X159462595Y-84420754D01*
X159273439Y-84537874D01*
X159273437Y-84537876D01*
X159109020Y-84687761D01*
X159061849Y-84750227D01*
X159005740Y-84791863D01*
X158962895Y-84799500D01*
X156057354Y-84799500D01*
X155990315Y-84779815D01*
X155969673Y-84763181D01*
X152376493Y-81170000D01*
X163024357Y-81170000D01*
X163044884Y-81391535D01*
X163044885Y-81391537D01*
X163105769Y-81605523D01*
X163105775Y-81605538D01*
X163204938Y-81804683D01*
X163204943Y-81804691D01*
X163339020Y-81982238D01*
X163503437Y-82132123D01*
X163503439Y-82132125D01*
X163692595Y-82249245D01*
X163692596Y-82249245D01*
X163692599Y-82249247D01*
X163900060Y-82329618D01*
X164118757Y-82370500D01*
X164118759Y-82370500D01*
X164341241Y-82370500D01*
X164341243Y-82370500D01*
X164559940Y-82329618D01*
X164767401Y-82249247D01*
X164956562Y-82132124D01*
X165120981Y-81982236D01*
X165243667Y-81819772D01*
X165299776Y-81778137D01*
X165342621Y-81770500D01*
X173152513Y-81770500D01*
X173168697Y-81771560D01*
X173200000Y-81775682D01*
X173200001Y-81775682D01*
X173252254Y-81768802D01*
X173356762Y-81755044D01*
X173502841Y-81694536D01*
X173572754Y-81640890D01*
X173628282Y-81598282D01*
X173647510Y-81573222D01*
X173658189Y-81561044D01*
X175392416Y-79826819D01*
X175453739Y-79793334D01*
X175480097Y-79790500D01*
X176129750Y-79790500D01*
X176129751Y-79790499D01*
X176144568Y-79787552D01*
X176188229Y-79778868D01*
X176188229Y-79778867D01*
X176188231Y-79778867D01*
X176254552Y-79734552D01*
X176258377Y-79728826D01*
X176311988Y-79684021D01*
X176381312Y-79675311D01*
X176444341Y-79705464D01*
X176477663Y-79754381D01*
X176506646Y-79832087D01*
X176506649Y-79832093D01*
X176592809Y-79947187D01*
X176592812Y-79947190D01*
X176707906Y-80033350D01*
X176707913Y-80033354D01*
X176842620Y-80083596D01*
X176842627Y-80083598D01*
X176902155Y-80089999D01*
X176902172Y-80090000D01*
X177550000Y-80090000D01*
X177550000Y-79175501D01*
X177657685Y-79224680D01*
X177764237Y-79240000D01*
X177835763Y-79240000D01*
X177942315Y-79224680D01*
X178050000Y-79175501D01*
X178050000Y-80090000D01*
X178697828Y-80090000D01*
X178697844Y-80089999D01*
X178757372Y-80083598D01*
X178757379Y-80083596D01*
X178892086Y-80033354D01*
X178892093Y-80033350D01*
X179007187Y-79947190D01*
X179007190Y-79947187D01*
X179093350Y-79832093D01*
X179093354Y-79832086D01*
X179143596Y-79697379D01*
X179143598Y-79697372D01*
X179149999Y-79637844D01*
X179150000Y-79637827D01*
X179150000Y-78990000D01*
X178233686Y-78990000D01*
X178259493Y-78949844D01*
X178300000Y-78811889D01*
X178300000Y-78668111D01*
X178259493Y-78530156D01*
X178233686Y-78490000D01*
X179150000Y-78490000D01*
X179150000Y-77842172D01*
X179149999Y-77842155D01*
X179143598Y-77782627D01*
X179143596Y-77782620D01*
X179093354Y-77647913D01*
X179093350Y-77647906D01*
X179007190Y-77532812D01*
X179007187Y-77532809D01*
X178892093Y-77446649D01*
X178892086Y-77446645D01*
X178757379Y-77396403D01*
X178757372Y-77396401D01*
X178697844Y-77390000D01*
X178092161Y-77390000D01*
X178025122Y-77370315D01*
X177979367Y-77317511D01*
X177969423Y-77248353D01*
X177998448Y-77184797D01*
X178056159Y-77147342D01*
X178072284Y-77142450D01*
X178088827Y-77138695D01*
X178089296Y-77138573D01*
X178089299Y-77138573D01*
X178104956Y-77132774D01*
X178112006Y-77130400D01*
X178222727Y-77096814D01*
X178261920Y-77075864D01*
X178277301Y-77068945D01*
X178279530Y-77068120D01*
X178294842Y-77058575D01*
X178301918Y-77054485D01*
X178396533Y-77003913D01*
X178396534Y-77003912D01*
X178396533Y-77003912D01*
X178396538Y-77003910D01*
X178434513Y-76972744D01*
X178447559Y-76963385D01*
X178451684Y-76960815D01*
X178465071Y-76948088D01*
X178471805Y-76942139D01*
X178548883Y-76878883D01*
X178583082Y-76837211D01*
X178593480Y-76826027D01*
X178598715Y-76821052D01*
X178598717Y-76821048D01*
X178598719Y-76821047D01*
X178603618Y-76814007D01*
X178609154Y-76806053D01*
X178615050Y-76798258D01*
X178673910Y-76726538D01*
X178701641Y-76674656D01*
X178709203Y-76662308D01*
X178714601Y-76654553D01*
X178721534Y-76638396D01*
X178726110Y-76628878D01*
X178766814Y-76552727D01*
X178785362Y-76491580D01*
X178790060Y-76478713D01*
X178794600Y-76468135D01*
X178797924Y-76451957D01*
X178800705Y-76441002D01*
X178824024Y-76364132D01*
X178830798Y-76295345D01*
X178832737Y-76282556D01*
X178835435Y-76269429D01*
X178836041Y-76245434D01*
X178836593Y-76236510D01*
X178843341Y-76168000D01*
X178836593Y-76099493D01*
X178836041Y-76090561D01*
X178835435Y-76066571D01*
X178832735Y-76053435D01*
X178830799Y-76040657D01*
X178824024Y-75971868D01*
X178800714Y-75895027D01*
X178797920Y-75884022D01*
X178794600Y-75867865D01*
X178790062Y-75857290D01*
X178785354Y-75844391D01*
X178766814Y-75783273D01*
X178726114Y-75707130D01*
X178721528Y-75697589D01*
X178714602Y-75681450D01*
X178714601Y-75681447D01*
X178709213Y-75673706D01*
X178701636Y-75661334D01*
X178673910Y-75609462D01*
X178673908Y-75609460D01*
X178673908Y-75609459D01*
X178634902Y-75561931D01*
X178615063Y-75537757D01*
X178609143Y-75529931D01*
X178598716Y-75514949D01*
X178593486Y-75509977D01*
X178583068Y-75498771D01*
X178548883Y-75457116D01*
X178471830Y-75393880D01*
X178465067Y-75387905D01*
X178451686Y-75375187D01*
X178451684Y-75375185D01*
X178447560Y-75372614D01*
X178434493Y-75363239D01*
X178396540Y-75332091D01*
X178396532Y-75332086D01*
X178301957Y-75281535D01*
X178294821Y-75277410D01*
X178279537Y-75267884D01*
X178279532Y-75267881D01*
X178279530Y-75267880D01*
X178279528Y-75267879D01*
X178279522Y-75267876D01*
X178277293Y-75267051D01*
X178261912Y-75260130D01*
X178222728Y-75239186D01*
X178112036Y-75205607D01*
X178104973Y-75203231D01*
X178089300Y-75197427D01*
X178088854Y-75197312D01*
X178072276Y-75193547D01*
X178034130Y-75181975D01*
X177909508Y-75169701D01*
X177902893Y-75168869D01*
X177888786Y-75166708D01*
X177882504Y-75166390D01*
X177882506Y-75166347D01*
X177873205Y-75166125D01*
X177838003Y-75162659D01*
X177837999Y-75162659D01*
X177702257Y-75176027D01*
X177696392Y-75176464D01*
X177686187Y-75176982D01*
X177679974Y-75177934D01*
X177679931Y-75177654D01*
X177672679Y-75178941D01*
X177641869Y-75181975D01*
X177498446Y-75225482D01*
X177493545Y-75226859D01*
X177489795Y-75227830D01*
X177489175Y-75228060D01*
X177482123Y-75230433D01*
X177453270Y-75239186D01*
X177279467Y-75332086D01*
X177279460Y-75332090D01*
X177127116Y-75457116D01*
X177002090Y-75609460D01*
X177002086Y-75609467D01*
X176909188Y-75783266D01*
X176851975Y-75971870D01*
X176832659Y-76168000D01*
X176851975Y-76364129D01*
X176909188Y-76552733D01*
X177002086Y-76726532D01*
X177002090Y-76726539D01*
X177127116Y-76878883D01*
X177279460Y-77003909D01*
X177279467Y-77003913D01*
X177443178Y-77091418D01*
X177453273Y-77096814D01*
X177482157Y-77105575D01*
X177489195Y-77107946D01*
X177489791Y-77108166D01*
X177489799Y-77108170D01*
X177493570Y-77109146D01*
X177498422Y-77110509D01*
X177571817Y-77132774D01*
X177619833Y-77147340D01*
X177678272Y-77185638D01*
X177706728Y-77249450D01*
X177696167Y-77318517D01*
X177649942Y-77370910D01*
X177583837Y-77390000D01*
X176902155Y-77390000D01*
X176842627Y-77396401D01*
X176842620Y-77396403D01*
X176707913Y-77446645D01*
X176707906Y-77446649D01*
X176592812Y-77532809D01*
X176592809Y-77532812D01*
X176506649Y-77647906D01*
X176506643Y-77647917D01*
X176477662Y-77725618D01*
X176435791Y-77781552D01*
X176370326Y-77805968D01*
X176302053Y-77791116D01*
X176258379Y-77751175D01*
X176254552Y-77745447D01*
X176188230Y-77701132D01*
X176188229Y-77701131D01*
X176129752Y-77689500D01*
X176129748Y-77689500D01*
X174390252Y-77689500D01*
X174390247Y-77689500D01*
X174331770Y-77701131D01*
X174331769Y-77701132D01*
X174265447Y-77745447D01*
X174221132Y-77811769D01*
X174221131Y-77811770D01*
X174209500Y-77870247D01*
X174209500Y-79259903D01*
X174189815Y-79326942D01*
X174173181Y-79347584D01*
X173967181Y-79553584D01*
X173905858Y-79587069D01*
X173836166Y-79582085D01*
X173780233Y-79540213D01*
X173755816Y-79474749D01*
X173755500Y-79465903D01*
X173755500Y-77895249D01*
X173755499Y-77895247D01*
X173743868Y-77836770D01*
X173743867Y-77836769D01*
X173699552Y-77770447D01*
X173633230Y-77726132D01*
X173633229Y-77726131D01*
X173574752Y-77714500D01*
X173574748Y-77714500D01*
X171835252Y-77714500D01*
X171835247Y-77714500D01*
X171776770Y-77726131D01*
X171776769Y-77726132D01*
X171710447Y-77770447D01*
X171666132Y-77836769D01*
X171666131Y-77836770D01*
X171654500Y-77895247D01*
X171654500Y-79634752D01*
X171666131Y-79693229D01*
X171666132Y-79693230D01*
X171710447Y-79759552D01*
X171776769Y-79803867D01*
X171776770Y-79803868D01*
X171835247Y-79815499D01*
X171835250Y-79815500D01*
X173405903Y-79815500D01*
X173472942Y-79835185D01*
X173518697Y-79887989D01*
X173528641Y-79957147D01*
X173499616Y-80020703D01*
X173493584Y-80027181D01*
X172987584Y-80533181D01*
X172926261Y-80566666D01*
X172899903Y-80569500D01*
X165342621Y-80569500D01*
X165275582Y-80549815D01*
X165243667Y-80520227D01*
X165241059Y-80516774D01*
X165204021Y-80467727D01*
X165120979Y-80357761D01*
X164956562Y-80207876D01*
X164956560Y-80207874D01*
X164767404Y-80090754D01*
X164767398Y-80090752D01*
X164765457Y-80090000D01*
X164559940Y-80010382D01*
X164341243Y-79969500D01*
X164118757Y-79969500D01*
X163900060Y-80010382D01*
X163840773Y-80033350D01*
X163692601Y-80090752D01*
X163692595Y-80090754D01*
X163503439Y-80207874D01*
X163503437Y-80207876D01*
X163339020Y-80357761D01*
X163204943Y-80535308D01*
X163204938Y-80535316D01*
X163105775Y-80734461D01*
X163105769Y-80734476D01*
X163044885Y-80948462D01*
X163044884Y-80948464D01*
X163024357Y-81169999D01*
X163024357Y-81170000D01*
X152376493Y-81170000D01*
X151946276Y-80739783D01*
X151941141Y-80734328D01*
X151901265Y-80689316D01*
X151901260Y-80689312D01*
X151851774Y-80655155D01*
X151845739Y-80650715D01*
X151798396Y-80613624D01*
X151798391Y-80613620D01*
X151789149Y-80609461D01*
X151769602Y-80598436D01*
X151767993Y-80597326D01*
X151761266Y-80592682D01*
X151705030Y-80571354D01*
X151698126Y-80568494D01*
X151643268Y-80543805D01*
X151643266Y-80543804D01*
X151633282Y-80541974D01*
X151611679Y-80535951D01*
X151602210Y-80532360D01*
X151602207Y-80532359D01*
X151542507Y-80525110D01*
X151535106Y-80523983D01*
X151475945Y-80513142D01*
X151475939Y-80513142D01*
X151415903Y-80516774D01*
X151408415Y-80517000D01*
X151109605Y-80517000D01*
X151042566Y-80497315D01*
X151010651Y-80467727D01*
X150963479Y-80405261D01*
X150799062Y-80255376D01*
X150799060Y-80255374D01*
X150609904Y-80138254D01*
X150609898Y-80138252D01*
X150402440Y-80057882D01*
X150183743Y-80017000D01*
X149961257Y-80017000D01*
X149742560Y-80057882D01*
X149657708Y-80090754D01*
X149535101Y-80138252D01*
X149535095Y-80138254D01*
X149345939Y-80255374D01*
X149345937Y-80255376D01*
X149181520Y-80405261D01*
X149047443Y-80582808D01*
X149047438Y-80582816D01*
X148948275Y-80781961D01*
X148948269Y-80781976D01*
X148887385Y-80995962D01*
X148887384Y-80995964D01*
X148866857Y-81217499D01*
X148866857Y-81217500D01*
X144295252Y-81217500D01*
X144310687Y-81180236D01*
X144330466Y-81030000D01*
X144310687Y-80879764D01*
X144270180Y-80781972D01*
X144265823Y-80771453D01*
X144258354Y-80701983D01*
X144289629Y-80639504D01*
X144349718Y-80603852D01*
X144380384Y-80600000D01*
X144880713Y-80600000D01*
X145032338Y-80584581D01*
X145226381Y-80523700D01*
X145226391Y-80523695D01*
X145404215Y-80424994D01*
X145404216Y-80424994D01*
X145558530Y-80292521D01*
X145558531Y-80292520D01*
X145683018Y-80131695D01*
X145772588Y-79949093D01*
X145798246Y-79850000D01*
X144996111Y-79850000D01*
X145035610Y-79825543D01*
X145103201Y-79736038D01*
X145133895Y-79628160D01*
X145123546Y-79516479D01*
X145073552Y-79416078D01*
X145001069Y-79350000D01*
X145803366Y-79350000D01*
X145803068Y-79348053D01*
X145803066Y-79348047D01*
X145732437Y-79157342D01*
X145732434Y-79157335D01*
X145624850Y-78984732D01*
X145484735Y-78837331D01*
X145484733Y-78837330D01*
X145317804Y-78721143D01*
X145130907Y-78640940D01*
X144931690Y-78600000D01*
X144530000Y-78600000D01*
X144530000Y-79300000D01*
X144030000Y-79300000D01*
X144030000Y-78600000D01*
X143679287Y-78600000D01*
X143527661Y-78615418D01*
X143333618Y-78676299D01*
X143333608Y-78676304D01*
X143155784Y-78775005D01*
X143155783Y-78775005D01*
X143001469Y-78907478D01*
X143001468Y-78907479D01*
X142876981Y-79068304D01*
X142787411Y-79250906D01*
X142761754Y-79350000D01*
X143563889Y-79350000D01*
X143524390Y-79374457D01*
X143456799Y-79463962D01*
X143426105Y-79571840D01*
X143436454Y-79683521D01*
X143486448Y-79783922D01*
X143558931Y-79850000D01*
X142756634Y-79850000D01*
X141368246Y-79850000D01*
X140566111Y-79850000D01*
X140605610Y-79825543D01*
X140673201Y-79736038D01*
X140703895Y-79628160D01*
X140693546Y-79516479D01*
X140643552Y-79416078D01*
X140571069Y-79350000D01*
X141373366Y-79350000D01*
X141373068Y-79348053D01*
X141373066Y-79348047D01*
X141302437Y-79157342D01*
X141302434Y-79157335D01*
X141194850Y-78984732D01*
X141054735Y-78837331D01*
X141054733Y-78837330D01*
X140887804Y-78721143D01*
X140700907Y-78640940D01*
X140501690Y-78600000D01*
X140350000Y-78600000D01*
X140350000Y-79300000D01*
X139850000Y-79300000D01*
X139850000Y-78600000D01*
X139749287Y-78600000D01*
X139597661Y-78615418D01*
X139403618Y-78676299D01*
X139403608Y-78676304D01*
X139225784Y-78775005D01*
X139225783Y-78775005D01*
X139071469Y-78907478D01*
X139071468Y-78907479D01*
X138946981Y-79068304D01*
X138857411Y-79250906D01*
X138831754Y-79350000D01*
X139633889Y-79350000D01*
X139594390Y-79374457D01*
X139526799Y-79463962D01*
X139496105Y-79571840D01*
X139506454Y-79683521D01*
X139556448Y-79783922D01*
X139628931Y-79850000D01*
X138826634Y-79850000D01*
X137000500Y-79850000D01*
X137000500Y-76200000D01*
X138394532Y-76200000D01*
X138402001Y-76285369D01*
X138402473Y-76296177D01*
X138402473Y-76313529D01*
X138405483Y-76330599D01*
X138406894Y-76341315D01*
X138414364Y-76426688D01*
X138414366Y-76426697D01*
X138436548Y-76509482D01*
X138438886Y-76520026D01*
X138441898Y-76537107D01*
X138441899Y-76537112D01*
X138441900Y-76537113D01*
X138447826Y-76553397D01*
X138451076Y-76563706D01*
X138468535Y-76628858D01*
X138473258Y-76646486D01*
X138473262Y-76646499D01*
X138509481Y-76724172D01*
X138513619Y-76734160D01*
X138519550Y-76750454D01*
X138528218Y-76765468D01*
X138533211Y-76775059D01*
X138569433Y-76852736D01*
X138618582Y-76922929D01*
X138624393Y-76932050D01*
X138633064Y-76947069D01*
X138633067Y-76947073D01*
X138633068Y-76947074D01*
X138644224Y-76960370D01*
X138650795Y-76968934D01*
X138683957Y-77016295D01*
X138699951Y-77039137D01*
X138699953Y-77039139D01*
X138760563Y-77099749D01*
X138767860Y-77107712D01*
X138768056Y-77107946D01*
X138779003Y-77120993D01*
X138779009Y-77120999D01*
X138787626Y-77128229D01*
X138792269Y-77132125D01*
X138792285Y-77132138D01*
X138800251Y-77139437D01*
X138860861Y-77200047D01*
X138931081Y-77249215D01*
X138939627Y-77255773D01*
X138952926Y-77266932D01*
X138967953Y-77275607D01*
X138977053Y-77281405D01*
X139047266Y-77330568D01*
X139124968Y-77366801D01*
X139134521Y-77371774D01*
X139149547Y-77380450D01*
X139165843Y-77386381D01*
X139175813Y-77390510D01*
X139253504Y-77426739D01*
X139253506Y-77426739D01*
X139253513Y-77426742D01*
X139311231Y-77442206D01*
X139336291Y-77448921D01*
X139346603Y-77452173D01*
X139348932Y-77453020D01*
X139362893Y-77458102D01*
X139379973Y-77461113D01*
X139390500Y-77463446D01*
X139473308Y-77485635D01*
X139558668Y-77493103D01*
X139558679Y-77493104D01*
X139569404Y-77494516D01*
X139573865Y-77495302D01*
X139586481Y-77497527D01*
X139586483Y-77497527D01*
X139603822Y-77497527D01*
X139614628Y-77497998D01*
X139631786Y-77499500D01*
X139699999Y-77505468D01*
X139700000Y-77505468D01*
X139700001Y-77505468D01*
X139768214Y-77499500D01*
X139785371Y-77497998D01*
X139796178Y-77497527D01*
X139813518Y-77497527D01*
X139813519Y-77497527D01*
X139830604Y-77494514D01*
X139841304Y-77493105D01*
X139926692Y-77485635D01*
X140009504Y-77463445D01*
X140020026Y-77461113D01*
X140037107Y-77458102D01*
X140053412Y-77452167D01*
X140063695Y-77448925D01*
X140122624Y-77433135D01*
X140146486Y-77426742D01*
X140146488Y-77426740D01*
X140146496Y-77426739D01*
X140224188Y-77390510D01*
X140234143Y-77386386D01*
X140250453Y-77380450D01*
X140265483Y-77371772D01*
X140275029Y-77366802D01*
X140352734Y-77330568D01*
X140422965Y-77281391D01*
X140432028Y-77275618D01*
X140447074Y-77266932D01*
X140460379Y-77255767D01*
X140468915Y-77249217D01*
X140539139Y-77200047D01*
X140599766Y-77139419D01*
X140607697Y-77132152D01*
X140620995Y-77120995D01*
X140632152Y-77107697D01*
X140639419Y-77099766D01*
X140700047Y-77039139D01*
X140749217Y-76968915D01*
X140755767Y-76960379D01*
X140766932Y-76947074D01*
X140775618Y-76932028D01*
X140781391Y-76922965D01*
X140830568Y-76852734D01*
X140866802Y-76775029D01*
X140871772Y-76765483D01*
X140880450Y-76750453D01*
X140886386Y-76734143D01*
X140890510Y-76724188D01*
X140926739Y-76646496D01*
X140928910Y-76638396D01*
X140943288Y-76584733D01*
X140948925Y-76563695D01*
X140952167Y-76553412D01*
X140958102Y-76537107D01*
X140961113Y-76520026D01*
X140963445Y-76509504D01*
X140985635Y-76426692D01*
X140993105Y-76341307D01*
X140994515Y-76330599D01*
X140997527Y-76313519D01*
X140998099Y-76287249D01*
X140998539Y-76279194D01*
X141005468Y-76200000D01*
X143774659Y-76200000D01*
X143793975Y-76396129D01*
X143851188Y-76584733D01*
X143944086Y-76758532D01*
X143944090Y-76758539D01*
X144069116Y-76910883D01*
X144221460Y-77035909D01*
X144221467Y-77035913D01*
X144394180Y-77128230D01*
X144395273Y-77128814D01*
X144424157Y-77137575D01*
X144431195Y-77139946D01*
X144431791Y-77140166D01*
X144431799Y-77140170D01*
X144435570Y-77141146D01*
X144440422Y-77142509D01*
X144542055Y-77173340D01*
X144582595Y-77185638D01*
X144583868Y-77186024D01*
X144614662Y-77189056D01*
X144621911Y-77190344D01*
X144621955Y-77190063D01*
X144628178Y-77191016D01*
X144628182Y-77191017D01*
X144638423Y-77191536D01*
X144644229Y-77191968D01*
X144780000Y-77205341D01*
X144815203Y-77201873D01*
X144824500Y-77201653D01*
X144824498Y-77201610D01*
X144830768Y-77201291D01*
X144830780Y-77201292D01*
X144844926Y-77199124D01*
X144851482Y-77198300D01*
X144976132Y-77186024D01*
X145014291Y-77174448D01*
X145030827Y-77170694D01*
X145031296Y-77170573D01*
X145031299Y-77170573D01*
X145033187Y-77169874D01*
X145046954Y-77164775D01*
X145054006Y-77162400D01*
X145164727Y-77128814D01*
X145203920Y-77107864D01*
X145219301Y-77100945D01*
X145221530Y-77100120D01*
X145236842Y-77090575D01*
X145243918Y-77086485D01*
X145275224Y-77069752D01*
X146269500Y-77069752D01*
X146281131Y-77128229D01*
X146281132Y-77128230D01*
X146325447Y-77194552D01*
X146391769Y-77238867D01*
X146391770Y-77238868D01*
X146450247Y-77250499D01*
X146450250Y-77250500D01*
X146450252Y-77250500D01*
X148189750Y-77250500D01*
X148189751Y-77250499D01*
X148204568Y-77247552D01*
X148248229Y-77238868D01*
X148248229Y-77238867D01*
X148248231Y-77238867D01*
X148314552Y-77194552D01*
X148358867Y-77128231D01*
X148358867Y-77128229D01*
X148358868Y-77128229D01*
X148370499Y-77069752D01*
X148370500Y-77069750D01*
X148370500Y-76200000D01*
X171752659Y-76200000D01*
X171771975Y-76396129D01*
X171829188Y-76584733D01*
X171922086Y-76758532D01*
X171922090Y-76758539D01*
X172047116Y-76910883D01*
X172199460Y-77035909D01*
X172199467Y-77035913D01*
X172372180Y-77128230D01*
X172373273Y-77128814D01*
X172402157Y-77137575D01*
X172409195Y-77139946D01*
X172409791Y-77140166D01*
X172409799Y-77140170D01*
X172413570Y-77141146D01*
X172418422Y-77142509D01*
X172520055Y-77173340D01*
X172560595Y-77185638D01*
X172561868Y-77186024D01*
X172592662Y-77189056D01*
X172599911Y-77190344D01*
X172599955Y-77190063D01*
X172606178Y-77191016D01*
X172606182Y-77191017D01*
X172616423Y-77191536D01*
X172622229Y-77191968D01*
X172758000Y-77205341D01*
X172793203Y-77201873D01*
X172802500Y-77201653D01*
X172802498Y-77201610D01*
X172808768Y-77201291D01*
X172808780Y-77201292D01*
X172822926Y-77199124D01*
X172829482Y-77198300D01*
X172954132Y-77186024D01*
X172992291Y-77174448D01*
X173008827Y-77170694D01*
X173009296Y-77170573D01*
X173009299Y-77170573D01*
X173011187Y-77169874D01*
X173024954Y-77164775D01*
X173032006Y-77162400D01*
X173142727Y-77128814D01*
X173181920Y-77107864D01*
X173197301Y-77100945D01*
X173199530Y-77100120D01*
X173214842Y-77090575D01*
X173221918Y-77086485D01*
X173316533Y-77035913D01*
X173316534Y-77035912D01*
X173316533Y-77035912D01*
X173316538Y-77035910D01*
X173354513Y-77004744D01*
X173367559Y-76995385D01*
X173371684Y-76992815D01*
X173385071Y-76980088D01*
X173391805Y-76974139D01*
X173468883Y-76910883D01*
X173503082Y-76869211D01*
X173513480Y-76858027D01*
X173518715Y-76853052D01*
X173518717Y-76853048D01*
X173518719Y-76853047D01*
X173523618Y-76846007D01*
X173529154Y-76838053D01*
X173535050Y-76830258D01*
X173593910Y-76758538D01*
X173621641Y-76706656D01*
X173629203Y-76694308D01*
X173634601Y-76686553D01*
X173641534Y-76670396D01*
X173646110Y-76660878D01*
X173686814Y-76584727D01*
X173705362Y-76523580D01*
X173710060Y-76510713D01*
X173714600Y-76500135D01*
X173717924Y-76483957D01*
X173720705Y-76473002D01*
X173744024Y-76396132D01*
X173750798Y-76327345D01*
X173752737Y-76314556D01*
X173755435Y-76301429D01*
X173756041Y-76277434D01*
X173756593Y-76268510D01*
X173763341Y-76200000D01*
X173760189Y-76168000D01*
X174292659Y-76168000D01*
X174311975Y-76364129D01*
X174369188Y-76552733D01*
X174462086Y-76726532D01*
X174462090Y-76726539D01*
X174587116Y-76878883D01*
X174739460Y-77003909D01*
X174739467Y-77003913D01*
X174903178Y-77091418D01*
X174913273Y-77096814D01*
X174942157Y-77105575D01*
X174949195Y-77107946D01*
X174949791Y-77108166D01*
X174949799Y-77108170D01*
X174953570Y-77109146D01*
X174958422Y-77110509D01*
X175101868Y-77154024D01*
X175132662Y-77157056D01*
X175139911Y-77158344D01*
X175139955Y-77158063D01*
X175146178Y-77159016D01*
X175146182Y-77159017D01*
X175156423Y-77159536D01*
X175162229Y-77159968D01*
X175298000Y-77173341D01*
X175333203Y-77169873D01*
X175342500Y-77169653D01*
X175342498Y-77169610D01*
X175348768Y-77169291D01*
X175348780Y-77169292D01*
X175362926Y-77167124D01*
X175369482Y-77166300D01*
X175494132Y-77154024D01*
X175532291Y-77142448D01*
X175548827Y-77138694D01*
X175549296Y-77138573D01*
X175549299Y-77138573D01*
X175564956Y-77132774D01*
X175572006Y-77130400D01*
X175682727Y-77096814D01*
X175721920Y-77075864D01*
X175737301Y-77068945D01*
X175739530Y-77068120D01*
X175754842Y-77058575D01*
X175761918Y-77054485D01*
X175856533Y-77003913D01*
X175856534Y-77003912D01*
X175856533Y-77003912D01*
X175856538Y-77003910D01*
X175894513Y-76972744D01*
X175907559Y-76963385D01*
X175911684Y-76960815D01*
X175925071Y-76948088D01*
X175931805Y-76942139D01*
X176008883Y-76878883D01*
X176043082Y-76837211D01*
X176053480Y-76826027D01*
X176058715Y-76821052D01*
X176058717Y-76821048D01*
X176058719Y-76821047D01*
X176063618Y-76814007D01*
X176069154Y-76806053D01*
X176075050Y-76798258D01*
X176133910Y-76726538D01*
X176161641Y-76674656D01*
X176169203Y-76662308D01*
X176174601Y-76654553D01*
X176181534Y-76638396D01*
X176186110Y-76628878D01*
X176226814Y-76552727D01*
X176245362Y-76491580D01*
X176250060Y-76478713D01*
X176254600Y-76468135D01*
X176257924Y-76451957D01*
X176260705Y-76441002D01*
X176284024Y-76364132D01*
X176290798Y-76295345D01*
X176292737Y-76282556D01*
X176295435Y-76269429D01*
X176296041Y-76245434D01*
X176296593Y-76236510D01*
X176303341Y-76168000D01*
X176296593Y-76099493D01*
X176296041Y-76090561D01*
X176295435Y-76066571D01*
X176292735Y-76053435D01*
X176290799Y-76040657D01*
X176284024Y-75971868D01*
X176260714Y-75895027D01*
X176257920Y-75884022D01*
X176254600Y-75867865D01*
X176250062Y-75857290D01*
X176245354Y-75844391D01*
X176226814Y-75783273D01*
X176186114Y-75707130D01*
X176181528Y-75697589D01*
X176174602Y-75681450D01*
X176174601Y-75681447D01*
X176169213Y-75673706D01*
X176161636Y-75661334D01*
X176133910Y-75609462D01*
X176133908Y-75609460D01*
X176133908Y-75609459D01*
X176094902Y-75561931D01*
X176075063Y-75537757D01*
X176069143Y-75529931D01*
X176058716Y-75514949D01*
X176053486Y-75509977D01*
X176043068Y-75498771D01*
X176008883Y-75457116D01*
X175931830Y-75393880D01*
X175925067Y-75387905D01*
X175911686Y-75375187D01*
X175911684Y-75375185D01*
X175907560Y-75372614D01*
X175894493Y-75363239D01*
X175856540Y-75332091D01*
X175856532Y-75332086D01*
X175761957Y-75281535D01*
X175754821Y-75277410D01*
X175739537Y-75267884D01*
X175739532Y-75267881D01*
X175739530Y-75267880D01*
X175739528Y-75267879D01*
X175739522Y-75267876D01*
X175737293Y-75267051D01*
X175721912Y-75260130D01*
X175682728Y-75239186D01*
X175572036Y-75205607D01*
X175564973Y-75203231D01*
X175549300Y-75197427D01*
X175548854Y-75197312D01*
X175532276Y-75193547D01*
X175494130Y-75181975D01*
X175369508Y-75169701D01*
X175362893Y-75168869D01*
X175348786Y-75166708D01*
X175342504Y-75166390D01*
X175342506Y-75166347D01*
X175333205Y-75166125D01*
X175298003Y-75162659D01*
X175297999Y-75162659D01*
X175162257Y-75176027D01*
X175156392Y-75176464D01*
X175146187Y-75176982D01*
X175139974Y-75177934D01*
X175139931Y-75177654D01*
X175132679Y-75178941D01*
X175101869Y-75181975D01*
X174958446Y-75225482D01*
X174953545Y-75226859D01*
X174949795Y-75227830D01*
X174949175Y-75228060D01*
X174942123Y-75230433D01*
X174913270Y-75239186D01*
X174739467Y-75332086D01*
X174739460Y-75332090D01*
X174587116Y-75457116D01*
X174462090Y-75609460D01*
X174462086Y-75609467D01*
X174369188Y-75783266D01*
X174311975Y-75971870D01*
X174292659Y-76168000D01*
X173760189Y-76168000D01*
X173756593Y-76131493D01*
X173756041Y-76122561D01*
X173755435Y-76098571D01*
X173752735Y-76085435D01*
X173750799Y-76072657D01*
X173744024Y-76003868D01*
X173720714Y-75927027D01*
X173717920Y-75916022D01*
X173714600Y-75899865D01*
X173710062Y-75889290D01*
X173705354Y-75876391D01*
X173686814Y-75815273D01*
X173646114Y-75739130D01*
X173641528Y-75729589D01*
X173634602Y-75713450D01*
X173634601Y-75713447D01*
X173629213Y-75705706D01*
X173621636Y-75693334D01*
X173593910Y-75641462D01*
X173593908Y-75641460D01*
X173593908Y-75641459D01*
X173535069Y-75569765D01*
X173529143Y-75561931D01*
X173518716Y-75546949D01*
X173513486Y-75541977D01*
X173503068Y-75530771D01*
X173468883Y-75489116D01*
X173391830Y-75425880D01*
X173385067Y-75419905D01*
X173371686Y-75407187D01*
X173371684Y-75407185D01*
X173367560Y-75404614D01*
X173354493Y-75395239D01*
X173316540Y-75364091D01*
X173316532Y-75364086D01*
X173221957Y-75313535D01*
X173214821Y-75309410D01*
X173199537Y-75299884D01*
X173199532Y-75299881D01*
X173199530Y-75299880D01*
X173199528Y-75299879D01*
X173199522Y-75299876D01*
X173197293Y-75299051D01*
X173181912Y-75292130D01*
X173142728Y-75271186D01*
X173032036Y-75237607D01*
X173024973Y-75235231D01*
X173009300Y-75229427D01*
X173008854Y-75229312D01*
X172992276Y-75225547D01*
X172954130Y-75213975D01*
X172829508Y-75201701D01*
X172822893Y-75200869D01*
X172808786Y-75198708D01*
X172802504Y-75198390D01*
X172802506Y-75198347D01*
X172793205Y-75198125D01*
X172758003Y-75194659D01*
X172757999Y-75194659D01*
X172622257Y-75208027D01*
X172616392Y-75208464D01*
X172606187Y-75208982D01*
X172599974Y-75209934D01*
X172599931Y-75209654D01*
X172592679Y-75210941D01*
X172561869Y-75213975D01*
X172418446Y-75257482D01*
X172413545Y-75258859D01*
X172409795Y-75259830D01*
X172409175Y-75260060D01*
X172402123Y-75262433D01*
X172373270Y-75271186D01*
X172199467Y-75364086D01*
X172199460Y-75364090D01*
X172047116Y-75489116D01*
X171922090Y-75641460D01*
X171922086Y-75641467D01*
X171829188Y-75815266D01*
X171771975Y-76003870D01*
X171752659Y-76200000D01*
X148370500Y-76200000D01*
X148370500Y-75330249D01*
X148370499Y-75330247D01*
X148358868Y-75271770D01*
X148358867Y-75271769D01*
X148314552Y-75205447D01*
X148248230Y-75161132D01*
X148248229Y-75161131D01*
X148189752Y-75149500D01*
X148189748Y-75149500D01*
X146450252Y-75149500D01*
X146450247Y-75149500D01*
X146391770Y-75161131D01*
X146391769Y-75161132D01*
X146325447Y-75205447D01*
X146281132Y-75271769D01*
X146281131Y-75271770D01*
X146269500Y-75330247D01*
X146269500Y-77069752D01*
X145275224Y-77069752D01*
X145338533Y-77035913D01*
X145338534Y-77035912D01*
X145338533Y-77035912D01*
X145338538Y-77035910D01*
X145376513Y-77004744D01*
X145389559Y-76995385D01*
X145393684Y-76992815D01*
X145407071Y-76980088D01*
X145413805Y-76974139D01*
X145490883Y-76910883D01*
X145525082Y-76869211D01*
X145535480Y-76858027D01*
X145540715Y-76853052D01*
X145540717Y-76853048D01*
X145540719Y-76853047D01*
X145545618Y-76846007D01*
X145551154Y-76838053D01*
X145557050Y-76830258D01*
X145615910Y-76758538D01*
X145643641Y-76706656D01*
X145651203Y-76694308D01*
X145656601Y-76686553D01*
X145663534Y-76670396D01*
X145668110Y-76660878D01*
X145708814Y-76584727D01*
X145727362Y-76523580D01*
X145732060Y-76510713D01*
X145736600Y-76500135D01*
X145739924Y-76483957D01*
X145742705Y-76473002D01*
X145766024Y-76396132D01*
X145772798Y-76327345D01*
X145774737Y-76314556D01*
X145777435Y-76301429D01*
X145778041Y-76277434D01*
X145778593Y-76268510D01*
X145785341Y-76200000D01*
X145778593Y-76131493D01*
X145778041Y-76122561D01*
X145777435Y-76098571D01*
X145774735Y-76085435D01*
X145772799Y-76072657D01*
X145766024Y-76003868D01*
X145742714Y-75927027D01*
X145739920Y-75916022D01*
X145736600Y-75899865D01*
X145732062Y-75889290D01*
X145727354Y-75876391D01*
X145708814Y-75815273D01*
X145668114Y-75739130D01*
X145663528Y-75729589D01*
X145656602Y-75713450D01*
X145656601Y-75713447D01*
X145651213Y-75705706D01*
X145643636Y-75693334D01*
X145615910Y-75641462D01*
X145615908Y-75641460D01*
X145615908Y-75641459D01*
X145557069Y-75569765D01*
X145551143Y-75561931D01*
X145540716Y-75546949D01*
X145535486Y-75541977D01*
X145525068Y-75530771D01*
X145490883Y-75489116D01*
X145413830Y-75425880D01*
X145407067Y-75419905D01*
X145393686Y-75407187D01*
X145393684Y-75407185D01*
X145389560Y-75404614D01*
X145376493Y-75395239D01*
X145338540Y-75364091D01*
X145338532Y-75364086D01*
X145243957Y-75313535D01*
X145236821Y-75309410D01*
X145221537Y-75299884D01*
X145221532Y-75299881D01*
X145221530Y-75299880D01*
X145221528Y-75299879D01*
X145221522Y-75299876D01*
X145219293Y-75299051D01*
X145203912Y-75292130D01*
X145164728Y-75271186D01*
X145054036Y-75237607D01*
X145046973Y-75235231D01*
X145031300Y-75229427D01*
X145030854Y-75229312D01*
X145014276Y-75225547D01*
X144976130Y-75213975D01*
X144851508Y-75201701D01*
X144844893Y-75200869D01*
X144830786Y-75198708D01*
X144824504Y-75198390D01*
X144824506Y-75198347D01*
X144815205Y-75198125D01*
X144780003Y-75194659D01*
X144779999Y-75194659D01*
X144644257Y-75208027D01*
X144638392Y-75208464D01*
X144628187Y-75208982D01*
X144621974Y-75209934D01*
X144621931Y-75209654D01*
X144614679Y-75210941D01*
X144583869Y-75213975D01*
X144440446Y-75257482D01*
X144435545Y-75258859D01*
X144431795Y-75259830D01*
X144431175Y-75260060D01*
X144424123Y-75262433D01*
X144395270Y-75271186D01*
X144221467Y-75364086D01*
X144221460Y-75364090D01*
X144069116Y-75489116D01*
X143944090Y-75641460D01*
X143944086Y-75641467D01*
X143851188Y-75815266D01*
X143793975Y-76003870D01*
X143774659Y-76200000D01*
X141005468Y-76200000D01*
X140998539Y-76120810D01*
X140998099Y-76112746D01*
X140997527Y-76086481D01*
X140994513Y-76069392D01*
X140993105Y-76058695D01*
X140985635Y-75973308D01*
X140963446Y-75890500D01*
X140961112Y-75879965D01*
X140958102Y-75862893D01*
X140952173Y-75846603D01*
X140948920Y-75836286D01*
X140926742Y-75753513D01*
X140926739Y-75753506D01*
X140926739Y-75753504D01*
X140890510Y-75675813D01*
X140886379Y-75665837D01*
X140880450Y-75649547D01*
X140871774Y-75634521D01*
X140866801Y-75624968D01*
X140830568Y-75547266D01*
X140781405Y-75477053D01*
X140775607Y-75467953D01*
X140766932Y-75452926D01*
X140755773Y-75439627D01*
X140749215Y-75431081D01*
X140700047Y-75360861D01*
X140639435Y-75300249D01*
X140632138Y-75292285D01*
X140620999Y-75279009D01*
X140620993Y-75279003D01*
X140610321Y-75270048D01*
X140607712Y-75267860D01*
X140599748Y-75260562D01*
X140539139Y-75199953D01*
X140536845Y-75198347D01*
X140513465Y-75181976D01*
X140468934Y-75150795D01*
X140460370Y-75144224D01*
X140447074Y-75133068D01*
X140447073Y-75133067D01*
X140447069Y-75133064D01*
X140432050Y-75124393D01*
X140422929Y-75118582D01*
X140352736Y-75069433D01*
X140352727Y-75069429D01*
X140338909Y-75062985D01*
X140275059Y-75033211D01*
X140265468Y-75028218D01*
X140250453Y-75019550D01*
X140250454Y-75019550D01*
X140234160Y-75013619D01*
X140224172Y-75009481D01*
X140146499Y-74973262D01*
X140146496Y-74973261D01*
X140137462Y-74970840D01*
X140063706Y-74951076D01*
X140053397Y-74947826D01*
X140037113Y-74941900D01*
X140037112Y-74941899D01*
X140037107Y-74941898D01*
X140020026Y-74938886D01*
X140009482Y-74936548D01*
X139926697Y-74914366D01*
X139926688Y-74914364D01*
X139841315Y-74906894D01*
X139830599Y-74905483D01*
X139813529Y-74902473D01*
X139813519Y-74902473D01*
X139796178Y-74902473D01*
X139785371Y-74902001D01*
X139743224Y-74898313D01*
X139700001Y-74894532D01*
X139699999Y-74894532D01*
X139656775Y-74898313D01*
X139614628Y-74902001D01*
X139603822Y-74902473D01*
X139586484Y-74902473D01*
X139586481Y-74902473D01*
X139586479Y-74902473D01*
X139586468Y-74902474D01*
X139569400Y-74905483D01*
X139558685Y-74906894D01*
X139473306Y-74914365D01*
X139390519Y-74936547D01*
X139379965Y-74938887D01*
X139362891Y-74941898D01*
X139362890Y-74941898D01*
X139346608Y-74947824D01*
X139336300Y-74951074D01*
X139253506Y-74973260D01*
X139253504Y-74973261D01*
X139175816Y-75009485D01*
X139165837Y-75013619D01*
X139149546Y-75019550D01*
X139149543Y-75019551D01*
X139134532Y-75028217D01*
X139124946Y-75033207D01*
X139047270Y-75069429D01*
X138977062Y-75118588D01*
X138967942Y-75124398D01*
X138952931Y-75133064D01*
X138952922Y-75133070D01*
X138939636Y-75144218D01*
X138931061Y-75150797D01*
X138860869Y-75199946D01*
X138860857Y-75199956D01*
X138800249Y-75260562D01*
X138792281Y-75267864D01*
X138779005Y-75279005D01*
X138767864Y-75292281D01*
X138760562Y-75300249D01*
X138699956Y-75360857D01*
X138699946Y-75360869D01*
X138650797Y-75431061D01*
X138644218Y-75439636D01*
X138633070Y-75452922D01*
X138633064Y-75452931D01*
X138624398Y-75467942D01*
X138618588Y-75477062D01*
X138569429Y-75547270D01*
X138533207Y-75624946D01*
X138528217Y-75634532D01*
X138519551Y-75649543D01*
X138519550Y-75649546D01*
X138513619Y-75665837D01*
X138509485Y-75675816D01*
X138473261Y-75753504D01*
X138473260Y-75753506D01*
X138451074Y-75836300D01*
X138447824Y-75846608D01*
X138441898Y-75862890D01*
X138441898Y-75862891D01*
X138438887Y-75879965D01*
X138436547Y-75890519D01*
X138414365Y-75973306D01*
X138406894Y-76058685D01*
X138405483Y-76069400D01*
X138402474Y-76086468D01*
X138402473Y-76086483D01*
X138402473Y-76103821D01*
X138402001Y-76114628D01*
X138394532Y-76199998D01*
X138394532Y-76200000D01*
X137000500Y-76200000D01*
X137000500Y-75004065D01*
X137000765Y-74995956D01*
X137001885Y-74978869D01*
X137005979Y-74916401D01*
X137006004Y-74916046D01*
X137018709Y-74738407D01*
X137020771Y-74723099D01*
X137042955Y-74611573D01*
X137043364Y-74609606D01*
X137073788Y-74469749D01*
X137077519Y-74456305D01*
X137116243Y-74342230D01*
X137117404Y-74338967D01*
X137165068Y-74211177D01*
X137170017Y-74199713D01*
X137224481Y-74089272D01*
X137226777Y-74084851D01*
X137290855Y-73967501D01*
X137296562Y-73958075D01*
X137365639Y-73854694D01*
X137369425Y-73849344D01*
X137448850Y-73743246D01*
X137454823Y-73735878D01*
X137537161Y-73641989D01*
X137542648Y-73636131D01*
X137636131Y-73542648D01*
X137641989Y-73537161D01*
X137735878Y-73454823D01*
X137743246Y-73448850D01*
X137849344Y-73369425D01*
X137854694Y-73365639D01*
X137958075Y-73296562D01*
X137967501Y-73290855D01*
X138084851Y-73226777D01*
X138089272Y-73224481D01*
X138199713Y-73170017D01*
X138211177Y-73165068D01*
X138338967Y-73117404D01*
X138342230Y-73116243D01*
X138456305Y-73077519D01*
X138469749Y-73073788D01*
X138609606Y-73043364D01*
X138611573Y-73042955D01*
X138723099Y-73020771D01*
X138738407Y-73018709D01*
X138916193Y-73005992D01*
X138995957Y-73000764D01*
X139004065Y-73000500D01*
X178395935Y-73000500D01*
X178404042Y-73000764D01*
G37*
%TD.AperFunction*%
%TD*%
M02*
