%TF.GenerationSoftware,KiCad,Pcbnew,7.0.10*%
%TF.CreationDate,2024-03-07T14:05:51+00:00*%
%TF.ProjectId,tp4056,74703430-3536-42e6-9b69-6361645f7063,rev?*%
%TF.SameCoordinates,Original*%
%TF.FileFunction,Copper,L1,Top*%
%TF.FilePolarity,Positive*%
%FSLAX46Y46*%
G04 Gerber Fmt 4.6, Leading zero omitted, Abs format (unit mm)*
G04 Created by KiCad (PCBNEW 7.0.10) date 2024-03-07 14:05:51*
%MOMM*%
%LPD*%
G01*
G04 APERTURE LIST*
G04 Aperture macros list*
%AMRoundRect*
0 Rectangle with rounded corners*
0 $1 Rounding radius*
0 $2 $3 $4 $5 $6 $7 $8 $9 X,Y pos of 4 corners*
0 Add a 4 corners polygon primitive as box body*
4,1,4,$2,$3,$4,$5,$6,$7,$8,$9,$2,$3,0*
0 Add four circle primitives for the rounded corners*
1,1,$1+$1,$2,$3*
1,1,$1+$1,$4,$5*
1,1,$1+$1,$6,$7*
1,1,$1+$1,$8,$9*
0 Add four rect primitives between the rounded corners*
20,1,$1+$1,$2,$3,$4,$5,0*
20,1,$1+$1,$4,$5,$6,$7,0*
20,1,$1+$1,$6,$7,$8,$9,0*
20,1,$1+$1,$8,$9,$2,$3,0*%
G04 Aperture macros list end*
%TA.AperFunction,SMDPad,CuDef*%
%ADD10RoundRect,0.237500X0.237500X-0.250000X0.237500X0.250000X-0.237500X0.250000X-0.237500X-0.250000X0*%
%TD*%
%TA.AperFunction,ComponentPad*%
%ADD11R,1.700000X1.700000*%
%TD*%
%TA.AperFunction,SMDPad,CuDef*%
%ADD12RoundRect,0.250000X-0.350000X-0.450000X0.350000X-0.450000X0.350000X0.450000X-0.350000X0.450000X0*%
%TD*%
%TA.AperFunction,SMDPad,CuDef*%
%ADD13RoundRect,0.150000X0.150000X-0.825000X0.150000X0.825000X-0.150000X0.825000X-0.150000X-0.825000X0*%
%TD*%
%TA.AperFunction,SMDPad,CuDef*%
%ADD14R,3.000000X2.290000*%
%TD*%
%TA.AperFunction,SMDPad,CuDef*%
%ADD15RoundRect,0.237500X-0.250000X-0.237500X0.250000X-0.237500X0.250000X0.237500X-0.250000X0.237500X0*%
%TD*%
%TA.AperFunction,SMDPad,CuDef*%
%ADD16RoundRect,0.250000X-0.337500X-0.475000X0.337500X-0.475000X0.337500X0.475000X-0.337500X0.475000X0*%
%TD*%
%TA.AperFunction,SMDPad,CuDef*%
%ADD17RoundRect,0.237500X-0.237500X0.250000X-0.237500X-0.250000X0.237500X-0.250000X0.237500X0.250000X0*%
%TD*%
%TA.AperFunction,SMDPad,CuDef*%
%ADD18RoundRect,0.250000X0.325000X0.450000X-0.325000X0.450000X-0.325000X-0.450000X0.325000X-0.450000X0*%
%TD*%
%TA.AperFunction,SMDPad,CuDef*%
%ADD19RoundRect,0.250000X0.475000X-0.337500X0.475000X0.337500X-0.475000X0.337500X-0.475000X-0.337500X0*%
%TD*%
%TA.AperFunction,SMDPad,CuDef*%
%ADD20R,1.450000X0.600000*%
%TD*%
%TA.AperFunction,SMDPad,CuDef*%
%ADD21R,1.450000X0.300000*%
%TD*%
%TA.AperFunction,ComponentPad*%
%ADD22O,2.100000X1.000000*%
%TD*%
%TA.AperFunction,ComponentPad*%
%ADD23O,1.600000X1.000000*%
%TD*%
%TA.AperFunction,SMDPad,CuDef*%
%ADD24R,1.560000X0.650000*%
%TD*%
%TA.AperFunction,SMDPad,CuDef*%
%ADD25RoundRect,0.250000X-0.475000X0.337500X-0.475000X-0.337500X0.475000X-0.337500X0.475000X0.337500X0*%
%TD*%
%TA.AperFunction,SMDPad,CuDef*%
%ADD26RoundRect,0.250000X0.450000X-0.350000X0.450000X0.350000X-0.450000X0.350000X-0.450000X-0.350000X0*%
%TD*%
%TA.AperFunction,SMDPad,CuDef*%
%ADD27R,1.000000X1.500000*%
%TD*%
%TA.AperFunction,SMDPad,CuDef*%
%ADD28R,1.500000X2.000000*%
%TD*%
%TA.AperFunction,SMDPad,CuDef*%
%ADD29R,0.650000X1.560000*%
%TD*%
%TA.AperFunction,ViaPad*%
%ADD30C,0.800000*%
%TD*%
%TA.AperFunction,ViaPad*%
%ADD31C,0.600000*%
%TD*%
%TA.AperFunction,ViaPad*%
%ADD32C,2.000000*%
%TD*%
%TA.AperFunction,Conductor*%
%ADD33C,1.000000*%
%TD*%
%TA.AperFunction,Conductor*%
%ADD34C,0.800000*%
%TD*%
%TA.AperFunction,Conductor*%
%ADD35C,0.500000*%
%TD*%
%TA.AperFunction,Conductor*%
%ADD36C,0.400000*%
%TD*%
%TA.AperFunction,Conductor*%
%ADD37C,0.250000*%
%TD*%
G04 APERTURE END LIST*
D10*
%TO.P,R4,1*%
%TO.N,GND*%
X168020000Y-85082500D03*
%TO.P,R4,2*%
%TO.N,Net-(U2-CS)*%
X168020000Y-83257500D03*
%TD*%
D11*
%TO.P,J3,1,Pin_1*%
%TO.N,VIN*%
X147320000Y-76200000D03*
%TD*%
D12*
%TO.P,R5,1*%
%TO.N,BAT+*%
X160500000Y-77000000D03*
%TO.P,R5,2*%
%TO.N,Net-(U2-VCC)*%
X162500000Y-77000000D03*
%TD*%
D13*
%TO.P,U1,1,TEMP*%
%TO.N,TEMP*%
X154145000Y-85905000D03*
%TO.P,U1,2,PROG*%
%TO.N,Net-(U1-PROG)*%
X155415000Y-85905000D03*
%TO.P,U1,3,GND*%
%TO.N,GND*%
X156685000Y-85905000D03*
%TO.P,U1,4,VCC*%
%TO.N,VIN*%
X157955000Y-85905000D03*
%TO.P,U1,5,BAT*%
%TO.N,BAT+*%
X157955000Y-80955000D03*
%TO.P,U1,6,~{STDBY}*%
%TO.N,Net-(U1-~{STDBY})*%
X156685000Y-80955000D03*
%TO.P,U1,7,~{CHRG}*%
%TO.N,Net-(U1-~{CHRG})*%
X155415000Y-80955000D03*
%TO.P,U1,8,CE*%
%TO.N,VIN*%
X154145000Y-80955000D03*
D14*
%TO.P,U1,9,PP*%
%TO.N,GND*%
X156050000Y-83430000D03*
%TD*%
D15*
%TO.P,R2,1*%
%TO.N,Net-(D2-K)*%
X155837500Y-75750000D03*
%TO.P,R2,2*%
%TO.N,Net-(U1-~{STDBY})*%
X157662500Y-75750000D03*
%TD*%
D11*
%TO.P,J7,1,Pin_1*%
%TO.N,GND*%
X177800000Y-78740000D03*
%TD*%
D16*
%TO.P,C2,1*%
%TO.N,BAT+*%
X160462500Y-79000000D03*
%TO.P,C2,2*%
%TO.N,GND*%
X162537500Y-79000000D03*
%TD*%
D17*
%TO.P,R7,1*%
%TO.N,Net-(J8-CC1)*%
X148820000Y-85155000D03*
%TO.P,R7,2*%
%TO.N,GND*%
X148820000Y-86980000D03*
%TD*%
D18*
%TO.P,D2,1,K*%
%TO.N,Net-(D2-K)*%
X152122500Y-76290000D03*
%TO.P,D2,2,A*%
%TO.N,VIN*%
X150072500Y-76290000D03*
%TD*%
D17*
%TO.P,R6,1*%
%TO.N,Net-(J8-CC2)*%
X147290000Y-87097500D03*
%TO.P,R6,2*%
%TO.N,GND*%
X147290000Y-88922500D03*
%TD*%
D19*
%TO.P,C1,1*%
%TO.N,VIN*%
X160000000Y-83237500D03*
%TO.P,C1,2*%
%TO.N,GND*%
X160000000Y-81162500D03*
%TD*%
D15*
%TO.P,R1,1*%
%TO.N,Net-(D1-K)*%
X154087500Y-78000000D03*
%TO.P,R1,2*%
%TO.N,Net-(U1-~{CHRG})*%
X155912500Y-78000000D03*
%TD*%
D20*
%TO.P,J8,A1,GND*%
%TO.N,GND*%
X145195000Y-80670000D03*
%TO.P,J8,A4,VBUS*%
%TO.N,VIN*%
X145195000Y-81470000D03*
D21*
%TO.P,J8,A5,CC1*%
%TO.N,Net-(J8-CC1)*%
X145195000Y-82670000D03*
%TO.P,J8,A6,D+*%
%TO.N,Net-(J8-D+-PadA6)*%
X145195000Y-83670000D03*
%TO.P,J8,A7,D-*%
%TO.N,Net-(J8-D--PadA7)*%
X145195000Y-84170000D03*
%TO.P,J8,A8,SBU1*%
%TO.N,unconnected-(J8-SBU1-PadA8)*%
X145195000Y-85170000D03*
D20*
%TO.P,J8,A9,VBUS*%
%TO.N,VIN*%
X145195000Y-86370000D03*
%TO.P,J8,A12,GND*%
%TO.N,GND*%
X145195000Y-87170000D03*
%TO.P,J8,B1,GND*%
X145195000Y-87170000D03*
%TO.P,J8,B4,VBUS*%
%TO.N,VIN*%
X145195000Y-86370000D03*
D21*
%TO.P,J8,B5,CC2*%
%TO.N,Net-(J8-CC2)*%
X145195000Y-85670000D03*
%TO.P,J8,B6,D+*%
%TO.N,Net-(J8-D+-PadA6)*%
X145195000Y-84670000D03*
%TO.P,J8,B7,D-*%
%TO.N,Net-(J8-D--PadA7)*%
X145195000Y-83170000D03*
%TO.P,J8,B8,SBU2*%
%TO.N,unconnected-(J8-SBU2-PadB8)*%
X145195000Y-82170000D03*
D20*
%TO.P,J8,B9,VBUS*%
%TO.N,VIN*%
X145195000Y-81470000D03*
%TO.P,J8,B12,GND*%
%TO.N,GND*%
X145195000Y-80670000D03*
D22*
%TO.P,J8,S1,SHIELD*%
X144280000Y-79600000D03*
D23*
X140100000Y-79600000D03*
D22*
X144280000Y-88240000D03*
D23*
X140100000Y-88240000D03*
%TD*%
D24*
%TO.P,U3,1,S1*%
%TO.N,BAT-*%
X163290000Y-83320000D03*
%TO.P,U3,2,D1D2*%
%TO.N,unconnected-(U3-D1D2-Pad2)*%
X163290000Y-84270000D03*
%TO.P,U3,3,S2*%
%TO.N,GND*%
X163290000Y-85220000D03*
%TO.P,U3,4,G2*%
%TO.N,/G2*%
X165990000Y-85220000D03*
%TO.P,U3,5,D1D2*%
%TO.N,unconnected-(U3-D1D2-Pad5)*%
X165990000Y-84270000D03*
%TO.P,U3,6,G1*%
%TO.N,/G1*%
X165990000Y-83320000D03*
%TD*%
D10*
%TO.P,R10,1*%
%TO.N,Net-(J8-D+-PadA6)*%
X147280000Y-85552500D03*
%TO.P,R10,2*%
%TO.N,Net-(J8-D--PadA7)*%
X147280000Y-83727500D03*
%TD*%
D25*
%TO.P,C3,1*%
%TO.N,Net-(U2-VCC)*%
X164750000Y-76962500D03*
%TO.P,C3,2*%
%TO.N,BAT-*%
X164750000Y-79037500D03*
%TD*%
D11*
%TO.P,J4,1,Pin_1*%
%TO.N,BAT-*%
X175260000Y-78740000D03*
%TD*%
%TO.P,J2,1,Pin_1*%
%TO.N,GND*%
X147320000Y-91440000D03*
%TD*%
D26*
%TO.P,R8,1*%
%TO.N,TEMP*%
X151470000Y-85620000D03*
%TO.P,R8,2*%
%TO.N,GND*%
X151470000Y-83620000D03*
%TD*%
%TO.P,R9,1*%
%TO.N,VIN*%
X151480000Y-89360000D03*
%TO.P,R9,2*%
%TO.N,TEMP*%
X151480000Y-87360000D03*
%TD*%
D27*
%TO.P,J6,1,Pin_1*%
%TO.N,BAT+*%
X172700000Y-87450000D03*
%TO.P,J6,2,Pin_2*%
%TO.N,TEMP*%
X175700000Y-87450000D03*
%TO.P,J6,3,Pin_3*%
%TO.N,BAT-*%
X178700000Y-87450000D03*
D28*
%TO.P,J6,MP,MountPin*%
%TO.N,GND*%
X174200000Y-91810000D03*
X177200000Y-91810000D03*
%TD*%
D18*
%TO.P,D1,1,K*%
%TO.N,Net-(D1-K)*%
X152122500Y-78722000D03*
%TO.P,D1,2,A*%
%TO.N,VIN*%
X150072500Y-78722000D03*
%TD*%
D12*
%TO.P,R3,1*%
%TO.N,Net-(U1-PROG)*%
X158000000Y-88800000D03*
%TO.P,R3,2*%
%TO.N,GND*%
X160000000Y-88800000D03*
%TD*%
D11*
%TO.P,J5,1,Pin_1*%
%TO.N,BAT+*%
X172705000Y-78765000D03*
%TD*%
D29*
%TO.P,U2,1,OD*%
%TO.N,/G1*%
X166780000Y-81210000D03*
%TO.P,U2,2,CS*%
%TO.N,Net-(U2-CS)*%
X167730000Y-81210000D03*
%TO.P,U2,3,OC*%
%TO.N,/G2*%
X168680000Y-81210000D03*
%TO.P,U2,4,TD*%
%TO.N,unconnected-(U2-TD-Pad4)*%
X168680000Y-78510000D03*
%TO.P,U2,5,VCC*%
%TO.N,Net-(U2-VCC)*%
X167730000Y-78510000D03*
%TO.P,U2,6,GND*%
%TO.N,BAT-*%
X166780000Y-78510000D03*
%TD*%
D30*
%TO.N,GND*%
X178750000Y-91840000D03*
X146570000Y-79980000D03*
X175720000Y-91850000D03*
D31*
X156050000Y-83430000D03*
D30*
X172760000Y-91840000D03*
D32*
X169788629Y-83271371D03*
%TO.N,VIN*%
X150072500Y-81217500D03*
X160000000Y-85500000D03*
%TO.N,BAT-*%
X164230000Y-81170000D03*
%TD*%
D33*
%TO.N,BAT+*%
X172705000Y-78765000D02*
X172960000Y-79020000D01*
D34*
X159910000Y-79000000D02*
X160462500Y-79000000D01*
X160462500Y-79000000D02*
X160462500Y-77037500D01*
X160462500Y-77037500D02*
X160500000Y-77000000D01*
D33*
X169020000Y-75080000D02*
X161720000Y-75080000D01*
X160500000Y-76300000D02*
X160500000Y-77000000D01*
X172700000Y-87450000D02*
X172700000Y-78770000D01*
X172700000Y-78770000D02*
X172705000Y-78765000D01*
D34*
X157955000Y-80955000D02*
X159910000Y-79000000D01*
D33*
X161720000Y-75080000D02*
X160500000Y-76300000D01*
X172705000Y-78765000D02*
X169020000Y-75080000D01*
D34*
%TO.N,Net-(U2-VCC)*%
X167537500Y-76962500D02*
X164750000Y-76962500D01*
X167730000Y-78510000D02*
X167730000Y-77155000D01*
X162500000Y-77000000D02*
X164712500Y-77000000D01*
X167730000Y-77155000D02*
X167537500Y-76962500D01*
X164712500Y-77000000D02*
X164750000Y-76962500D01*
D33*
%TO.N,Net-(D1-K)*%
X153365500Y-78722000D02*
X154087500Y-78000000D01*
X152122500Y-78722000D02*
X153365500Y-78722000D01*
D35*
%TO.N,GND*%
X145195000Y-80670000D02*
X145195000Y-80515000D01*
D36*
X147290000Y-88922500D02*
X148277500Y-88922500D01*
D35*
X175710000Y-91840000D02*
X172760000Y-91840000D01*
X176830000Y-91840000D02*
X176820000Y-91850000D01*
X145195000Y-87170000D02*
X145195000Y-87325000D01*
D34*
X156685000Y-84065000D02*
X156050000Y-83430000D01*
D36*
X148820000Y-86980000D02*
X149695000Y-86105000D01*
D34*
X169788629Y-83313871D02*
X168020000Y-85082500D01*
D35*
X176820000Y-91850000D02*
X175720000Y-91850000D01*
D36*
X148277500Y-88922500D02*
X148820000Y-88380000D01*
D34*
X157285001Y-87480000D02*
X159280000Y-87480000D01*
X160000000Y-88510000D02*
X163290000Y-85220000D01*
D37*
X145660000Y-80670000D02*
X145250000Y-80670000D01*
D34*
X157732500Y-83430000D02*
X160000000Y-81162500D01*
D36*
X149695000Y-84695000D02*
X150770000Y-83620000D01*
D34*
X159280000Y-87480000D02*
X160000000Y-88200000D01*
D35*
X178750000Y-91840000D02*
X176830000Y-91840000D01*
D37*
X145800000Y-80530000D02*
X145660000Y-80670000D01*
D34*
X145800000Y-80530000D02*
X146350000Y-79980000D01*
D36*
X147320000Y-88952500D02*
X147290000Y-88922500D01*
D34*
X156685000Y-86879999D02*
X157285001Y-87480000D01*
D36*
X150770000Y-83620000D02*
X151470000Y-83620000D01*
D34*
X160375000Y-81162500D02*
X160000000Y-81162500D01*
D35*
X175720000Y-91850000D02*
X175710000Y-91840000D01*
D34*
X156685000Y-85905000D02*
X156685000Y-86879999D01*
D36*
X148820000Y-88380000D02*
X148820000Y-86980000D01*
X149695000Y-86105000D02*
X149695000Y-84695000D01*
D34*
X160000000Y-88800000D02*
X160000000Y-88510000D01*
X159910000Y-88110000D02*
X160000000Y-88200000D01*
X145195000Y-87325000D02*
X144280000Y-88240000D01*
X156050000Y-83430000D02*
X157732500Y-83430000D01*
X160000000Y-88200000D02*
X160000000Y-88800000D01*
D36*
X147320000Y-91440000D02*
X147320000Y-88952500D01*
D34*
X162537500Y-79000000D02*
X160375000Y-81162500D01*
X156685000Y-85905000D02*
X156685000Y-84065000D01*
X145195000Y-80515000D02*
X144280000Y-79600000D01*
X169788629Y-83271371D02*
X169788629Y-83313871D01*
X146350000Y-79980000D02*
X146570000Y-79980000D01*
D36*
%TO.N,VIN*%
X152310000Y-84620000D02*
X150743834Y-84620000D01*
X149820000Y-81470000D02*
X145195000Y-81470000D01*
D33*
X150072500Y-78722000D02*
X150072500Y-76290000D01*
D36*
X143465000Y-85428984D02*
X143465000Y-82435000D01*
X145195000Y-86370000D02*
X144406016Y-86370000D01*
X143465000Y-82435000D02*
X144430000Y-81470000D01*
X144406016Y-86370000D02*
X143465000Y-85428984D01*
X150743834Y-84620000D02*
X150370000Y-84993834D01*
D33*
X147410000Y-76290000D02*
X147320000Y-76200000D01*
X150072500Y-81217500D02*
X150072500Y-78722000D01*
D35*
X150335000Y-80955000D02*
X154145000Y-80955000D01*
D34*
X159595000Y-85905000D02*
X160000000Y-85500000D01*
D33*
X150072500Y-76290000D02*
X147410000Y-76290000D01*
D36*
X150370000Y-84993834D02*
X150370000Y-88250000D01*
X152620000Y-84310000D02*
X152310000Y-84620000D01*
X144430000Y-81470000D02*
X145195000Y-81470000D01*
X154145000Y-80955000D02*
X152620000Y-82480000D01*
D34*
X157955000Y-85905000D02*
X159595000Y-85905000D01*
D33*
X160000000Y-85500000D02*
X160000000Y-83237500D01*
D36*
X150370000Y-88250000D02*
X151480000Y-89360000D01*
X152620000Y-82480000D02*
X152620000Y-84310000D01*
D35*
X150072500Y-81217500D02*
X150335000Y-80955000D01*
D33*
%TO.N,Net-(D2-K)*%
X153720000Y-76290000D02*
X154260000Y-75750000D01*
X154260000Y-75750000D02*
X155837500Y-75750000D01*
X152122500Y-76290000D02*
X153720000Y-76290000D01*
D34*
%TO.N,Net-(U1-~{CHRG})*%
X155912500Y-78000000D02*
X155415000Y-78497500D01*
X155415000Y-78497500D02*
X155415000Y-80955000D01*
D35*
%TO.N,Net-(U1-~{STDBY})*%
X157712500Y-75800000D02*
X157800000Y-75800000D01*
D34*
X156685000Y-79980001D02*
X157800000Y-78865001D01*
D35*
X157662500Y-75750000D02*
X157712500Y-75800000D01*
D34*
X158334999Y-78865001D02*
X159135000Y-78065000D01*
X156685000Y-80955000D02*
X156685000Y-79980001D01*
X157800000Y-75800000D02*
X159135000Y-77135000D01*
X159135000Y-78065000D02*
X159135000Y-77135000D01*
X157800000Y-78865001D02*
X158334999Y-78865001D01*
D35*
%TO.N,Net-(U1-PROG)*%
X155415000Y-85905000D02*
X155415000Y-86879999D01*
X155415000Y-86879999D02*
X157335001Y-88800000D01*
X157335001Y-88800000D02*
X158000000Y-88800000D01*
D34*
%TO.N,BAT-*%
X163280000Y-83210000D02*
X163280000Y-82120000D01*
X166202500Y-79037500D02*
X166730000Y-78510000D01*
D33*
X178700000Y-86290000D02*
X175260000Y-82850000D01*
D34*
X164750000Y-79037500D02*
X166202500Y-79037500D01*
X175227500Y-78772500D02*
X175260000Y-78740000D01*
X163280000Y-82120000D02*
X164230000Y-81170000D01*
X164750000Y-80650000D02*
X164230000Y-81170000D01*
X164750000Y-79037500D02*
X164750000Y-80650000D01*
D33*
X178700000Y-87450000D02*
X178700000Y-86290000D01*
X175260000Y-82850000D02*
X175260000Y-78740000D01*
D34*
%TO.N,Net-(U2-CS)*%
X168020000Y-83257500D02*
X167755000Y-82992500D01*
X167755000Y-82992500D02*
X167755000Y-81649214D01*
%TO.N,/G2*%
X169700000Y-86170000D02*
X171388629Y-84481371D01*
X166940000Y-86170000D02*
X169700000Y-86170000D01*
X169990000Y-81210000D02*
X168680000Y-81210000D01*
X171388629Y-84481371D02*
X171388629Y-82608629D01*
X165990000Y-85220000D02*
X166940000Y-86170000D01*
X171388629Y-82608629D02*
X169990000Y-81210000D01*
%TO.N,/G1*%
X165990000Y-83320000D02*
X165990000Y-82000000D01*
X165990000Y-82000000D02*
X166780000Y-81210000D01*
D35*
%TO.N,TEMP*%
X156480000Y-90690000D02*
X171460000Y-90690000D01*
X171460000Y-90690000D02*
X174700000Y-87450000D01*
D36*
X151470000Y-85620000D02*
X153860000Y-85620000D01*
D35*
X151120000Y-87380000D02*
X151130000Y-87390000D01*
D36*
X153860000Y-85620000D02*
X154145000Y-85905000D01*
D35*
X154145000Y-88355000D02*
X156480000Y-90690000D01*
D36*
X151480000Y-87360000D02*
X151480000Y-85630000D01*
D35*
X154145000Y-85905000D02*
X154145000Y-88355000D01*
X174700000Y-87450000D02*
X175700000Y-87450000D01*
D36*
X151480000Y-85630000D02*
X151470000Y-85620000D01*
D37*
%TO.N,Net-(J8-CC2)*%
X147290000Y-86980000D02*
X147290000Y-87097500D01*
X145980000Y-85670000D02*
X147290000Y-86980000D01*
X145195000Y-85670000D02*
X145980000Y-85670000D01*
%TO.N,Net-(J8-CC1)*%
X148820000Y-83260000D02*
X148820000Y-85155000D01*
X148230000Y-82670000D02*
X148820000Y-83260000D01*
X145195000Y-82670000D02*
X148230000Y-82670000D01*
%TO.N,Net-(J8-D+-PadA6)*%
X146360000Y-84670000D02*
X146430000Y-84740000D01*
X147242500Y-85552500D02*
X147280000Y-85552500D01*
X146430000Y-84740000D02*
X147242500Y-85552500D01*
X146245000Y-83695000D02*
X146245000Y-84555000D01*
X145195000Y-83670000D02*
X146220000Y-83670000D01*
X146220000Y-83670000D02*
X146245000Y-83695000D01*
X146130000Y-84670000D02*
X145195000Y-84670000D01*
X146245000Y-84555000D02*
X146130000Y-84670000D01*
X146130000Y-84670000D02*
X146360000Y-84670000D01*
X146245000Y-84555000D02*
X146430000Y-84740000D01*
%TO.N,Net-(J8-D--PadA7)*%
X145195000Y-83170000D02*
X146722500Y-83170000D01*
X145170000Y-83195000D02*
X145195000Y-83170000D01*
X143990000Y-83380000D02*
X144200000Y-83170000D01*
X144200000Y-83170000D02*
X145195000Y-83170000D01*
X146722500Y-83170000D02*
X147280000Y-83727500D01*
X144150000Y-84170000D02*
X143990000Y-84010000D01*
X145195000Y-84170000D02*
X144150000Y-84170000D01*
X143990000Y-84010000D02*
X143990000Y-83380000D01*
%TD*%
M02*
