%TF.GenerationSoftware,KiCad,Pcbnew,7.0.10*%
%TF.CreationDate,2024-03-07T14:05:51+00:00*%
%TF.ProjectId,tp4056,74703430-3536-42e6-9b69-6361645f7063,rev?*%
%TF.SameCoordinates,Original*%
%TF.FileFunction,Legend,Bot*%
%TF.FilePolarity,Positive*%
%FSLAX46Y46*%
G04 Gerber Fmt 4.6, Leading zero omitted, Abs format (unit mm)*
G04 Created by KiCad (PCBNEW 7.0.10) date 2024-03-07 14:05:51*
%MOMM*%
%LPD*%
G01*
G04 APERTURE LIST*
%ADD10C,0.200000*%
%ADD11C,0.360000*%
%ADD12R,1.700000X1.700000*%
%ADD13C,0.650000*%
%ADD14O,2.100000X1.000000*%
%ADD15O,1.600000X1.000000*%
%ADD16C,1.000000*%
%ADD17C,0.800000*%
%ADD18C,0.600000*%
%ADD19C,2.000000*%
G04 APERTURE END LIST*
D10*
G36*
X158950000Y-76445366D02*
G01*
X158950000Y-77508311D01*
X159140509Y-77508311D01*
X159140509Y-77336364D01*
X159653419Y-77336364D01*
X159653419Y-77508311D01*
X159840997Y-77508311D01*
X159840997Y-76445366D01*
X159653419Y-76445366D01*
X159653419Y-77145610D01*
X159140509Y-77145610D01*
X159140509Y-76445366D01*
X158950000Y-76445366D01*
G37*
G36*
X159124877Y-77489504D02*
G01*
X159124877Y-77680258D01*
X159669050Y-77680258D01*
X159669050Y-77489504D01*
X159124877Y-77489504D01*
G37*
G36*
X160346092Y-76445366D02*
G01*
X160346092Y-76636120D01*
X160533670Y-76636120D01*
X160533670Y-76445366D01*
X160346092Y-76445366D01*
G37*
G36*
X160174145Y-76620488D02*
G01*
X160174145Y-76808066D01*
X160361723Y-76808066D01*
X160361723Y-76620488D01*
X160174145Y-76620488D01*
G37*
G36*
X160527808Y-76620488D02*
G01*
X160527808Y-76808066D01*
X160718318Y-76808066D01*
X160718318Y-76620488D01*
X160527808Y-76620488D01*
G37*
G36*
X159999267Y-76789260D02*
G01*
X159999267Y-77336364D01*
X160189776Y-77336364D01*
X160189776Y-76789260D01*
X159999267Y-76789260D01*
G37*
G36*
X160702686Y-76789260D02*
G01*
X160702686Y-77336364D01*
X160890265Y-77336364D01*
X160890265Y-76789260D01*
X160702686Y-76789260D01*
G37*
G36*
X161048534Y-76620488D02*
G01*
X161048534Y-76808066D01*
X161239043Y-76808066D01*
X161239043Y-76620488D01*
X161048534Y-76620488D01*
G37*
G36*
X161223412Y-76445366D02*
G01*
X161223412Y-76636120D01*
X161751953Y-76636120D01*
X161751953Y-76801716D01*
X161223412Y-76801716D01*
X161223412Y-76992470D01*
X161751953Y-76992470D01*
X161751953Y-77161242D01*
X161939532Y-77161242D01*
X161939532Y-76445366D01*
X161223412Y-76445366D01*
G37*
G36*
X161223412Y-77145610D02*
G01*
X161223412Y-77336364D01*
X161767585Y-77336364D01*
X161767585Y-77145610D01*
X161223412Y-77145610D01*
G37*
G36*
X162097801Y-76445366D02*
G01*
X162097801Y-77680258D01*
X162288311Y-77680258D01*
X162288311Y-76636120D01*
X162988799Y-76636120D01*
X162988799Y-76445366D01*
X162097801Y-76445366D01*
G37*
G36*
X163147069Y-76445366D02*
G01*
X163147069Y-77336364D01*
X163337578Y-77336364D01*
X163337578Y-76445366D01*
X163147069Y-76445366D01*
G37*
G36*
X163147069Y-77489504D02*
G01*
X163147069Y-77680258D01*
X163337578Y-77680258D01*
X163337578Y-77489504D01*
X163147069Y-77489504D01*
G37*
G36*
X164025366Y-76445366D02*
G01*
X164025366Y-76636120D01*
X164215875Y-76636120D01*
X164215875Y-76445366D01*
X164025366Y-76445366D01*
G37*
G36*
X163846824Y-76620488D02*
G01*
X163846824Y-76808066D01*
X164031228Y-76808066D01*
X164031228Y-76620488D01*
X163846824Y-76620488D01*
G37*
G36*
X163846824Y-76976838D02*
G01*
X163846824Y-77164417D01*
X164031228Y-77164417D01*
X164031228Y-76976838D01*
X163846824Y-76976838D01*
G37*
G36*
X164025366Y-77145610D02*
G01*
X164025366Y-77336364D01*
X164215875Y-77336364D01*
X164215875Y-77145610D01*
X164025366Y-77145610D01*
G37*
G36*
X163496824Y-76445366D02*
G01*
X163496824Y-77680258D01*
X163687334Y-77680258D01*
X163687334Y-76992470D01*
X163862456Y-76992470D01*
X163862456Y-76801716D01*
X163687334Y-76801716D01*
X163687334Y-76445366D01*
X163496824Y-76445366D01*
G37*
G36*
X164546092Y-76445366D02*
G01*
X164546092Y-76636120D01*
X165262212Y-76636120D01*
X165262212Y-76445366D01*
X164546092Y-76445366D01*
G37*
G36*
X164371214Y-76620488D02*
G01*
X164371214Y-77164417D01*
X164561723Y-77164417D01*
X164561723Y-76992470D01*
X165074633Y-76992470D01*
X165074633Y-77164417D01*
X165262212Y-77164417D01*
X165262212Y-76801716D01*
X164561723Y-76801716D01*
X164561723Y-76620488D01*
X164371214Y-76620488D01*
G37*
G36*
X164546092Y-77145610D02*
G01*
X164546092Y-77336364D01*
X165090265Y-77336364D01*
X165090265Y-77145610D01*
X164546092Y-77145610D01*
G37*
G36*
X165420481Y-76445366D02*
G01*
X165420481Y-76636120D01*
X166139532Y-76636120D01*
X166139532Y-76445366D01*
X165420481Y-76445366D01*
G37*
G36*
X166123900Y-76620488D02*
G01*
X166123900Y-76808066D01*
X166311479Y-76808066D01*
X166311479Y-76620488D01*
X166123900Y-76620488D01*
G37*
G36*
X165595359Y-76801716D02*
G01*
X165595359Y-76992470D01*
X166139532Y-76992470D01*
X166139532Y-76801716D01*
X165595359Y-76801716D01*
G37*
G36*
X165420481Y-76976838D02*
G01*
X165420481Y-77164417D01*
X165610990Y-77164417D01*
X165610990Y-76976838D01*
X165420481Y-76976838D01*
G37*
G36*
X165595359Y-77145610D02*
G01*
X165595359Y-77336364D01*
X166311479Y-77336364D01*
X166311479Y-77145610D01*
X165595359Y-77145610D01*
G37*
G36*
X167170237Y-76620488D02*
G01*
X167170237Y-77164417D01*
X167360746Y-77164417D01*
X167360746Y-76620488D01*
X167170237Y-76620488D01*
G37*
G36*
X167170237Y-77320732D02*
G01*
X167170237Y-77511486D01*
X167360746Y-77511486D01*
X167360746Y-77320732D01*
X167170237Y-77320732D01*
G37*
G36*
X166469748Y-76445366D02*
G01*
X166469748Y-77680258D01*
X167185868Y-77680258D01*
X167185868Y-77489504D01*
X166660258Y-77489504D01*
X166660258Y-77336364D01*
X167185868Y-77336364D01*
X167185868Y-77145610D01*
X166660258Y-77145610D01*
X166660258Y-76636120D01*
X167185868Y-76636120D01*
X167185868Y-76445366D01*
X166469748Y-76445366D01*
G37*
G36*
X168222435Y-76973663D02*
G01*
X168222435Y-77164417D01*
X168410013Y-77164417D01*
X168410013Y-76973663D01*
X168222435Y-76973663D01*
G37*
G36*
X167519016Y-76445366D02*
G01*
X167519016Y-77336364D01*
X167709525Y-77336364D01*
X167709525Y-77164417D01*
X167894173Y-77164417D01*
X167894173Y-76973663D01*
X167709525Y-76973663D01*
X167709525Y-76445366D01*
X167519016Y-76445366D01*
G37*
G36*
X167878541Y-77145610D02*
G01*
X167878541Y-77336364D01*
X168238066Y-77336364D01*
X168238066Y-77145610D01*
X167878541Y-77145610D01*
G37*
G36*
X168743161Y-76445366D02*
G01*
X168743161Y-76636120D01*
X169459281Y-76636120D01*
X169459281Y-76445366D01*
X168743161Y-76445366D01*
G37*
G36*
X168568283Y-76620488D02*
G01*
X168568283Y-77164417D01*
X168758792Y-77164417D01*
X168758792Y-76992470D01*
X169271702Y-76992470D01*
X169271702Y-77164417D01*
X169459281Y-77164417D01*
X169459281Y-76801716D01*
X168758792Y-76801716D01*
X168758792Y-76620488D01*
X168568283Y-76620488D01*
G37*
G36*
X168743161Y-77145610D02*
G01*
X168743161Y-77336364D01*
X169287334Y-77336364D01*
X169287334Y-77145610D01*
X168743161Y-77145610D01*
G37*
G36*
X169617550Y-76620488D02*
G01*
X169617550Y-76808066D01*
X169808060Y-76808066D01*
X169808060Y-76620488D01*
X169617550Y-76620488D01*
G37*
G36*
X169792428Y-76445366D02*
G01*
X169792428Y-76636120D01*
X170320969Y-76636120D01*
X170320969Y-76801716D01*
X169792428Y-76801716D01*
X169792428Y-76992470D01*
X170320969Y-76992470D01*
X170320969Y-77161242D01*
X170508548Y-77161242D01*
X170508548Y-76445366D01*
X169792428Y-76445366D01*
G37*
G36*
X169792428Y-77145610D02*
G01*
X169792428Y-77336364D01*
X170336601Y-77336364D01*
X170336601Y-77145610D01*
X169792428Y-77145610D01*
G37*
G36*
X170666817Y-76620488D02*
G01*
X170666817Y-77164417D01*
X170857327Y-77164417D01*
X170857327Y-76620488D01*
X170666817Y-76620488D01*
G37*
G36*
X170841695Y-77145610D02*
G01*
X170841695Y-77336364D01*
X171198290Y-77336364D01*
X171198290Y-77145610D01*
X170841695Y-77145610D01*
G37*
G36*
X170841695Y-76445366D02*
G01*
X170841695Y-76636120D01*
X171367306Y-76636120D01*
X171367306Y-76973663D01*
X171182658Y-76973663D01*
X171182658Y-77164417D01*
X171367306Y-77164417D01*
X171367306Y-77680258D01*
X171557815Y-77680258D01*
X171557815Y-76445366D01*
X170841695Y-76445366D01*
G37*
G36*
X158950000Y-74945366D02*
G01*
X158950000Y-75136120D01*
X159293893Y-75136120D01*
X159293893Y-75820732D01*
X159121946Y-75820732D01*
X159121946Y-76011486D01*
X159293893Y-76011486D01*
X159293893Y-76180258D01*
X159484403Y-76180258D01*
X159484403Y-75136120D01*
X159840997Y-75136120D01*
X159840997Y-74945366D01*
X158950000Y-74945366D01*
G37*
G36*
X160343161Y-74945366D02*
G01*
X160343161Y-75492470D01*
X160533670Y-75492470D01*
X160533670Y-74945366D01*
X160343161Y-74945366D01*
G37*
G36*
X160527808Y-75476838D02*
G01*
X160527808Y-75664417D01*
X160718318Y-75664417D01*
X160718318Y-75476838D01*
X160527808Y-75476838D01*
G37*
G36*
X160702686Y-75648785D02*
G01*
X160702686Y-75989504D01*
X160189776Y-75989504D01*
X160189776Y-75819267D01*
X159999267Y-75819267D01*
X159999267Y-76180258D01*
X160890265Y-76180258D01*
X160890265Y-75648785D01*
X160702686Y-75648785D01*
G37*
G36*
X161048534Y-75289260D02*
G01*
X161048534Y-75480013D01*
X161939532Y-75480013D01*
X161939532Y-75289260D01*
X161048534Y-75289260D01*
G37*
G36*
X162272679Y-74945366D02*
G01*
X162272679Y-75136120D01*
X162816852Y-75136120D01*
X162816852Y-74945366D01*
X162272679Y-74945366D01*
G37*
G36*
X162447801Y-75476838D02*
G01*
X162447801Y-75664417D01*
X162632205Y-75664417D01*
X162632205Y-75476838D01*
X162447801Y-75476838D01*
G37*
G36*
X162097801Y-75120488D02*
G01*
X162097801Y-76008311D01*
X162288311Y-76008311D01*
X162288311Y-75492470D01*
X162463433Y-75492470D01*
X162463433Y-75301716D01*
X162288311Y-75301716D01*
X162288311Y-75120488D01*
X162097801Y-75120488D01*
G37*
G36*
X162801221Y-75120488D02*
G01*
X162801221Y-75645610D01*
X162616573Y-75645610D01*
X162616573Y-75836364D01*
X162801221Y-75836364D01*
X162801221Y-76008311D01*
X162988799Y-76008311D01*
X162988799Y-75120488D01*
X162801221Y-75120488D01*
G37*
G36*
X162272679Y-75989504D02*
G01*
X162272679Y-76180258D01*
X162816852Y-76180258D01*
X162816852Y-75989504D01*
X162272679Y-75989504D01*
G37*
G36*
X163321946Y-74945366D02*
G01*
X163321946Y-75136120D01*
X163678541Y-75136120D01*
X163678541Y-74945366D01*
X163321946Y-74945366D01*
G37*
G36*
X163675610Y-75120488D02*
G01*
X163675610Y-75308066D01*
X163866120Y-75308066D01*
X163866120Y-75120488D01*
X163675610Y-75120488D01*
G37*
G36*
X163147069Y-75648785D02*
G01*
X163147069Y-76008311D01*
X163337578Y-76008311D01*
X163337578Y-75648785D01*
X163147069Y-75648785D01*
G37*
G36*
X163850488Y-75292435D02*
G01*
X163850488Y-75473663D01*
X163321946Y-75473663D01*
X163321946Y-75664417D01*
X163850488Y-75664417D01*
X163850488Y-76008311D01*
X164038066Y-76008311D01*
X164038066Y-75292435D01*
X163850488Y-75292435D01*
G37*
G36*
X163321946Y-75989504D02*
G01*
X163321946Y-76180258D01*
X163866120Y-76180258D01*
X163866120Y-75989504D01*
X163321946Y-75989504D01*
G37*
G36*
X164196336Y-75289260D02*
G01*
X164196336Y-75480013D01*
X165087334Y-75480013D01*
X165087334Y-75289260D01*
X164196336Y-75289260D01*
G37*
G36*
X165245603Y-74945366D02*
G01*
X165245603Y-75317348D01*
X165436113Y-75317348D01*
X165436113Y-75136120D01*
X166136601Y-75136120D01*
X166136601Y-74945366D01*
X165245603Y-74945366D01*
G37*
G36*
X165420481Y-75301716D02*
G01*
X165420481Y-75492470D01*
X165608060Y-75492470D01*
X165608060Y-75301716D01*
X165420481Y-75301716D01*
G37*
G36*
X165605129Y-75476838D02*
G01*
X165605129Y-75664417D01*
X165964654Y-75664417D01*
X165964654Y-75476838D01*
X165605129Y-75476838D01*
G37*
G36*
X165245603Y-75817557D02*
G01*
X165245603Y-76008311D01*
X165436113Y-76008311D01*
X165436113Y-75817557D01*
X165245603Y-75817557D01*
G37*
G36*
X165949023Y-75648785D02*
G01*
X165949023Y-76008311D01*
X166136601Y-76008311D01*
X166136601Y-75648785D01*
X165949023Y-75648785D01*
G37*
G36*
X165420481Y-75989504D02*
G01*
X165420481Y-76180258D01*
X165964654Y-76180258D01*
X165964654Y-75989504D01*
X165420481Y-75989504D01*
G37*
G36*
X166469748Y-74945366D02*
G01*
X166469748Y-75136120D01*
X167013921Y-75136120D01*
X167013921Y-74945366D01*
X166469748Y-74945366D01*
G37*
G36*
X166644870Y-75476838D02*
G01*
X166644870Y-75664417D01*
X166829274Y-75664417D01*
X166829274Y-75476838D01*
X166644870Y-75476838D01*
G37*
G36*
X166294870Y-75120488D02*
G01*
X166294870Y-76008311D01*
X166485380Y-76008311D01*
X166485380Y-75492470D01*
X166660502Y-75492470D01*
X166660502Y-75301716D01*
X166485380Y-75301716D01*
X166485380Y-75120488D01*
X166294870Y-75120488D01*
G37*
G36*
X166998290Y-75120488D02*
G01*
X166998290Y-75645610D01*
X166813642Y-75645610D01*
X166813642Y-75836364D01*
X166998290Y-75836364D01*
X166998290Y-76008311D01*
X167185868Y-76008311D01*
X167185868Y-75120488D01*
X166998290Y-75120488D01*
G37*
G36*
X166469748Y-75989504D02*
G01*
X166469748Y-76180258D01*
X167013921Y-76180258D01*
X167013921Y-75989504D01*
X166469748Y-75989504D01*
G37*
G36*
X167344138Y-74945366D02*
G01*
X167344138Y-75317348D01*
X167534647Y-75317348D01*
X167534647Y-75136120D01*
X168235136Y-75136120D01*
X168235136Y-74945366D01*
X167344138Y-74945366D01*
G37*
G36*
X167519016Y-75301716D02*
G01*
X167519016Y-75492470D01*
X167706594Y-75492470D01*
X167706594Y-75301716D01*
X167519016Y-75301716D01*
G37*
G36*
X167703663Y-75476838D02*
G01*
X167703663Y-75664417D01*
X168063189Y-75664417D01*
X168063189Y-75476838D01*
X167703663Y-75476838D01*
G37*
G36*
X167344138Y-75817557D02*
G01*
X167344138Y-76008311D01*
X167534647Y-76008311D01*
X167534647Y-75817557D01*
X167344138Y-75817557D01*
G37*
G36*
X168047557Y-75648785D02*
G01*
X168047557Y-76008311D01*
X168235136Y-76008311D01*
X168235136Y-75648785D01*
X168047557Y-75648785D01*
G37*
G36*
X167519016Y-75989504D02*
G01*
X167519016Y-76180258D01*
X168063189Y-76180258D01*
X168063189Y-75989504D01*
X167519016Y-75989504D01*
G37*
G36*
X168568283Y-74945366D02*
G01*
X168568283Y-75136120D01*
X169112456Y-75136120D01*
X169112456Y-74945366D01*
X168568283Y-74945366D01*
G37*
G36*
X168393405Y-75120488D02*
G01*
X168393405Y-75308066D01*
X168583914Y-75308066D01*
X168583914Y-75120488D01*
X168393405Y-75120488D01*
G37*
G36*
X169096824Y-75120488D02*
G01*
X169096824Y-75480013D01*
X169284403Y-75480013D01*
X169284403Y-75120488D01*
X169096824Y-75120488D01*
G37*
G36*
X168752930Y-75473663D02*
G01*
X168752930Y-75664417D01*
X169112456Y-75664417D01*
X169112456Y-75473663D01*
X168752930Y-75473663D01*
G37*
G36*
X168393405Y-75817557D02*
G01*
X168393405Y-76008311D01*
X168583914Y-76008311D01*
X168583914Y-75817557D01*
X168393405Y-75817557D01*
G37*
G36*
X169096824Y-75648785D02*
G01*
X169096824Y-76008311D01*
X169284403Y-76008311D01*
X169284403Y-75648785D01*
X169096824Y-75648785D01*
G37*
G36*
X168568283Y-75989504D02*
G01*
X168568283Y-76180258D01*
X169112456Y-76180258D01*
X169112456Y-75989504D01*
X168568283Y-75989504D01*
G37*
D11*
G36*
X152270935Y-90771659D02*
G01*
X152270935Y-91115016D01*
X153250446Y-91115016D01*
X153250446Y-90771659D01*
X152270935Y-90771659D01*
G37*
G36*
X151956155Y-91086879D02*
G01*
X151956155Y-91424520D01*
X152299071Y-91424520D01*
X152299071Y-91086879D01*
X151956155Y-91086879D01*
G37*
G36*
X153222309Y-91086879D02*
G01*
X153222309Y-92071666D01*
X153559951Y-92071666D01*
X153559951Y-91086879D01*
X153222309Y-91086879D01*
G37*
G36*
X152270935Y-92032099D02*
G01*
X152270935Y-92375455D01*
X153250446Y-92375455D01*
X153250446Y-92032099D01*
X152270935Y-92032099D01*
G37*
G36*
X151956155Y-92347318D02*
G01*
X151956155Y-92690675D01*
X152299071Y-92690675D01*
X152299071Y-92347318D01*
X151956155Y-92347318D01*
G37*
G36*
X152270935Y-92651108D02*
G01*
X152270935Y-92994464D01*
X153559951Y-92994464D01*
X153559951Y-92651108D01*
X152270935Y-92651108D01*
G37*
G36*
X154159616Y-90771659D02*
G01*
X154159616Y-91115016D01*
X155139127Y-91115016D01*
X155139127Y-90771659D01*
X154159616Y-90771659D01*
G37*
G36*
X153844836Y-91086879D02*
G01*
X153844836Y-91424520D01*
X154187753Y-91424520D01*
X154187753Y-91086879D01*
X153844836Y-91086879D01*
G37*
G36*
X155110991Y-91086879D02*
G01*
X155110991Y-92071666D01*
X155448632Y-92071666D01*
X155448632Y-91086879D01*
X155110991Y-91086879D01*
G37*
G36*
X153844836Y-92032099D02*
G01*
X153844836Y-92994464D01*
X155448632Y-92994464D01*
X155448632Y-92651108D01*
X154187753Y-92651108D01*
X154187753Y-92375455D01*
X155139127Y-92375455D01*
X155139127Y-92032099D01*
X153844836Y-92032099D01*
G37*
G36*
X156677857Y-90771659D02*
G01*
X156677857Y-91115016D01*
X157657369Y-91115016D01*
X157657369Y-90771659D01*
X156677857Y-90771659D01*
G37*
G36*
X157629232Y-91086879D02*
G01*
X157629232Y-91424520D01*
X157966873Y-91424520D01*
X157966873Y-91086879D01*
X157629232Y-91086879D01*
G37*
G36*
X156363077Y-91086879D02*
G01*
X156363077Y-92690675D01*
X156705994Y-92690675D01*
X156705994Y-91086879D01*
X156363077Y-91086879D01*
G37*
G36*
X157629232Y-92347318D02*
G01*
X157629232Y-92690675D01*
X157966873Y-92690675D01*
X157966873Y-92347318D01*
X157629232Y-92347318D01*
G37*
G36*
X156677857Y-92651108D02*
G01*
X156677857Y-92994464D01*
X157657369Y-92994464D01*
X157657369Y-92651108D01*
X156677857Y-92651108D01*
G37*
G36*
X158251758Y-90771659D02*
G01*
X158251758Y-92994464D01*
X158594675Y-92994464D01*
X158594675Y-92375455D01*
X159512637Y-92375455D01*
X159512637Y-92994464D01*
X159855554Y-92994464D01*
X159855554Y-90771659D01*
X159512637Y-90771659D01*
X159512637Y-92032099D01*
X158594675Y-92032099D01*
X158594675Y-90771659D01*
X158251758Y-90771659D01*
G37*
G36*
X160140439Y-90771659D02*
G01*
X160140439Y-92684960D01*
X160483356Y-92684960D01*
X160483356Y-92375455D01*
X161406594Y-92375455D01*
X161406594Y-92684960D01*
X161744235Y-92684960D01*
X161744235Y-90771659D01*
X161406594Y-90771659D01*
X161406594Y-92032099D01*
X160483356Y-92032099D01*
X160483356Y-90771659D01*
X160140439Y-90771659D01*
G37*
G36*
X160455219Y-92651108D02*
G01*
X160455219Y-92994464D01*
X161434731Y-92994464D01*
X161434731Y-92651108D01*
X160455219Y-92651108D01*
G37*
G36*
X163290000Y-90771659D02*
G01*
X163290000Y-92065951D01*
X163632917Y-92065951D01*
X163632917Y-90771659D01*
X163290000Y-90771659D01*
G37*
G36*
X163290000Y-92347318D02*
G01*
X163290000Y-92690675D01*
X163632917Y-92690675D01*
X163632917Y-92347318D01*
X163290000Y-92347318D01*
G37*
G36*
X162029120Y-90771659D02*
G01*
X162029120Y-92994464D01*
X163318136Y-92994464D01*
X163318136Y-92651108D01*
X162372037Y-92651108D01*
X162372037Y-92375455D01*
X163318136Y-92375455D01*
X163318136Y-92032099D01*
X162372037Y-92032099D01*
X162372037Y-90771659D01*
X162029120Y-90771659D01*
G37*
G36*
X164232582Y-90771659D02*
G01*
X164232582Y-91115016D01*
X165212093Y-91115016D01*
X165212093Y-90771659D01*
X164232582Y-90771659D01*
G37*
G36*
X165183956Y-91086879D02*
G01*
X165183956Y-92032099D01*
X164550000Y-92032099D01*
X164550000Y-92375455D01*
X165521598Y-92375455D01*
X165521598Y-91086879D01*
X165183956Y-91086879D01*
G37*
G36*
X163917801Y-91086879D02*
G01*
X163917801Y-92684960D01*
X164260718Y-92684960D01*
X164260718Y-91086879D01*
X163917801Y-91086879D01*
G37*
G36*
X164232582Y-92651108D02*
G01*
X164232582Y-92994464D01*
X165521598Y-92994464D01*
X165521598Y-92651108D01*
X164232582Y-92651108D01*
G37*
G36*
X165806482Y-90771659D02*
G01*
X165806482Y-92994464D01*
X167410279Y-92994464D01*
X167410279Y-92651108D01*
X166149399Y-92651108D01*
X166149399Y-92375455D01*
X166777201Y-92375455D01*
X166777201Y-92032099D01*
X166149399Y-92032099D01*
X166149399Y-91115016D01*
X167410279Y-91115016D01*
X167410279Y-90771659D01*
X165806482Y-90771659D01*
G37*
G36*
X168956043Y-90771659D02*
G01*
X168956043Y-92065951D01*
X169298960Y-92065951D01*
X169298960Y-90771659D01*
X168956043Y-90771659D01*
G37*
G36*
X168956043Y-92347318D02*
G01*
X168956043Y-92690675D01*
X169298960Y-92690675D01*
X169298960Y-92347318D01*
X168956043Y-92347318D01*
G37*
G36*
X167695164Y-90771659D02*
G01*
X167695164Y-92994464D01*
X168984180Y-92994464D01*
X168984180Y-92651108D01*
X168038081Y-92651108D01*
X168038081Y-92375455D01*
X168984180Y-92375455D01*
X168984180Y-92032099D01*
X168038081Y-92032099D01*
X168038081Y-90771659D01*
X167695164Y-90771659D01*
G37*
D10*
G36*
X159296824Y-73445366D02*
G01*
X159296824Y-73636120D01*
X159484403Y-73636120D01*
X159484403Y-73445366D01*
X159296824Y-73445366D01*
G37*
G36*
X159124877Y-73620488D02*
G01*
X159124877Y-73976838D01*
X159312456Y-73976838D01*
X159312456Y-73620488D01*
X159124877Y-73620488D01*
G37*
G36*
X159478541Y-73620488D02*
G01*
X159478541Y-73976838D01*
X159669050Y-73976838D01*
X159669050Y-73620488D01*
X159478541Y-73620488D01*
G37*
G36*
X158950000Y-73961207D02*
G01*
X158950000Y-74680258D01*
X159140509Y-74680258D01*
X159140509Y-73961207D01*
X158950000Y-73961207D01*
G37*
G36*
X159653419Y-73961207D02*
G01*
X159653419Y-74680258D01*
X159840997Y-74680258D01*
X159840997Y-73961207D01*
X159653419Y-73961207D01*
G37*
G36*
X160174145Y-73445366D02*
G01*
X160174145Y-73636120D01*
X160718318Y-73636120D01*
X160718318Y-73445366D01*
X160174145Y-73445366D01*
G37*
G36*
X160349267Y-73976838D02*
G01*
X160349267Y-74164417D01*
X160533670Y-74164417D01*
X160533670Y-73976838D01*
X160349267Y-73976838D01*
G37*
G36*
X159999267Y-73620488D02*
G01*
X159999267Y-74508311D01*
X160189776Y-74508311D01*
X160189776Y-73992470D01*
X160364898Y-73992470D01*
X160364898Y-73801716D01*
X160189776Y-73801716D01*
X160189776Y-73620488D01*
X159999267Y-73620488D01*
G37*
G36*
X160702686Y-73620488D02*
G01*
X160702686Y-74145610D01*
X160518039Y-74145610D01*
X160518039Y-74336364D01*
X160702686Y-74336364D01*
X160702686Y-74508311D01*
X160890265Y-74508311D01*
X160890265Y-73620488D01*
X160702686Y-73620488D01*
G37*
G36*
X160174145Y-74489504D02*
G01*
X160174145Y-74680258D01*
X160718318Y-74680258D01*
X160718318Y-74489504D01*
X160174145Y-74489504D01*
G37*
G36*
X161048534Y-73445366D02*
G01*
X161048534Y-73804891D01*
X161239043Y-73804891D01*
X161239043Y-73445366D01*
X161048534Y-73445366D01*
G37*
G36*
X161398290Y-73445366D02*
G01*
X161398290Y-73636120D01*
X161742184Y-73636120D01*
X161742184Y-74320732D01*
X161570237Y-74320732D01*
X161570237Y-74511486D01*
X161742184Y-74511486D01*
X161742184Y-74680258D01*
X161932693Y-74680258D01*
X161932693Y-73636120D01*
X162289288Y-73636120D01*
X162289288Y-73445366D01*
X161398290Y-73445366D01*
G37*
%TO.C,G\u002A\u002A\u002A*%
G36*
X152111389Y-72240889D02*
G01*
X152082460Y-72269818D01*
X152053530Y-72240889D01*
X152082460Y-72211959D01*
X152111389Y-72240889D01*
G37*
G36*
X154136446Y-77332460D02*
G01*
X154107517Y-77361390D01*
X154078587Y-77332460D01*
X154107517Y-77303531D01*
X154136446Y-77332460D01*
G37*
G36*
X154310023Y-73166629D02*
G01*
X154281093Y-73195558D01*
X154252164Y-73166629D01*
X154281093Y-73137700D01*
X154310023Y-73166629D01*
G37*
G36*
X154772893Y-77563895D02*
G01*
X154743963Y-77592825D01*
X154715034Y-77563895D01*
X154743963Y-77534966D01*
X154772893Y-77563895D01*
G37*
G36*
X155525057Y-75712415D02*
G01*
X155496127Y-75741344D01*
X155467198Y-75712415D01*
X155496127Y-75683485D01*
X155525057Y-75712415D01*
G37*
G36*
X156913667Y-76869590D02*
G01*
X156884738Y-76898520D01*
X156855808Y-76869590D01*
X156884738Y-76840661D01*
X156913667Y-76869590D01*
G37*
G36*
X157723690Y-77332460D02*
G01*
X157694761Y-77361390D01*
X157665831Y-77332460D01*
X157694761Y-77303531D01*
X157723690Y-77332460D01*
G37*
G36*
X149612025Y-74273156D02*
G01*
X149605128Y-74363582D01*
X149584301Y-74390363D01*
X149570171Y-74328626D01*
X149574262Y-74269942D01*
X149600560Y-74252686D01*
X149612025Y-74273156D01*
G37*
G36*
X151925451Y-78719908D02*
G01*
X151918527Y-78788573D01*
X151901124Y-78797625D01*
X151879954Y-78750000D01*
X151884130Y-78719370D01*
X151918527Y-78711428D01*
X151925451Y-78719908D01*
G37*
G36*
X155801989Y-80397812D02*
G01*
X155795064Y-80466477D01*
X155777661Y-80475529D01*
X155756492Y-80427905D01*
X155760667Y-80397274D01*
X155795064Y-80389332D01*
X155801989Y-80397812D01*
G37*
G36*
X158579210Y-78893484D02*
G01*
X158572285Y-78962149D01*
X158554882Y-78971201D01*
X158533713Y-78923577D01*
X158537888Y-78892946D01*
X158572285Y-78885004D01*
X158579210Y-78893484D01*
G37*
G36*
X154813325Y-77651247D02*
G01*
X154826067Y-77684739D01*
X154763953Y-77742997D01*
X154731619Y-77757075D01*
X154738438Y-77717482D01*
X154756299Y-77691780D01*
X154805237Y-77650684D01*
X154813325Y-77651247D01*
G37*
G36*
X155249593Y-74643709D02*
G01*
X155293622Y-74699886D01*
X155291940Y-74713716D01*
X155235763Y-74757745D01*
X155221933Y-74756064D01*
X155177904Y-74699886D01*
X155179585Y-74686057D01*
X155235763Y-74642028D01*
X155249593Y-74643709D01*
G37*
G36*
X157154774Y-76857166D02*
G01*
X157289749Y-76898520D01*
X157350899Y-76933409D01*
X157318679Y-76948245D01*
X157251148Y-76939873D01*
X157116173Y-76898520D01*
X157055024Y-76863630D01*
X157087243Y-76848794D01*
X157154774Y-76857166D01*
G37*
G36*
X157937995Y-80181209D02*
G01*
X157948303Y-80299392D01*
X157938785Y-80470503D01*
X157928512Y-80510792D01*
X157918145Y-80472394D01*
X157913815Y-80341116D01*
X157915709Y-80233734D01*
X157924444Y-80157927D01*
X157937995Y-80181209D01*
G37*
G36*
X158398088Y-80354480D02*
G01*
X158408702Y-80402022D01*
X158400232Y-80528056D01*
X158397369Y-80538004D01*
X158379759Y-80546570D01*
X158371416Y-80456834D01*
X158371336Y-80443132D01*
X158379094Y-80352557D01*
X158398088Y-80354480D01*
G37*
G36*
X158515608Y-77548756D02*
G01*
X158526091Y-77629433D01*
X158516775Y-77780191D01*
X158509209Y-77808661D01*
X158496142Y-77791661D01*
X158490445Y-77679613D01*
X158491192Y-77618320D01*
X158499968Y-77535231D01*
X158515608Y-77548756D01*
G37*
G36*
X151159909Y-72289936D02*
G01*
X151130850Y-72417373D01*
X151124959Y-72436350D01*
X151091289Y-72512126D01*
X151074905Y-72491521D01*
X151076218Y-72441703D01*
X151106009Y-72300984D01*
X151132587Y-72242402D01*
X151159075Y-72224994D01*
X151159909Y-72289936D01*
G37*
G36*
X157154577Y-78128596D02*
G01*
X157289749Y-78171413D01*
X157405467Y-78221138D01*
X157289749Y-78224319D01*
X157218609Y-78218062D01*
X157087243Y-78171413D01*
X157072590Y-78161851D01*
X157029652Y-78123796D01*
X157087243Y-78118506D01*
X157154577Y-78128596D01*
G37*
G36*
X150409556Y-80730458D02*
G01*
X150439416Y-80852305D01*
X150462745Y-81030825D01*
X150435363Y-81170529D01*
X150403065Y-81195882D01*
X150386319Y-81125174D01*
X150383198Y-80948634D01*
X150383358Y-80936017D01*
X150386544Y-80763718D01*
X150393604Y-80698064D01*
X150409556Y-80730458D01*
G37*
G36*
X152897145Y-81089255D02*
G01*
X152912373Y-81135066D01*
X152946764Y-81307180D01*
X152940719Y-81436408D01*
X152916835Y-81501638D01*
X152892121Y-81509297D01*
X152859112Y-81411504D01*
X152829098Y-81250359D01*
X152815539Y-81064351D01*
X152813848Y-80861845D01*
X152897145Y-81089255D01*
G37*
G36*
X155409339Y-75107851D02*
G01*
X155361667Y-75115676D01*
X155129384Y-75141731D01*
X154917540Y-75150257D01*
X154686105Y-75146336D01*
X154917540Y-75104898D01*
X154956013Y-75098546D01*
X155182787Y-75073244D01*
X155409339Y-75062491D01*
X155669704Y-75061523D01*
X155409339Y-75107851D01*
G37*
G36*
X159196177Y-80356285D02*
G01*
X159170040Y-80543622D01*
X159161819Y-80592298D01*
X159139143Y-80705900D01*
X159126491Y-80713162D01*
X159119542Y-80620678D01*
X159124637Y-80467399D01*
X159148378Y-80343353D01*
X159170981Y-80290648D01*
X159196325Y-80270424D01*
X159196177Y-80356285D01*
G37*
G36*
X150243808Y-80932878D02*
G01*
X150244606Y-80939530D01*
X150253533Y-81133565D01*
X150244275Y-81337890D01*
X150241394Y-81362229D01*
X150231187Y-81389505D01*
X150223928Y-81315344D01*
X150221036Y-81151139D01*
X150221136Y-81105852D01*
X150224864Y-80955200D01*
X150232896Y-80892999D01*
X150243808Y-80932878D01*
G37*
G36*
X151872903Y-78915680D02*
G01*
X151835520Y-79005386D01*
X151763018Y-79140150D01*
X151675588Y-79285575D01*
X151593424Y-79407262D01*
X151536720Y-79470813D01*
X151534649Y-79446440D01*
X151581359Y-79345980D01*
X151667588Y-79191269D01*
X151757603Y-79044974D01*
X151834794Y-78933944D01*
X151872519Y-78898793D01*
X151872903Y-78915680D01*
G37*
G36*
X155896407Y-75660746D02*
G01*
X155949640Y-75709044D01*
X155975441Y-75821350D01*
X155977224Y-76022364D01*
X155966521Y-76348861D01*
X155945535Y-76052713D01*
X155923941Y-75873876D01*
X155878707Y-75759305D01*
X155797126Y-75695012D01*
X155759758Y-75674647D01*
X155729462Y-75637023D01*
X155782459Y-75629819D01*
X155896407Y-75660746D01*
G37*
G36*
X156146740Y-80644173D02*
G01*
X156133892Y-80752917D01*
X156098823Y-80914883D01*
X156073898Y-81006465D01*
X156033254Y-81124574D01*
X156006824Y-81160393D01*
X156002690Y-81137377D01*
X156015538Y-81028633D01*
X156050607Y-80866667D01*
X156075532Y-80775084D01*
X156116176Y-80656976D01*
X156142606Y-80621156D01*
X156146740Y-80644173D01*
G37*
G36*
X151930076Y-80788677D02*
G01*
X151969674Y-80977563D01*
X151987602Y-81074443D01*
X152023932Y-81294176D01*
X152039765Y-81431066D01*
X152035214Y-81477330D01*
X152010396Y-81425187D01*
X151965423Y-81266857D01*
X151944169Y-81175503D01*
X151906490Y-80955435D01*
X151891996Y-80775057D01*
X151892617Y-80747731D01*
X151904224Y-80711635D01*
X151930076Y-80788677D01*
G37*
G36*
X154933392Y-78466682D02*
G01*
X154973875Y-78516101D01*
X154976523Y-78522428D01*
X154942316Y-78586552D01*
X154835516Y-78660748D01*
X154825874Y-78665704D01*
X154670594Y-78734105D01*
X154595583Y-78745135D01*
X154609484Y-78702601D01*
X154720942Y-78610308D01*
X154769049Y-78576213D01*
X154879305Y-78498888D01*
X154928590Y-78465661D01*
X154933392Y-78466682D01*
G37*
G36*
X155404260Y-73625692D02*
G01*
X155475380Y-73699985D01*
X155578822Y-73831784D01*
X155673176Y-73971876D01*
X155736945Y-74087728D01*
X155748627Y-74146805D01*
X155748089Y-74147164D01*
X155705435Y-74109734D01*
X155617862Y-73999719D01*
X155503644Y-73840003D01*
X155484185Y-73811387D01*
X155400250Y-73677902D01*
X155371539Y-73611543D01*
X155404260Y-73625692D01*
G37*
G36*
X158780086Y-80398795D02*
G01*
X158791710Y-80423400D01*
X158801392Y-80496327D01*
X158777142Y-80602512D01*
X158712139Y-80764913D01*
X158599565Y-81006492D01*
X158596800Y-81012220D01*
X158556786Y-81083894D01*
X158553476Y-81064351D01*
X158570384Y-80996177D01*
X158607459Y-80837796D01*
X158652105Y-80641100D01*
X158662713Y-80594692D01*
X158707252Y-80433266D01*
X158744248Y-80371995D01*
X158780086Y-80398795D01*
G37*
G36*
X150607278Y-80890775D02*
G01*
X150636813Y-81140787D01*
X150664503Y-81379990D01*
X150684301Y-81556151D01*
X150709471Y-81787586D01*
X150601924Y-81556151D01*
X150577696Y-81500873D01*
X150519127Y-81332587D01*
X150496928Y-81208998D01*
X150499477Y-81093280D01*
X150545661Y-81208998D01*
X150550951Y-81220098D01*
X150569432Y-81204895D01*
X150577386Y-81090652D01*
X150573635Y-80890775D01*
X150555425Y-80456834D01*
X150607278Y-80890775D01*
G37*
G36*
X157937248Y-73044949D02*
G01*
X157973830Y-73215247D01*
X158017751Y-73451006D01*
X158054981Y-73671959D01*
X158087809Y-73890154D01*
X158106045Y-74042482D01*
X158106442Y-74104986D01*
X158101131Y-74102936D01*
X158076425Y-74030685D01*
X158042073Y-73881505D01*
X158003108Y-73683465D01*
X157964566Y-73464636D01*
X157931481Y-73253090D01*
X157908888Y-73076895D01*
X157901821Y-72964123D01*
X157911919Y-72956553D01*
X157937248Y-73044949D01*
G37*
G36*
X157479656Y-80128570D02*
G01*
X157509639Y-80212542D01*
X157583647Y-80231638D01*
X157618424Y-80230170D01*
X157656074Y-80301804D01*
X157652857Y-80459499D01*
X157607972Y-80688269D01*
X157579109Y-80793822D01*
X157563876Y-80806531D01*
X157556073Y-80717198D01*
X157539673Y-80633148D01*
X157505834Y-80638902D01*
X157484852Y-80626099D01*
X157468045Y-80522514D01*
X157460588Y-80349608D01*
X157462196Y-80188945D01*
X157469046Y-80109509D01*
X157479656Y-80128570D01*
G37*
G36*
X154432363Y-81295786D02*
G01*
X154447286Y-81408926D01*
X154479439Y-81647866D01*
X154506770Y-81845444D01*
X154539579Y-82076880D01*
X154432212Y-81874374D01*
X154373160Y-81734049D01*
X154355818Y-81618831D01*
X154372449Y-81618831D01*
X154381714Y-81675703D01*
X154407405Y-81653787D01*
X154416650Y-81620329D01*
X154402838Y-81542891D01*
X154383087Y-81543787D01*
X154372449Y-81618831D01*
X154355818Y-81618831D01*
X154347070Y-81560714D01*
X154357805Y-81324716D01*
X154390765Y-80977563D01*
X154432363Y-81295786D01*
G37*
G36*
X157648549Y-82712883D02*
G01*
X157580788Y-82838556D01*
X157466555Y-83009165D01*
X157322186Y-83203618D01*
X157164019Y-83400827D01*
X157008392Y-83579702D01*
X156871642Y-83719151D01*
X156770108Y-83798087D01*
X156752055Y-83801183D01*
X156778061Y-83749181D01*
X156867230Y-83637032D01*
X157008626Y-83479351D01*
X157060035Y-83423334D01*
X157238839Y-83215291D01*
X157393867Y-83016432D01*
X157496252Y-82863231D01*
X157540762Y-82788150D01*
X157614585Y-82683920D01*
X157655659Y-82654938D01*
X157648549Y-82712883D01*
G37*
G36*
X150878292Y-81266255D02*
G01*
X150924203Y-81406096D01*
X150981288Y-81614009D01*
X151001470Y-81691065D01*
X151081174Y-81974194D01*
X151164266Y-82243467D01*
X151235711Y-82449513D01*
X151285697Y-82589260D01*
X151325399Y-82726905D01*
X151330377Y-82790390D01*
X151305048Y-82783134D01*
X151250817Y-82692322D01*
X151181595Y-82527092D01*
X151104375Y-82309862D01*
X151026151Y-82063049D01*
X150953914Y-81809068D01*
X150894659Y-81570336D01*
X150855378Y-81369271D01*
X150843065Y-81228287D01*
X150849597Y-81211345D01*
X150878292Y-81266255D01*
G37*
G36*
X155711618Y-80511022D02*
G01*
X155720773Y-80529844D01*
X155729895Y-80655301D01*
X155666799Y-80839356D01*
X155638009Y-80900591D01*
X155577541Y-81010601D01*
X155543733Y-81044455D01*
X155540825Y-81010447D01*
X155555625Y-80889737D01*
X155588552Y-80716120D01*
X155603456Y-80648769D01*
X155608580Y-80630410D01*
X155640774Y-80630410D01*
X155669704Y-80659340D01*
X155698633Y-80630410D01*
X155669704Y-80601481D01*
X155640774Y-80630410D01*
X155608580Y-80630410D01*
X155641465Y-80512584D01*
X155674595Y-80471543D01*
X155711618Y-80511022D01*
G37*
G36*
X156729280Y-80154118D02*
G01*
X156736685Y-80253156D01*
X156739205Y-80413440D01*
X156734990Y-80545460D01*
X156716966Y-80623030D01*
X156682232Y-80601481D01*
X156671526Y-80585356D01*
X156634162Y-80554348D01*
X156623209Y-80630410D01*
X156601382Y-80741586D01*
X156539102Y-80890775D01*
X156496964Y-80958937D01*
X156476096Y-80960775D01*
X156475729Y-80876910D01*
X156492420Y-80692736D01*
X156514810Y-80541626D01*
X156562274Y-80358308D01*
X156617429Y-80244331D01*
X156678966Y-80176815D01*
X156724020Y-80138611D01*
X156729280Y-80154118D01*
G37*
G36*
X157080200Y-80167540D02*
G01*
X157080367Y-80168750D01*
X157098766Y-80284184D01*
X157116332Y-80291321D01*
X157147808Y-80196470D01*
X157176797Y-80107150D01*
X157188984Y-80111469D01*
X157190348Y-80225399D01*
X157190169Y-80239073D01*
X157179455Y-80382676D01*
X157157258Y-80520939D01*
X157130369Y-80626533D01*
X157105582Y-80672133D01*
X157089687Y-80630410D01*
X157080543Y-80587106D01*
X157050704Y-80599984D01*
X156995531Y-80717198D01*
X156965596Y-80786882D01*
X156934998Y-80835848D01*
X156938839Y-80775057D01*
X156951295Y-80701869D01*
X156979878Y-80519999D01*
X157010633Y-80312187D01*
X157023490Y-80225958D01*
X157046579Y-80106697D01*
X157064091Y-80090116D01*
X157080200Y-80167540D01*
G37*
G36*
X152960454Y-80512448D02*
G01*
X152992830Y-80616546D01*
X153031367Y-80795930D01*
X153069353Y-81020682D01*
X153075762Y-81063496D01*
X153114958Y-81322177D01*
X153151667Y-81559829D01*
X153178683Y-81729727D01*
X153190587Y-81803390D01*
X153201762Y-81900850D01*
X153183913Y-81901249D01*
X153130404Y-81816515D01*
X153080279Y-81685326D01*
X153070895Y-81527221D01*
X153085388Y-81444749D01*
X153080923Y-81425325D01*
X153040325Y-81512757D01*
X153020232Y-81555669D01*
X152965914Y-81636539D01*
X152948837Y-81611551D01*
X152983482Y-81487215D01*
X152994190Y-81450344D01*
X153012142Y-81274435D01*
X153007440Y-81041296D01*
X152982169Y-80793232D01*
X152938414Y-80572552D01*
X152928855Y-80509636D01*
X152952522Y-80499953D01*
X152960454Y-80512448D01*
G37*
G36*
X152970235Y-72212594D02*
G01*
X153027629Y-72259235D01*
X153022605Y-72385930D01*
X152955101Y-72601335D01*
X152945445Y-72629534D01*
X152899345Y-72821429D01*
X152848458Y-73115790D01*
X152794188Y-73501968D01*
X152737938Y-73969312D01*
X152681113Y-74507171D01*
X152625115Y-75104898D01*
X152619009Y-75172355D01*
X152589464Y-75460783D01*
X152558958Y-75706472D01*
X152530755Y-75885209D01*
X152508118Y-75972779D01*
X152502550Y-75979259D01*
X152491987Y-75932169D01*
X152494408Y-75785776D01*
X152508656Y-75552140D01*
X152533574Y-75243318D01*
X152568006Y-74871369D01*
X152610795Y-74448353D01*
X152660786Y-73986328D01*
X152716822Y-73497353D01*
X152777747Y-72993487D01*
X152842404Y-72486788D01*
X152851145Y-72428736D01*
X152896584Y-72267842D01*
X152957795Y-72211959D01*
X152970235Y-72212594D01*
G37*
G36*
X150993718Y-72241400D02*
G01*
X150979132Y-72340486D01*
X150933826Y-72509286D01*
X150866952Y-72720006D01*
X150787660Y-72944851D01*
X150705101Y-73156027D01*
X150628427Y-73325741D01*
X150609555Y-73362556D01*
X150525520Y-73512801D01*
X150468728Y-73592641D01*
X150448471Y-73591629D01*
X150474041Y-73499317D01*
X150489244Y-73446236D01*
X150463906Y-73442295D01*
X150370972Y-73513368D01*
X150230979Y-73628671D01*
X150354779Y-73484438D01*
X150415563Y-73398064D01*
X150491344Y-73398064D01*
X150520273Y-73426993D01*
X150549202Y-73398064D01*
X150520273Y-73369135D01*
X150491344Y-73398064D01*
X150415563Y-73398064D01*
X150473671Y-73315492D01*
X150610694Y-73069155D01*
X150739262Y-72793451D01*
X150838195Y-72530182D01*
X150855141Y-72477674D01*
X150905341Y-72332632D01*
X150938676Y-72251504D01*
X150944975Y-72242031D01*
X150989774Y-72228234D01*
X150993718Y-72241400D01*
G37*
G36*
X154896455Y-72212078D02*
G01*
X154938078Y-72225264D01*
X154935194Y-72282589D01*
X154888196Y-72415554D01*
X154876721Y-72447669D01*
X154864424Y-72567674D01*
X154934317Y-72665220D01*
X154985143Y-72717440D01*
X154962262Y-72709979D01*
X154916855Y-72681928D01*
X154873618Y-72683237D01*
X154825984Y-72746313D01*
X154749836Y-72891800D01*
X154669159Y-73034618D01*
X154629633Y-73072759D01*
X154636359Y-73008667D01*
X154693816Y-72846005D01*
X154717984Y-72781993D01*
X154757048Y-72649849D01*
X154759559Y-72584351D01*
X154742972Y-72591927D01*
X154693452Y-72675017D01*
X154630471Y-72821702D01*
X154592968Y-72914318D01*
X154537507Y-73028693D01*
X154505641Y-73063310D01*
X154502661Y-73053821D01*
X154519589Y-72967446D01*
X154569627Y-72828360D01*
X154573195Y-72819746D01*
X154658353Y-72614102D01*
X154741011Y-72414465D01*
X154756214Y-72379899D01*
X154826339Y-72260280D01*
X154885658Y-72211959D01*
X154896455Y-72212078D01*
G37*
G36*
X155335485Y-80624098D02*
G01*
X155340188Y-80692783D01*
X155327777Y-80842903D01*
X155300854Y-81042654D01*
X155299918Y-81048683D01*
X155272587Y-81246427D01*
X155258566Y-81392584D01*
X155260877Y-81455904D01*
X155264307Y-81455129D01*
X155291405Y-81389407D01*
X155334161Y-81242541D01*
X155384978Y-81039989D01*
X155398017Y-80985580D01*
X155447672Y-80794726D01*
X155487528Y-80666046D01*
X155509939Y-80624936D01*
X155512947Y-80688002D01*
X155494344Y-80832443D01*
X155460238Y-81025571D01*
X155417254Y-81235146D01*
X155372019Y-81428926D01*
X155331157Y-81574672D01*
X155301296Y-81640143D01*
X155277245Y-81662388D01*
X155220077Y-81758656D01*
X155206646Y-81785600D01*
X155188493Y-81767384D01*
X155183696Y-81663484D01*
X155191625Y-81493683D01*
X155211648Y-81277765D01*
X155243134Y-81035513D01*
X155251021Y-80983930D01*
X155284842Y-80791736D01*
X155314784Y-80663146D01*
X155335137Y-80623710D01*
X155335485Y-80624098D01*
G37*
G36*
X150643388Y-78403545D02*
G01*
X150640096Y-78526629D01*
X150553658Y-78713861D01*
X150545675Y-78726619D01*
X150406853Y-78896382D01*
X150276878Y-78957624D01*
X150161287Y-78907610D01*
X150148628Y-78893870D01*
X150135550Y-78859097D01*
X150176509Y-78859097D01*
X150233284Y-78911221D01*
X150303295Y-78899477D01*
X150312734Y-78875860D01*
X150277046Y-78801853D01*
X150240048Y-78774468D01*
X150178707Y-78798820D01*
X150176509Y-78859097D01*
X150135550Y-78859097D01*
X150124525Y-78829783D01*
X150158219Y-78737445D01*
X150229957Y-78630232D01*
X150291342Y-78630232D01*
X150296567Y-78665714D01*
X150376277Y-78709076D01*
X150445139Y-78717826D01*
X150491344Y-78692915D01*
X150449329Y-78635040D01*
X150360009Y-78606139D01*
X150291342Y-78630232D01*
X150229957Y-78630232D01*
X150258710Y-78587261D01*
X150332858Y-78495787D01*
X150375160Y-78460706D01*
X150404556Y-78460706D01*
X150407927Y-78496292D01*
X150487929Y-78518565D01*
X150558456Y-78507261D01*
X150607061Y-78460706D01*
X150598467Y-78435198D01*
X150523688Y-78402848D01*
X150488270Y-78407469D01*
X150404556Y-78460706D01*
X150375160Y-78460706D01*
X150471921Y-78380463D01*
X150581380Y-78352270D01*
X150643388Y-78403545D01*
G37*
G36*
X151206722Y-80350057D02*
G01*
X151267278Y-80498007D01*
X151344964Y-80710617D01*
X151422932Y-80941790D01*
X151435021Y-80978999D01*
X151498941Y-81164641D01*
X151548510Y-81290783D01*
X151573847Y-81331886D01*
X151575353Y-81319301D01*
X151561532Y-81220713D01*
X151526853Y-81047629D01*
X151476501Y-80826942D01*
X151459058Y-80752325D01*
X151409396Y-80516044D01*
X151375744Y-80318554D01*
X151364601Y-80196470D01*
X151376859Y-80189445D01*
X151407832Y-80278495D01*
X151452739Y-80448725D01*
X151506834Y-80683871D01*
X151551980Y-80884414D01*
X151620031Y-81166692D01*
X151683605Y-81409751D01*
X151733299Y-81576524D01*
X151760440Y-81658858D01*
X151804644Y-81808550D01*
X151822095Y-81892825D01*
X151812399Y-81897679D01*
X151765970Y-81833633D01*
X151692533Y-81705019D01*
X151604750Y-81536455D01*
X151515284Y-81352558D01*
X151436799Y-81177943D01*
X151381959Y-81037229D01*
X151303650Y-80803987D01*
X151328343Y-81035422D01*
X151353036Y-81266857D01*
X151269914Y-81010245D01*
X151249275Y-80940990D01*
X151204922Y-80750949D01*
X151248076Y-80750949D01*
X151257341Y-80807822D01*
X151283032Y-80785906D01*
X151292276Y-80752447D01*
X151278464Y-80675010D01*
X151258713Y-80675906D01*
X151248076Y-80750949D01*
X151204922Y-80750949D01*
X151192674Y-80698471D01*
X151154551Y-80460587D01*
X151122310Y-80167540D01*
X151206722Y-80350057D01*
G37*
G36*
X150768062Y-77346742D02*
G01*
X150791543Y-77360466D01*
X150824849Y-77425347D01*
X150834685Y-77557090D01*
X150824131Y-77779472D01*
X150794877Y-78041116D01*
X150747659Y-78203658D01*
X150676769Y-78274508D01*
X150576191Y-78265462D01*
X150528349Y-78232885D01*
X150504221Y-78162915D01*
X150503790Y-78118375D01*
X150549202Y-78118375D01*
X150552397Y-78152986D01*
X150597387Y-78212288D01*
X150664240Y-78190739D01*
X150712557Y-78094295D01*
X150709750Y-78041216D01*
X150640233Y-77997836D01*
X150585958Y-78018912D01*
X150549202Y-78118375D01*
X150503790Y-78118375D01*
X150502938Y-78030408D01*
X150512833Y-77911780D01*
X150589596Y-77911780D01*
X150670337Y-77939977D01*
X150739190Y-77921588D01*
X150780638Y-77824260D01*
X150765508Y-77756759D01*
X150700598Y-77708542D01*
X150648416Y-77730230D01*
X150590297Y-77824260D01*
X150589596Y-77911780D01*
X150512833Y-77911780D01*
X150521375Y-77809374D01*
X150523639Y-77787387D01*
X150552817Y-77580667D01*
X150570181Y-77504653D01*
X150605823Y-77504653D01*
X150628322Y-77604596D01*
X150693849Y-77650684D01*
X150743576Y-77630285D01*
X150780638Y-77538381D01*
X150767646Y-77457185D01*
X150713661Y-77386423D01*
X150644061Y-77401535D01*
X150637842Y-77408334D01*
X150605823Y-77504653D01*
X150570181Y-77504653D01*
X150588403Y-77424879D01*
X150623211Y-77352278D01*
X150657181Y-77339138D01*
X150768062Y-77346742D01*
G37*
G36*
X152324045Y-79825609D02*
G01*
X152349113Y-80022893D01*
X152352108Y-80048882D01*
X152382052Y-80271274D01*
X152423995Y-80520562D01*
X152482067Y-80818061D01*
X152560400Y-81185083D01*
X152663124Y-81642939D01*
X152670996Y-81700300D01*
X152644250Y-81683906D01*
X152573180Y-81565254D01*
X152543342Y-81506675D01*
X152488951Y-81357897D01*
X152482676Y-81258490D01*
X152491852Y-81218905D01*
X152462821Y-81206353D01*
X152462101Y-81206780D01*
X152406971Y-81181741D01*
X152347837Y-81079176D01*
X152327097Y-81028653D01*
X152303271Y-80992408D01*
X152299220Y-81048812D01*
X152311859Y-81208998D01*
X152320606Y-81308627D01*
X152325201Y-81410342D01*
X152312288Y-81412391D01*
X152279047Y-81324716D01*
X152250948Y-81209368D01*
X152220487Y-81002898D01*
X152211267Y-80890775D01*
X152227107Y-80890775D01*
X152231282Y-80921405D01*
X152265679Y-80929347D01*
X152272604Y-80920867D01*
X152265679Y-80852202D01*
X152248276Y-80843150D01*
X152227107Y-80890775D01*
X152211267Y-80890775D01*
X152201751Y-80775057D01*
X152191709Y-80599980D01*
X152171399Y-80332579D01*
X152149170Y-80109681D01*
X152132506Y-79968179D01*
X152126582Y-79893363D01*
X152138822Y-79923131D01*
X152171404Y-80051823D01*
X152212064Y-80222943D01*
X152266180Y-80459319D01*
X152321091Y-80705871D01*
X152372345Y-80924004D01*
X152412950Y-81061092D01*
X152434853Y-81090744D01*
X152436561Y-81016745D01*
X152416587Y-80842879D01*
X152373438Y-80572932D01*
X152360966Y-80498574D01*
X152323592Y-80234747D01*
X152299166Y-79996291D01*
X152292472Y-79827273D01*
X152295403Y-79771945D01*
X152306274Y-79742417D01*
X152324045Y-79825609D01*
G37*
G36*
X151310920Y-72211973D02*
G01*
X151351304Y-72223922D01*
X151348862Y-72279651D01*
X151302799Y-72410698D01*
X151279167Y-72481850D01*
X151281381Y-72540086D01*
X151340043Y-72547733D01*
X151471040Y-72504819D01*
X151690263Y-72411372D01*
X151849445Y-72345896D01*
X151947055Y-72315615D01*
X151960891Y-72327542D01*
X151897918Y-72370014D01*
X151752071Y-72444548D01*
X151565599Y-72526217D01*
X151418974Y-72589671D01*
X151280366Y-72674461D01*
X151185018Y-72787067D01*
X151093676Y-72963893D01*
X151038481Y-73074326D01*
X150905943Y-73302645D01*
X150774208Y-73492971D01*
X150595080Y-73719138D01*
X150760182Y-73844279D01*
X150991930Y-74039299D01*
X151252308Y-74323000D01*
X151492009Y-74669993D01*
X151730624Y-75105746D01*
X151737119Y-75118738D01*
X151860231Y-75372568D01*
X151960812Y-75593700D01*
X152028649Y-75758772D01*
X152053530Y-75844423D01*
X152061639Y-75890888D01*
X152104777Y-75883098D01*
X152126926Y-75818256D01*
X152153877Y-75650393D01*
X152181364Y-75399177D01*
X152208219Y-75081881D01*
X152233276Y-74715779D01*
X152255368Y-74318143D01*
X152273328Y-73906248D01*
X152285989Y-73497366D01*
X152292184Y-73108770D01*
X152293632Y-72937219D01*
X152298178Y-72650755D01*
X152305248Y-72468723D01*
X152315520Y-72383432D01*
X152329675Y-72387196D01*
X152348390Y-72472324D01*
X152357010Y-72553174D01*
X152364537Y-72764536D01*
X152364917Y-73058983D01*
X152358874Y-73416593D01*
X152347134Y-73817441D01*
X152330420Y-74241605D01*
X152309458Y-74669160D01*
X152284973Y-75080185D01*
X152257689Y-75454754D01*
X152228330Y-75772946D01*
X152211949Y-75960714D01*
X152192398Y-76261860D01*
X152172805Y-76635587D01*
X152153676Y-77064789D01*
X152135514Y-77532360D01*
X152118827Y-78021195D01*
X152104118Y-78514186D01*
X152091894Y-78994227D01*
X152082659Y-79444213D01*
X152076918Y-79847038D01*
X152075178Y-80185595D01*
X152077943Y-80442778D01*
X152085717Y-80601481D01*
X152109255Y-80796797D01*
X152154755Y-81098922D01*
X152205295Y-81376734D01*
X152216817Y-81434572D01*
X152250838Y-81638038D01*
X152261419Y-81763859D01*
X152250187Y-81802827D01*
X152218769Y-81745736D01*
X152168790Y-81583380D01*
X152128119Y-81421515D01*
X152052162Y-81010765D01*
X152009504Y-80561155D01*
X151996007Y-80035626D01*
X151995672Y-79382982D01*
X151819829Y-79512988D01*
X151766983Y-79552934D01*
X151698006Y-79620806D01*
X151665543Y-79704044D01*
X151660538Y-79835972D01*
X151673936Y-80049914D01*
X151675865Y-80076744D01*
X151684993Y-80269451D01*
X151677380Y-80347988D01*
X151653040Y-80312187D01*
X151645566Y-80288547D01*
X151612744Y-80120879D01*
X151596428Y-79928458D01*
X151590660Y-79689377D01*
X151373690Y-79766807D01*
X151348831Y-79775349D01*
X151159943Y-79825108D01*
X150997608Y-79846777D01*
X150886850Y-79867016D01*
X150838496Y-79943300D01*
X150845452Y-80028925D01*
X150877679Y-80231111D01*
X150931109Y-80503520D01*
X151000163Y-80821652D01*
X151079258Y-81161007D01*
X151162815Y-81497085D01*
X151245253Y-81805388D01*
X151320989Y-82061414D01*
X151390302Y-82288176D01*
X151444471Y-82485125D01*
X151472415Y-82613148D01*
X151469007Y-82651799D01*
X151429967Y-82591610D01*
X151366581Y-82435825D01*
X151288546Y-82207008D01*
X151202042Y-81926157D01*
X151113253Y-81614264D01*
X151028360Y-81292326D01*
X150953545Y-80981337D01*
X150894989Y-80702293D01*
X150851137Y-80470349D01*
X150804419Y-80223801D01*
X150768324Y-80033931D01*
X150748265Y-79929256D01*
X150714982Y-79855008D01*
X150624654Y-79805780D01*
X150448825Y-79775629D01*
X150359293Y-79767156D01*
X150208865Y-79761442D01*
X150130443Y-79771026D01*
X150129686Y-79771606D01*
X150115498Y-79840824D01*
X150107718Y-80001339D01*
X150106883Y-80229897D01*
X150113530Y-80503241D01*
X150118222Y-80640548D01*
X150123308Y-80876606D01*
X150120176Y-81003648D01*
X150108571Y-81026161D01*
X150088238Y-80948634D01*
X150079816Y-80898893D01*
X150057178Y-80690905D01*
X150040449Y-80427319D01*
X150032762Y-80153075D01*
X150031074Y-80051106D01*
X150019173Y-79823331D01*
X149999804Y-79683531D01*
X150607882Y-79683531D01*
X150616608Y-79714984D01*
X150704651Y-79730400D01*
X150848415Y-79731107D01*
X151024302Y-79718429D01*
X151208715Y-79693694D01*
X151378058Y-79658225D01*
X151508732Y-79613350D01*
X151542450Y-79597315D01*
X151689490Y-79523321D01*
X151800589Y-79449453D01*
X151881321Y-79359168D01*
X151937261Y-79235922D01*
X151973983Y-79063173D01*
X151997062Y-78824378D01*
X152012071Y-78502992D01*
X152024587Y-78082472D01*
X152024831Y-78073643D01*
X152036219Y-77694408D01*
X152048700Y-77332279D01*
X152061305Y-77011902D01*
X152073067Y-76757921D01*
X152083017Y-76594980D01*
X152085476Y-76564050D01*
X152094721Y-76387373D01*
X152076379Y-76281096D01*
X152014594Y-76205575D01*
X151893509Y-76121167D01*
X151848486Y-76093095D01*
X151664640Y-75997958D01*
X151503872Y-75939527D01*
X151330296Y-75899231D01*
X151482802Y-76066187D01*
X151524304Y-76113151D01*
X151685357Y-76343420D01*
X151798467Y-76612670D01*
X151880538Y-76958836D01*
X151911952Y-77207312D01*
X151914823Y-77681894D01*
X151857306Y-78175408D01*
X151745362Y-78645666D01*
X151584953Y-79050481D01*
X151496587Y-79194127D01*
X151364327Y-79364358D01*
X151220748Y-79519360D01*
X151091071Y-79632148D01*
X151000517Y-79675741D01*
X150995104Y-79654632D01*
X151052859Y-79575854D01*
X151168389Y-79458770D01*
X151219101Y-79409529D01*
X151482300Y-79061898D01*
X151670141Y-78628857D01*
X151782997Y-78109288D01*
X151821240Y-77502073D01*
X151815397Y-77258735D01*
X151760552Y-76811262D01*
X151646396Y-76454005D01*
X151470983Y-76179615D01*
X151430591Y-76136668D01*
X151274476Y-76005509D01*
X151127974Y-75923654D01*
X150957533Y-75864239D01*
X151152376Y-76059081D01*
X151281509Y-76214484D01*
X151434539Y-76522849D01*
X151522690Y-76911627D01*
X151548794Y-77390319D01*
X151532531Y-77762134D01*
X151457474Y-78290616D01*
X151325905Y-78756584D01*
X151142518Y-79148318D01*
X150912004Y-79454100D01*
X150639057Y-79662211D01*
X150607882Y-79683531D01*
X149999804Y-79683531D01*
X149998271Y-79672470D01*
X149970615Y-79617882D01*
X149943709Y-79658192D01*
X149921772Y-79788012D01*
X149913902Y-79979499D01*
X149921241Y-80240051D01*
X149991848Y-80877490D01*
X150131385Y-81500759D01*
X150332607Y-82093405D01*
X150588265Y-82638975D01*
X150891113Y-83121019D01*
X151233904Y-83523082D01*
X151609391Y-83828713D01*
X152015164Y-84073522D01*
X152581858Y-84346468D01*
X153151549Y-84531069D01*
X153755692Y-84636754D01*
X154425740Y-84672952D01*
X154475890Y-84673234D01*
X154809892Y-84671394D01*
X155069587Y-84659470D01*
X155291562Y-84633356D01*
X155512403Y-84588941D01*
X155768695Y-84522117D01*
X155880660Y-84489479D01*
X156181799Y-84389449D01*
X156469604Y-84278998D01*
X156694435Y-84176650D01*
X156705821Y-84170719D01*
X156889531Y-84075295D01*
X157029802Y-84002935D01*
X157097069Y-83968895D01*
X157116440Y-83976897D01*
X157121933Y-84055267D01*
X157120737Y-84061182D01*
X157049955Y-84147597D01*
X156880136Y-84266270D01*
X156620308Y-84410803D01*
X156132574Y-84661811D01*
X156407920Y-84624151D01*
X156421434Y-84622246D01*
X156750079Y-84551208D01*
X157124695Y-84433419D01*
X157497401Y-84285791D01*
X157820316Y-84125237D01*
X157928762Y-84056422D01*
X158138028Y-84056422D01*
X158177620Y-84049603D01*
X158203323Y-84031742D01*
X158244419Y-83982804D01*
X158243856Y-83974716D01*
X158210363Y-83961974D01*
X158152106Y-84024088D01*
X158138028Y-84056422D01*
X157928762Y-84056422D01*
X158093648Y-83951793D01*
X158188016Y-83882846D01*
X158369463Y-83882846D01*
X158409056Y-83876026D01*
X158434758Y-83858166D01*
X158475854Y-83809228D01*
X158475291Y-83801139D01*
X158441798Y-83788398D01*
X158383541Y-83850512D01*
X158369463Y-83882846D01*
X158188016Y-83882846D01*
X158407546Y-83722453D01*
X158717004Y-83470753D01*
X158989823Y-83222947D01*
X159193803Y-83005292D01*
X159201033Y-82996498D01*
X159343310Y-82837696D01*
X159436653Y-82758735D01*
X159472511Y-82759781D01*
X159442335Y-82840996D01*
X159337577Y-83002544D01*
X159240601Y-83130972D01*
X158882462Y-83528496D01*
X158459812Y-83906765D01*
X157996524Y-84249252D01*
X157516471Y-84539429D01*
X157043525Y-84760770D01*
X156601558Y-84896746D01*
X156538936Y-84909337D01*
X156334297Y-84935722D01*
X156146175Y-84924270D01*
X155912427Y-84872825D01*
X155755626Y-84834908D01*
X155656359Y-84820889D01*
X155843280Y-84820889D01*
X156339569Y-84808565D01*
X156515505Y-84802497D01*
X156718903Y-84783809D01*
X156892118Y-84743351D01*
X157078943Y-84669670D01*
X157323168Y-84551313D01*
X157425010Y-84499237D01*
X157651317Y-84377420D01*
X157838952Y-84268436D01*
X157955125Y-84190982D01*
X158041990Y-84116699D01*
X158067696Y-84078979D01*
X158007530Y-84102844D01*
X157868337Y-84188491D01*
X157598228Y-84335579D01*
X157236982Y-84482313D01*
X156824352Y-84612317D01*
X156392938Y-84713981D01*
X155843280Y-84820889D01*
X155656359Y-84820889D01*
X155576869Y-84809663D01*
X155403728Y-84818926D01*
X155177904Y-84861822D01*
X154909422Y-84899164D01*
X154556356Y-84915792D01*
X154159995Y-84911674D01*
X153755830Y-84888060D01*
X153379354Y-84846203D01*
X153066059Y-84787353D01*
X152928933Y-84746181D01*
X152680003Y-84654380D01*
X152395244Y-84535641D01*
X152113185Y-84405406D01*
X152062758Y-84380630D01*
X151761971Y-84222674D01*
X151522938Y-84071108D01*
X151304473Y-83897096D01*
X151065391Y-83671803D01*
X150991318Y-83597638D01*
X150787885Y-83378456D01*
X150627762Y-83169977D01*
X150482871Y-82932553D01*
X150325133Y-82626538D01*
X150236261Y-82440734D01*
X150059822Y-82024796D01*
X149931487Y-81629189D01*
X149843241Y-81220181D01*
X149787068Y-80764039D01*
X149772155Y-80514693D01*
X149857202Y-80514693D01*
X149885373Y-80893361D01*
X149944587Y-81335920D01*
X150115252Y-81966803D01*
X150376625Y-82573834D01*
X150716886Y-83131071D01*
X151124218Y-83612574D01*
X151303946Y-83785217D01*
X151545302Y-83986533D01*
X151798530Y-84152109D01*
X152111794Y-84316261D01*
X152130013Y-84325117D01*
X152490989Y-84493691D01*
X152795426Y-84615871D01*
X153077757Y-84700020D01*
X153372415Y-84754499D01*
X153713834Y-84787668D01*
X154136446Y-84807889D01*
X154409092Y-84816309D01*
X154689885Y-84819364D01*
X154914011Y-84810776D01*
X155114871Y-84787753D01*
X155325870Y-84747504D01*
X155580409Y-84687238D01*
X155583975Y-84686353D01*
X155834934Y-84615963D01*
X156107879Y-84526486D01*
X156380725Y-84426811D01*
X156631384Y-84325830D01*
X156837772Y-84232433D01*
X156977800Y-84155511D01*
X157029385Y-84103955D01*
X157029323Y-84103371D01*
X156979389Y-84112434D01*
X156854187Y-84164153D01*
X156679971Y-84247725D01*
X156601750Y-84284819D01*
X156352359Y-84387036D01*
X156058588Y-84491733D01*
X155768695Y-84581246D01*
X155653610Y-84612840D01*
X155427853Y-84668200D01*
X155223565Y-84703840D01*
X155006476Y-84723461D01*
X154742315Y-84730766D01*
X154396811Y-84729457D01*
X154366116Y-84729104D01*
X154016956Y-84721554D01*
X153746611Y-84705713D01*
X153520841Y-84677389D01*
X153305404Y-84632390D01*
X153066059Y-84566523D01*
X152887036Y-84510044D01*
X152383684Y-84314145D01*
X151914159Y-84078772D01*
X151505727Y-83818685D01*
X151185649Y-83548639D01*
X151095951Y-83452776D01*
X150822083Y-83104396D01*
X150559155Y-82695156D01*
X150331127Y-82264745D01*
X150161955Y-81852851D01*
X150082769Y-81590476D01*
X150001600Y-81271771D01*
X149939807Y-80977563D01*
X149857202Y-80514693D01*
X149772155Y-80514693D01*
X149754951Y-80227030D01*
X149745116Y-79993964D01*
X149817576Y-79993964D01*
X149818413Y-80132967D01*
X149822782Y-80274839D01*
X149830060Y-80324636D01*
X149839318Y-80270539D01*
X149843306Y-80215852D01*
X149848393Y-79981410D01*
X149839638Y-79749810D01*
X149833225Y-79691562D01*
X149825243Y-79697325D01*
X149819719Y-79801539D01*
X149817576Y-79993964D01*
X149745116Y-79993964D01*
X149743866Y-79964332D01*
X149727283Y-79684177D01*
X149705727Y-79476702D01*
X149675371Y-79316964D01*
X149632387Y-79180019D01*
X149609338Y-79126082D01*
X149681321Y-79126082D01*
X149710250Y-79155012D01*
X149739180Y-79126082D01*
X149734359Y-79121261D01*
X149768109Y-79121261D01*
X149780406Y-79210016D01*
X149818735Y-79251443D01*
X149844101Y-79255493D01*
X149898565Y-79322177D01*
X149905340Y-79366857D01*
X149853464Y-79356631D01*
X149811816Y-79338241D01*
X149822822Y-79381356D01*
X149845750Y-79409781D01*
X149897368Y-79421121D01*
X149899229Y-79419629D01*
X149964829Y-79434249D01*
X150072954Y-79504059D01*
X150143056Y-79551863D01*
X150363267Y-79618448D01*
X150595179Y-79572502D01*
X150831413Y-79414893D01*
X151010463Y-79215146D01*
X151161438Y-78951412D01*
X151285330Y-78611225D01*
X151390913Y-78175151D01*
X151398625Y-78136122D01*
X151461448Y-77667391D01*
X151468628Y-77223665D01*
X151423197Y-76821622D01*
X151328185Y-76477944D01*
X151186624Y-76209309D01*
X151001544Y-76032398D01*
X150996920Y-76029595D01*
X150737992Y-75927955D01*
X150491649Y-75939755D01*
X150264348Y-76064711D01*
X150227847Y-76096546D01*
X150126881Y-76199699D01*
X150086332Y-76267216D01*
X150095371Y-76281310D01*
X150183059Y-76308949D01*
X150333823Y-76319932D01*
X150483455Y-76329892D01*
X150678763Y-76399157D01*
X150820959Y-76549208D01*
X150931648Y-76797298D01*
X150969090Y-76922677D01*
X151036944Y-77352583D01*
X151028065Y-77800063D01*
X150947145Y-78235685D01*
X150798875Y-78630019D01*
X150587946Y-78953632D01*
X150499429Y-79042616D01*
X150300333Y-79159363D01*
X150102712Y-79172163D01*
X149923412Y-79077867D01*
X149915080Y-79070350D01*
X149818193Y-78994594D01*
X149776821Y-79009436D01*
X149768109Y-79121261D01*
X149734359Y-79121261D01*
X149710250Y-79097153D01*
X149681321Y-79126082D01*
X149609338Y-79126082D01*
X149572947Y-79040925D01*
X149531971Y-78952506D01*
X149623462Y-78952506D01*
X149652392Y-78981435D01*
X149681321Y-78952506D01*
X149652392Y-78923577D01*
X149623462Y-78952506D01*
X149531971Y-78952506D01*
X149504557Y-78893353D01*
X149481912Y-78844261D01*
X149763734Y-78844261D01*
X149790494Y-78890045D01*
X149904089Y-78975264D01*
X150040269Y-79054048D01*
X150229005Y-79085683D01*
X150407468Y-79008574D01*
X150588652Y-78819770D01*
X150643044Y-78741507D01*
X150773068Y-78506330D01*
X150865942Y-78274075D01*
X150891716Y-78173494D01*
X150939007Y-77837593D01*
X150947550Y-77467679D01*
X150917854Y-77111613D01*
X150850429Y-76817255D01*
X150826553Y-76755599D01*
X150746367Y-76602402D01*
X150656311Y-76480344D01*
X150573678Y-76406480D01*
X150515765Y-76397867D01*
X150499867Y-76471559D01*
X150502828Y-76507563D01*
X150499952Y-76675913D01*
X150451707Y-76759940D01*
X150346697Y-76782802D01*
X150233979Y-76793187D01*
X150210082Y-76843464D01*
X150262951Y-76962063D01*
X150268711Y-76974846D01*
X150297207Y-77102676D01*
X150317978Y-77302014D01*
X150326867Y-77535557D01*
X150323918Y-77754347D01*
X150301548Y-77962681D01*
X150248192Y-78151445D01*
X150152869Y-78373523D01*
X150072016Y-78531741D01*
X149951775Y-78712449D01*
X149848971Y-78798728D01*
X149815538Y-78811425D01*
X149763734Y-78844261D01*
X149481912Y-78844261D01*
X149435517Y-78743683D01*
X149398821Y-78663212D01*
X149410658Y-78647033D01*
X149483871Y-78692141D01*
X149537621Y-78733510D01*
X149565088Y-78745727D01*
X149556953Y-78734606D01*
X149720298Y-78734606D01*
X149765149Y-78741802D01*
X149853640Y-78697253D01*
X149956294Y-78590889D01*
X150001870Y-78518411D01*
X150017742Y-78470675D01*
X149962299Y-78502019D01*
X149829920Y-78613449D01*
X149765281Y-78673196D01*
X149720298Y-78734606D01*
X149556953Y-78734606D01*
X149516660Y-78679527D01*
X149457743Y-78623002D01*
X149374205Y-78592738D01*
X149340152Y-78569483D01*
X149284476Y-78461411D01*
X149284252Y-78460706D01*
X149334168Y-78460706D01*
X149338344Y-78491337D01*
X149372741Y-78499279D01*
X149379665Y-78490799D01*
X149372741Y-78422134D01*
X149355338Y-78413082D01*
X149334168Y-78460706D01*
X149284252Y-78460706D01*
X149231144Y-78293195D01*
X149204472Y-78205164D01*
X149280877Y-78205164D01*
X149290142Y-78262036D01*
X149315834Y-78240120D01*
X149325078Y-78206662D01*
X149311266Y-78129224D01*
X149291515Y-78130120D01*
X149280877Y-78205164D01*
X149204472Y-78205164D01*
X149193799Y-78169939D01*
X149118228Y-77995541D01*
X149041822Y-77888184D01*
X149035032Y-77882033D01*
X149003608Y-77839042D01*
X149378013Y-77839042D01*
X149399336Y-78131127D01*
X149420677Y-78251083D01*
X149480140Y-78472410D01*
X149554041Y-78595924D01*
X149648651Y-78634283D01*
X149661335Y-78633145D01*
X149767490Y-78572440D01*
X149890465Y-78442045D01*
X150004524Y-78273620D01*
X150083926Y-78098828D01*
X150097671Y-78041130D01*
X150117835Y-77878173D01*
X150129973Y-77669169D01*
X150134255Y-77441045D01*
X150130851Y-77220725D01*
X150119931Y-77035134D01*
X150101663Y-76911197D01*
X150076218Y-76875841D01*
X150060511Y-76880674D01*
X150000127Y-76841605D01*
X149946220Y-76804721D01*
X149824039Y-76782802D01*
X149788144Y-76786884D01*
X149660783Y-76868070D01*
X149549020Y-77036322D01*
X149459925Y-77269197D01*
X149400566Y-77544251D01*
X149378013Y-77839042D01*
X149003608Y-77839042D01*
X148956342Y-77774379D01*
X148859398Y-77597052D01*
X148763596Y-77385126D01*
X148664524Y-77142329D01*
X148822399Y-77142329D01*
X148848047Y-77305798D01*
X148905666Y-77495730D01*
X148934895Y-77576371D01*
X149006744Y-77719391D01*
X149074800Y-77759603D01*
X149143593Y-77694003D01*
X149217658Y-77519587D01*
X149301528Y-77233349D01*
X149345188Y-77101025D01*
X149392027Y-77101025D01*
X149420956Y-77129955D01*
X149449886Y-77101025D01*
X149420956Y-77072096D01*
X149392027Y-77101025D01*
X149345188Y-77101025D01*
X149398346Y-76939915D01*
X149406491Y-76925696D01*
X149464850Y-76925696D01*
X149465874Y-76991653D01*
X149485114Y-76992955D01*
X149527710Y-76929944D01*
X149541755Y-76884736D01*
X149531606Y-76842551D01*
X149476436Y-76902369D01*
X149464850Y-76925696D01*
X149406491Y-76925696D01*
X149498525Y-76765039D01*
X149581790Y-76765039D01*
X149674175Y-76722183D01*
X149803197Y-76684351D01*
X149958741Y-76722187D01*
X150034244Y-76754828D01*
X150071685Y-76757208D01*
X150031126Y-76699210D01*
X149964144Y-76641536D01*
X149815252Y-76617120D01*
X149648985Y-76699206D01*
X149586615Y-76750366D01*
X149581790Y-76765039D01*
X149498525Y-76765039D01*
X149530030Y-76710042D01*
X149687081Y-76588282D01*
X149872163Y-76571548D01*
X150057206Y-76602676D01*
X150259909Y-76635268D01*
X150462414Y-76666802D01*
X150274373Y-76579989D01*
X150248529Y-76567799D01*
X150133189Y-76505486D01*
X150086332Y-76465859D01*
X150087073Y-76463557D01*
X150147245Y-76455926D01*
X150274373Y-76469877D01*
X150374949Y-76484209D01*
X150411325Y-76476244D01*
X150356445Y-76433986D01*
X150276473Y-76401994D01*
X150128020Y-76398784D01*
X150043856Y-76406341D01*
X149934388Y-76371734D01*
X149843656Y-76347838D01*
X149688350Y-76403085D01*
X149673665Y-76410620D01*
X149549450Y-76469405D01*
X149480414Y-76493508D01*
X149453557Y-76471802D01*
X149378306Y-76375836D01*
X149279732Y-76229223D01*
X149112128Y-75964938D01*
X148962784Y-76454561D01*
X148955514Y-76478448D01*
X148874310Y-76761878D01*
X148830546Y-76972097D01*
X148822399Y-77142329D01*
X148664524Y-77142329D01*
X148615310Y-77021721D01*
X148714935Y-77021721D01*
X148738475Y-77058942D01*
X148751013Y-76999775D01*
X148756515Y-76962737D01*
X148790800Y-76821676D01*
X148849114Y-76616548D01*
X148923039Y-76377794D01*
X148965049Y-76243228D01*
X149021515Y-76044700D01*
X149052889Y-75908264D01*
X149053221Y-75857697D01*
X149035707Y-75875154D01*
X148988702Y-75978278D01*
X148928245Y-76149266D01*
X148862643Y-76359534D01*
X148800204Y-76580498D01*
X148749235Y-76783574D01*
X148718043Y-76940176D01*
X148714935Y-77021721D01*
X148615310Y-77021721D01*
X148596214Y-76974921D01*
X148786008Y-76372597D01*
X148940534Y-75897219D01*
X148977693Y-75792489D01*
X149162617Y-75792489D01*
X149199900Y-75917443D01*
X149274538Y-76070608D01*
X149368451Y-76219827D01*
X149463559Y-76332940D01*
X149541784Y-76377791D01*
X149583720Y-76369425D01*
X149581834Y-76320081D01*
X149508991Y-76205964D01*
X149494927Y-76186487D01*
X149437214Y-76114012D01*
X149565603Y-76114012D01*
X149570225Y-76149429D01*
X149623462Y-76233144D01*
X149659048Y-76229773D01*
X149681321Y-76149770D01*
X149670017Y-76079243D01*
X149623462Y-76030638D01*
X149597953Y-76039232D01*
X149565603Y-76114012D01*
X149437214Y-76114012D01*
X149399795Y-76067022D01*
X149331474Y-76000044D01*
X149318651Y-75990378D01*
X149276310Y-75902539D01*
X149301404Y-75883312D01*
X149377599Y-75930792D01*
X149405895Y-75952194D01*
X149528473Y-75980721D01*
X149635500Y-75933121D01*
X149681321Y-75825257D01*
X149661313Y-75768334D01*
X149557847Y-75745842D01*
X149366864Y-75797771D01*
X149322793Y-75811294D01*
X149234946Y-75811291D01*
X149216625Y-75773825D01*
X149290774Y-75721804D01*
X149317974Y-75707623D01*
X149305239Y-75688939D01*
X149279370Y-75690662D01*
X149177432Y-75729712D01*
X149162617Y-75792489D01*
X148977693Y-75792489D01*
X149047163Y-75596697D01*
X149276310Y-75596697D01*
X149305239Y-75625627D01*
X149334168Y-75596697D01*
X149305239Y-75567768D01*
X149276310Y-75596697D01*
X149047163Y-75596697D01*
X149071282Y-75528719D01*
X149164878Y-75528719D01*
X149174354Y-75559077D01*
X149220709Y-75497489D01*
X149305239Y-75497489D01*
X149420956Y-75542873D01*
X149493329Y-75579100D01*
X149576956Y-75648714D01*
X149590937Y-75665927D01*
X149633280Y-75663453D01*
X149659331Y-75581760D01*
X149663927Y-75449081D01*
X149641902Y-75293652D01*
X149627850Y-75240073D01*
X149563010Y-75107788D01*
X149462409Y-75057480D01*
X149402453Y-75053918D01*
X149347165Y-75093253D01*
X149334168Y-75216591D01*
X149334315Y-75232364D01*
X149359281Y-75358246D01*
X149435421Y-75398258D01*
X149464410Y-75399875D01*
X149495472Y-75413312D01*
X149420956Y-75449907D01*
X149305239Y-75497489D01*
X149220709Y-75497489D01*
X149225514Y-75491105D01*
X149256627Y-75423136D01*
X149259831Y-75358427D01*
X149239552Y-75358724D01*
X149196669Y-75425358D01*
X149164878Y-75528719D01*
X149071282Y-75528719D01*
X149073584Y-75522232D01*
X149188395Y-75240254D01*
X149288986Y-75041419D01*
X149352109Y-74953734D01*
X149469775Y-74953734D01*
X149504330Y-74989180D01*
X149521124Y-74986957D01*
X149565603Y-74931321D01*
X149564940Y-74918228D01*
X149540089Y-74873463D01*
X149530808Y-74876125D01*
X149478815Y-74931321D01*
X149469775Y-74953734D01*
X149352109Y-74953734D01*
X149379376Y-74915858D01*
X149407160Y-74885747D01*
X149469554Y-74803104D01*
X149496523Y-74715378D01*
X149487303Y-74596557D01*
X149441131Y-74420628D01*
X149357243Y-74161579D01*
X149206742Y-73709665D01*
X149024555Y-73752592D01*
X149005610Y-73756592D01*
X148844031Y-73776979D01*
X148617314Y-73792230D01*
X148368277Y-73799298D01*
X148178840Y-73802015D01*
X148007267Y-73813723D01*
X147891359Y-73843990D01*
X147797053Y-73902934D01*
X147690288Y-74000672D01*
X147675893Y-74014558D01*
X147555573Y-74119991D01*
X147487728Y-74147757D01*
X147451437Y-74107185D01*
X147448382Y-74097668D01*
X147443910Y-73974010D01*
X147471236Y-73820203D01*
X147548347Y-73820203D01*
X147550925Y-73928966D01*
X147613253Y-73938818D01*
X147737940Y-73851397D01*
X147820069Y-73774579D01*
X147861650Y-73703129D01*
X147824728Y-73654045D01*
X147738663Y-73612225D01*
X147629413Y-73624381D01*
X147564929Y-73742734D01*
X147548347Y-73820203D01*
X147471236Y-73820203D01*
X147472428Y-73813491D01*
X147501669Y-73680984D01*
X147483426Y-73612257D01*
X147404277Y-73577587D01*
X147318282Y-73559770D01*
X147150000Y-73543501D01*
X147068958Y-73533178D01*
X147019818Y-73497788D01*
X147028829Y-73486556D01*
X147115967Y-73470741D01*
X147265717Y-73474662D01*
X147511617Y-73496459D01*
X147265717Y-73242566D01*
X147155455Y-73121364D01*
X147057534Y-72995299D01*
X147019818Y-72919832D01*
X147051131Y-72920214D01*
X147139356Y-72990428D01*
X147264535Y-73116479D01*
X147428649Y-73281200D01*
X147756590Y-73527341D01*
X148097439Y-73669455D01*
X148466287Y-73715058D01*
X148638480Y-73708186D01*
X148919062Y-73677115D01*
X148942725Y-73672450D01*
X149277755Y-73672450D01*
X149309173Y-73784781D01*
X149389023Y-73997961D01*
X149548028Y-74473257D01*
X149674500Y-75019039D01*
X149772178Y-75654556D01*
X149850874Y-76291003D01*
X149828438Y-75766991D01*
X149825425Y-75707602D01*
X149799424Y-75409196D01*
X149759069Y-75114365D01*
X149711732Y-74879180D01*
X149669327Y-74698096D01*
X149641212Y-74537867D01*
X149638339Y-74452751D01*
X149648173Y-74443556D01*
X149678058Y-74500544D01*
X149718065Y-74639243D01*
X149763731Y-74837881D01*
X149810594Y-75074687D01*
X149854191Y-75327887D01*
X149890059Y-75575708D01*
X149913736Y-75796379D01*
X149953570Y-76291003D01*
X149962092Y-75903304D01*
X149960020Y-75714827D01*
X149941122Y-75439870D01*
X149908686Y-75208998D01*
X149892683Y-75133827D01*
X149981894Y-75133827D01*
X149982276Y-75151795D01*
X149992293Y-75228644D01*
X150010710Y-75205049D01*
X150020012Y-75146334D01*
X150008566Y-75031473D01*
X150006261Y-75026315D01*
X149988148Y-75035015D01*
X149981894Y-75133827D01*
X149892683Y-75133827D01*
X149888121Y-75112400D01*
X149828216Y-74862577D01*
X149755568Y-74589035D01*
X149677017Y-74314428D01*
X149600025Y-74063440D01*
X149681321Y-74063440D01*
X149685496Y-74094070D01*
X149719893Y-74102012D01*
X149726818Y-74093532D01*
X149719893Y-74024867D01*
X149702491Y-74015816D01*
X149681321Y-74063440D01*
X149600025Y-74063440D01*
X149599402Y-74061409D01*
X149529563Y-73852634D01*
X149474338Y-73710756D01*
X149440568Y-73658429D01*
X149413529Y-73660389D01*
X149396824Y-73684142D01*
X149417157Y-73757913D01*
X149478815Y-73909869D01*
X149492408Y-73943416D01*
X149543420Y-74092971D01*
X149562448Y-74191764D01*
X149549915Y-74195700D01*
X149506045Y-74121458D01*
X149442084Y-73976827D01*
X149394616Y-73862551D01*
X149334218Y-73726496D01*
X149300592Y-73663425D01*
X149293769Y-73657186D01*
X149277755Y-73672450D01*
X148942725Y-73672450D01*
X149113352Y-73638812D01*
X149583317Y-73638812D01*
X149600915Y-73745217D01*
X149609573Y-73782771D01*
X149647255Y-73912716D01*
X149672088Y-73938855D01*
X149680435Y-73856113D01*
X149672605Y-73791452D01*
X149632081Y-73687358D01*
X149749794Y-73687358D01*
X149752545Y-73731642D01*
X149773351Y-73884561D01*
X149810217Y-74102136D01*
X149858000Y-74352734D01*
X149895324Y-74535843D01*
X149929496Y-74690619D01*
X149946551Y-74741605D01*
X149948777Y-74694558D01*
X149938464Y-74555239D01*
X149920425Y-74397353D01*
X149890308Y-74202533D01*
X149854256Y-74007916D01*
X149817223Y-73836296D01*
X149784165Y-73710467D01*
X149780519Y-73701818D01*
X149867654Y-73701818D01*
X149894192Y-73876302D01*
X149947592Y-74150228D01*
X149977570Y-74335158D01*
X150012229Y-74654130D01*
X150037156Y-75014690D01*
X150048835Y-75374345D01*
X150049536Y-75432931D01*
X150055291Y-75727376D01*
X150064920Y-75923489D01*
X150080282Y-76036198D01*
X150103238Y-76080431D01*
X150135646Y-76071117D01*
X150157985Y-76039131D01*
X150179345Y-75956703D01*
X150192886Y-75814929D01*
X150199299Y-75599743D01*
X150199275Y-75297081D01*
X150193505Y-74892877D01*
X150193478Y-74891373D01*
X150185622Y-74504358D01*
X150177006Y-74216582D01*
X150165768Y-74011627D01*
X150150049Y-73873077D01*
X150127989Y-73784514D01*
X150104681Y-73742158D01*
X150226434Y-73742158D01*
X150234865Y-73855818D01*
X150243003Y-73912017D01*
X150255001Y-74078948D01*
X150265678Y-74323717D01*
X150274107Y-74623441D01*
X150279362Y-74955238D01*
X150279483Y-74967462D01*
X150284273Y-75320869D01*
X150291491Y-75573882D01*
X150302686Y-75741378D01*
X150319407Y-75838233D01*
X150343204Y-75879325D01*
X150375626Y-75879530D01*
X150424572Y-75860746D01*
X150563667Y-75814820D01*
X150565184Y-75814376D01*
X150616272Y-75781763D01*
X150646611Y-75705516D01*
X150661171Y-75561655D01*
X150664920Y-75326203D01*
X150663105Y-75170475D01*
X150640411Y-74762911D01*
X150594507Y-74400619D01*
X150528890Y-74101118D01*
X150447056Y-73881928D01*
X150378278Y-73793653D01*
X150524638Y-73793653D01*
X150534735Y-73850214D01*
X150584608Y-74001667D01*
X150623871Y-74158436D01*
X150667261Y-74407785D01*
X150708339Y-74710085D01*
X150743204Y-75032983D01*
X150767954Y-75344126D01*
X150778689Y-75611162D01*
X150778822Y-75622181D01*
X150791656Y-75741874D01*
X150849139Y-75790207D01*
X150986688Y-75799203D01*
X151192739Y-75799203D01*
X151154317Y-75524374D01*
X151132224Y-75408004D01*
X151076210Y-75180798D01*
X150999211Y-74907270D01*
X150981201Y-74849355D01*
X151074499Y-74849355D01*
X151083764Y-74906227D01*
X151109456Y-74884311D01*
X151118700Y-74850853D01*
X151104888Y-74773415D01*
X151085137Y-74774311D01*
X151074499Y-74849355D01*
X150981201Y-74849355D01*
X150911033Y-74623718D01*
X150836034Y-74405858D01*
X150743773Y-74164341D01*
X150691896Y-74045593D01*
X150829613Y-74045593D01*
X150849412Y-74161573D01*
X150910108Y-74352368D01*
X150973984Y-74515959D01*
X151032661Y-74628576D01*
X151059390Y-74631557D01*
X151048827Y-74527088D01*
X150995634Y-74317356D01*
X150964199Y-74221890D01*
X150958024Y-74208087D01*
X151052604Y-74208087D01*
X151096251Y-74381663D01*
X151110917Y-74442345D01*
X151161612Y-74681010D01*
X151211889Y-74953360D01*
X151255661Y-75222717D01*
X151286843Y-75452398D01*
X151299348Y-75605723D01*
X151301461Y-75660429D01*
X151327988Y-75753517D01*
X151408263Y-75817023D01*
X151571399Y-75880335D01*
X151653230Y-75910827D01*
X151830692Y-75993495D01*
X151951820Y-76072244D01*
X152024787Y-76132649D01*
X152045544Y-76115135D01*
X152024300Y-76000138D01*
X152021310Y-75988191D01*
X151974891Y-75858627D01*
X151889194Y-75655222D01*
X151775327Y-75403454D01*
X151644399Y-75128800D01*
X151621641Y-75082574D01*
X151484742Y-74816538D01*
X151356055Y-74584891D01*
X151249127Y-74411136D01*
X151177505Y-74318778D01*
X151052604Y-74208087D01*
X150958024Y-74208087D01*
X150901985Y-74082825D01*
X150848499Y-74018559D01*
X150829613Y-74045593D01*
X150691896Y-74045593D01*
X150661834Y-73976780D01*
X150601883Y-73871554D01*
X150556236Y-73817524D01*
X150524638Y-73793653D01*
X150378278Y-73793653D01*
X150352500Y-73760567D01*
X150283205Y-73723916D01*
X150226434Y-73742158D01*
X150104681Y-73742158D01*
X150097727Y-73729521D01*
X150057403Y-73691681D01*
X149982389Y-73636485D01*
X149908435Y-73595764D01*
X149871296Y-73612924D01*
X149867654Y-73701818D01*
X149780519Y-73701818D01*
X149760037Y-73653223D01*
X149749794Y-73687358D01*
X149632081Y-73687358D01*
X149620819Y-73658429D01*
X149603317Y-73634989D01*
X149583317Y-73638812D01*
X149113352Y-73638812D01*
X149160592Y-73629499D01*
X149274916Y-73602762D01*
X149537622Y-73560407D01*
X149773606Y-73543398D01*
X149962746Y-73531052D01*
X150108123Y-73476902D01*
X150223278Y-73358187D01*
X150341205Y-73152164D01*
X150360554Y-73113119D01*
X150400288Y-73009337D01*
X150377543Y-72975187D01*
X150280848Y-73008544D01*
X150098730Y-73107287D01*
X150007918Y-73156652D01*
X149908609Y-73200882D01*
X149883831Y-73195551D01*
X149923362Y-73159045D01*
X150042415Y-73077805D01*
X150206113Y-72980761D01*
X150312680Y-72918705D01*
X150442682Y-72818097D01*
X150522831Y-72693957D01*
X150589092Y-72501253D01*
X150634238Y-72365035D01*
X150680241Y-72265407D01*
X150707554Y-72255095D01*
X150710149Y-72265588D01*
X150699277Y-72386663D01*
X150648121Y-72576079D01*
X150568541Y-72804261D01*
X150472394Y-73041631D01*
X150371541Y-73258613D01*
X150277840Y-73425628D01*
X150203150Y-73513102D01*
X150186760Y-73525766D01*
X150144191Y-73613628D01*
X150146530Y-73634304D01*
X150179070Y-73642836D01*
X150234856Y-73632723D01*
X150350587Y-73659908D01*
X150393041Y-73673524D01*
X150475736Y-73670692D01*
X150564336Y-73607192D01*
X150688848Y-73465805D01*
X150847471Y-73242367D01*
X151011766Y-72950805D01*
X151143608Y-72654978D01*
X151220491Y-72400000D01*
X151223542Y-72384886D01*
X151263289Y-72262263D01*
X151307806Y-72211959D01*
X151310920Y-72211973D01*
G37*
G36*
X158065809Y-72472324D02*
G01*
X158099772Y-72761618D01*
X158331207Y-72726434D01*
X158394421Y-72715627D01*
X158469891Y-72694615D01*
X158446925Y-72682154D01*
X158424623Y-72680164D01*
X158368461Y-72661784D01*
X158417995Y-72616971D01*
X158432283Y-72607640D01*
X158475601Y-72568151D01*
X158417995Y-72557733D01*
X158404469Y-72555446D01*
X158419973Y-72525383D01*
X158520135Y-72472479D01*
X158537044Y-72464838D01*
X158670125Y-72383220D01*
X158743296Y-72301167D01*
X158788489Y-72251368D01*
X158901379Y-72224765D01*
X159104026Y-72222662D01*
X159430524Y-72233365D01*
X159126765Y-72254615D01*
X159009419Y-72265933D01*
X158873401Y-72289987D01*
X158818580Y-72316236D01*
X158804523Y-72423461D01*
X158755909Y-72607341D01*
X158672087Y-72714973D01*
X158536163Y-72773723D01*
X158405791Y-72820411D01*
X158356669Y-72883745D01*
X158418247Y-72962097D01*
X158591571Y-73060886D01*
X158625277Y-73077327D01*
X158754851Y-73148847D01*
X158791348Y-73194407D01*
X158747353Y-73227466D01*
X158715680Y-73234526D01*
X158575371Y-73224089D01*
X158404399Y-73174719D01*
X158336348Y-73149122D01*
X158208828Y-73108770D01*
X158417995Y-73108770D01*
X158446925Y-73137700D01*
X158475854Y-73108770D01*
X158446925Y-73079841D01*
X158417995Y-73108770D01*
X158208828Y-73108770D01*
X158206682Y-73108091D01*
X158146056Y-73101058D01*
X158144106Y-73105717D01*
X158146684Y-73193992D01*
X158168434Y-73382266D01*
X158207596Y-73659098D01*
X158262409Y-74013042D01*
X158331113Y-74432657D01*
X158411950Y-74906497D01*
X158503159Y-75423121D01*
X158535602Y-75605132D01*
X158629312Y-76149058D01*
X158703757Y-76617165D01*
X158763059Y-77038115D01*
X158811342Y-77440569D01*
X158852729Y-77853189D01*
X158864806Y-77955937D01*
X158933228Y-78283308D01*
X159034307Y-78567318D01*
X159201273Y-79020591D01*
X159312593Y-79594066D01*
X159335563Y-80195991D01*
X159269462Y-80800713D01*
X159113567Y-81382574D01*
X159105345Y-81405458D01*
X158815550Y-82103351D01*
X158482968Y-82704653D01*
X158100324Y-83222575D01*
X157975021Y-83364439D01*
X157778307Y-83572003D01*
X157582089Y-83764462D01*
X157405492Y-83923996D01*
X157267640Y-84032784D01*
X157187657Y-84073007D01*
X157184738Y-84072957D01*
X157151454Y-84037689D01*
X157195728Y-83949108D01*
X157304837Y-83825025D01*
X157466058Y-83683251D01*
X157819426Y-83380397D01*
X158158600Y-83021052D01*
X158445888Y-82623252D01*
X158699556Y-82161255D01*
X158937875Y-81609320D01*
X159090106Y-81175850D01*
X159215966Y-80653399D01*
X159262229Y-80156421D01*
X159233231Y-79656239D01*
X159188372Y-79330388D01*
X159149755Y-79109813D01*
X159118311Y-79004180D01*
X159093752Y-79013615D01*
X159075792Y-79138246D01*
X159064147Y-79378199D01*
X159058529Y-79733599D01*
X159058464Y-79743251D01*
X159050892Y-80164090D01*
X159034747Y-80469913D01*
X159009945Y-80661105D01*
X158976404Y-80738048D01*
X158934042Y-80701124D01*
X158882776Y-80550718D01*
X158881098Y-80543622D01*
X158938724Y-80543622D01*
X158942900Y-80574252D01*
X158977297Y-80582195D01*
X158984221Y-80573714D01*
X158977297Y-80505050D01*
X158959894Y-80495998D01*
X158938724Y-80543622D01*
X158881098Y-80543622D01*
X158869639Y-80495178D01*
X158847786Y-80314192D01*
X158860223Y-80179160D01*
X158890198Y-80103820D01*
X158914400Y-80112663D01*
X158946295Y-80225399D01*
X158951019Y-80240140D01*
X158964473Y-80220194D01*
X158973503Y-80104443D01*
X158977343Y-79908208D01*
X158975225Y-79646811D01*
X158966275Y-79343566D01*
X158946052Y-79047350D01*
X158914162Y-78835927D01*
X158868692Y-78692141D01*
X158776092Y-78489636D01*
X158800592Y-78721071D01*
X158825091Y-78952506D01*
X158735765Y-78722469D01*
X158714806Y-78670796D01*
X158644117Y-78521848D01*
X158586436Y-78433175D01*
X158580531Y-78427610D01*
X158556694Y-78431832D01*
X158587932Y-78536796D01*
X158622077Y-78638014D01*
X158646991Y-78751543D01*
X158639427Y-78799305D01*
X158598338Y-78758967D01*
X158581142Y-78736222D01*
X158536717Y-78732447D01*
X158508336Y-78817962D01*
X158496641Y-78973427D01*
X158502277Y-79179502D01*
X158525889Y-79416848D01*
X158568120Y-79666124D01*
X158573588Y-79747491D01*
X158544189Y-79769003D01*
X158520101Y-79729039D01*
X158484085Y-79599419D01*
X158454704Y-79418090D01*
X158445320Y-79342767D01*
X158409924Y-79106009D01*
X158368875Y-78881204D01*
X158327642Y-78694007D01*
X158291694Y-78570073D01*
X158266498Y-78535059D01*
X158261456Y-78561648D01*
X158270085Y-78675503D01*
X158297495Y-78842810D01*
X158303005Y-78871196D01*
X158349315Y-79134944D01*
X158380681Y-79360300D01*
X158395390Y-79528451D01*
X158391732Y-79620583D01*
X158367995Y-79617882D01*
X158339817Y-79540006D01*
X158303938Y-79374447D01*
X158274105Y-79169566D01*
X158247634Y-78998396D01*
X158213519Y-78875307D01*
X158180890Y-78840293D01*
X158173127Y-78850214D01*
X158149239Y-78948229D01*
X158131028Y-79123505D01*
X158121939Y-79346467D01*
X158121870Y-79351132D01*
X158112571Y-79640395D01*
X158095000Y-79943820D01*
X158072902Y-80196470D01*
X158030629Y-80572552D01*
X158021369Y-80225399D01*
X158020691Y-80202542D01*
X158000309Y-79896988D01*
X157961447Y-79580889D01*
X157908782Y-79275222D01*
X157846993Y-79000964D01*
X157780757Y-78779093D01*
X157714752Y-78630588D01*
X157653657Y-78576424D01*
X157639790Y-78581460D01*
X157617226Y-78666886D01*
X157630715Y-78851253D01*
X157636082Y-78893641D01*
X157656598Y-79105514D01*
X157676028Y-79372415D01*
X157690782Y-79646811D01*
X157695874Y-79785321D01*
X157698004Y-79930434D01*
X157693625Y-79984839D01*
X157683070Y-79936105D01*
X157661371Y-79803537D01*
X157637911Y-79766123D01*
X157605665Y-79820388D01*
X157579142Y-79847504D01*
X157561731Y-79768112D01*
X157554180Y-79576137D01*
X157554096Y-79570189D01*
X157529933Y-79335358D01*
X157472209Y-79082860D01*
X157392099Y-78845908D01*
X157300778Y-78657713D01*
X157209421Y-78551487D01*
X157163035Y-78532539D01*
X157151772Y-78576673D01*
X157206228Y-78710410D01*
X157238786Y-78783456D01*
X157223318Y-78782598D01*
X157144440Y-78695344D01*
X157021527Y-78553900D01*
X157051226Y-78695344D01*
X157061355Y-78749967D01*
X157087336Y-78924815D01*
X157111636Y-79126082D01*
X157142346Y-79415376D01*
X156998924Y-79013104D01*
X156990467Y-78989517D01*
X156915433Y-78791080D01*
X156851691Y-78639990D01*
X156832893Y-78605353D01*
X156913667Y-78605353D01*
X156942597Y-78634283D01*
X156971526Y-78605353D01*
X156942597Y-78576424D01*
X156913667Y-78605353D01*
X156832893Y-78605353D01*
X156812261Y-78567338D01*
X156811143Y-78566339D01*
X156791688Y-78601218D01*
X156781036Y-78724869D01*
X156781471Y-78911751D01*
X156793923Y-79299659D01*
X156722073Y-78981435D01*
X156690091Y-78849599D01*
X156643668Y-78687106D01*
X156608311Y-78596320D01*
X156580319Y-78567661D01*
X156480396Y-78554257D01*
X156371919Y-78608266D01*
X156299505Y-78712853D01*
X156278484Y-78775645D01*
X156251988Y-78801542D01*
X156214868Y-78721071D01*
X156191231Y-78667980D01*
X156171296Y-78670472D01*
X156161503Y-78778930D01*
X156155489Y-78865168D01*
X156139675Y-78900515D01*
X156107234Y-78836788D01*
X156099745Y-78821414D01*
X156073135Y-78831149D01*
X156049040Y-78951070D01*
X156026822Y-79183941D01*
X156025837Y-79197096D01*
X156002088Y-79466368D01*
X155973122Y-79731220D01*
X155944983Y-79936105D01*
X155938013Y-79978270D01*
X155917793Y-80088108D01*
X155902836Y-80122846D01*
X155889645Y-80072412D01*
X155874721Y-79926734D01*
X155854567Y-79675741D01*
X155829996Y-79387824D01*
X155799070Y-79113755D01*
X155767046Y-78937820D01*
X155732002Y-78850151D01*
X155692017Y-78840877D01*
X155676210Y-78863865D01*
X155650551Y-78976904D01*
X155640137Y-79143962D01*
X155639320Y-79199989D01*
X155625999Y-79435006D01*
X155601697Y-79644308D01*
X155576542Y-79770408D01*
X155550880Y-79811690D01*
X155519612Y-79760026D01*
X155502146Y-79690354D01*
X155481139Y-79520903D01*
X155471265Y-79317538D01*
X155470534Y-79274095D01*
X155458987Y-79070194D01*
X155437987Y-78974160D01*
X155411188Y-78979936D01*
X155382243Y-79081463D01*
X155354806Y-79272682D01*
X155332533Y-79547537D01*
X155314909Y-79797144D01*
X155286440Y-80116150D01*
X155251604Y-80451633D01*
X155213125Y-80781633D01*
X155173725Y-81084188D01*
X155136124Y-81337339D01*
X155103045Y-81519123D01*
X155077210Y-81607580D01*
X155068905Y-81615019D01*
X155023624Y-81579895D01*
X154969421Y-81466166D01*
X154943825Y-81399804D01*
X154905889Y-81337122D01*
X154889345Y-81382574D01*
X154883780Y-81435023D01*
X154864944Y-81445871D01*
X154821979Y-81353645D01*
X154800903Y-81292977D01*
X154768137Y-81180069D01*
X154830751Y-81180069D01*
X154834927Y-81210699D01*
X154869324Y-81218641D01*
X154876249Y-81210161D01*
X154869324Y-81141496D01*
X154851921Y-81132444D01*
X154830751Y-81180069D01*
X154768137Y-81180069D01*
X154751401Y-81122399D01*
X154713378Y-80977563D01*
X154772893Y-80977563D01*
X154801822Y-81006492D01*
X154830751Y-80977563D01*
X154801822Y-80948634D01*
X154772893Y-80977563D01*
X154713378Y-80977563D01*
X154690607Y-80890824D01*
X154627182Y-80630410D01*
X154581521Y-80444377D01*
X154534050Y-80273915D01*
X154500997Y-80182991D01*
X154487640Y-80188332D01*
X154495466Y-80266010D01*
X154525734Y-80439906D01*
X154573049Y-80675119D01*
X154631334Y-80943787D01*
X154694509Y-81218043D01*
X154756499Y-81470025D01*
X154811225Y-81671868D01*
X154824698Y-81736632D01*
X154810303Y-81755128D01*
X154777132Y-81690154D01*
X154723081Y-81534501D01*
X154657906Y-81316841D01*
X154588892Y-81063976D01*
X154523325Y-80802708D01*
X154468489Y-80559839D01*
X154431670Y-80362171D01*
X154398042Y-80115952D01*
X154370741Y-79883068D01*
X154430308Y-79883068D01*
X154439573Y-79939940D01*
X154465264Y-79918024D01*
X154474508Y-79884566D01*
X154460696Y-79807128D01*
X154440946Y-79808024D01*
X154430308Y-79883068D01*
X154370741Y-79883068D01*
X154362893Y-79816123D01*
X154334339Y-79531094D01*
X154329727Y-79481106D01*
X154305233Y-79282165D01*
X154495003Y-79282165D01*
X154505576Y-79500684D01*
X154547550Y-79782818D01*
X154615452Y-80100591D01*
X154703807Y-80426025D01*
X154807143Y-80731142D01*
X154854440Y-80857759D01*
X154931436Y-81077439D01*
X154984536Y-81247637D01*
X155004328Y-81339322D01*
X155007821Y-81382226D01*
X155029437Y-81405680D01*
X155037512Y-81391298D01*
X155064822Y-81280556D01*
X155096101Y-81084930D01*
X155129003Y-80827183D01*
X155161182Y-80530077D01*
X155190293Y-80216375D01*
X155213990Y-79908839D01*
X155229929Y-79630231D01*
X155235763Y-79403315D01*
X155233621Y-79219290D01*
X155224660Y-79008404D01*
X155210325Y-78865699D01*
X155192369Y-78814936D01*
X155146945Y-78828943D01*
X155017709Y-78876650D01*
X154843673Y-78945118D01*
X154790522Y-78967451D01*
X154591650Y-79079708D01*
X154506154Y-79192661D01*
X154495003Y-79282165D01*
X154305233Y-79282165D01*
X154303668Y-79269450D01*
X154296293Y-79241800D01*
X154367881Y-79241800D01*
X154396811Y-79270729D01*
X154425740Y-79241800D01*
X154396811Y-79212870D01*
X154367881Y-79241800D01*
X154296293Y-79241800D01*
X154277080Y-79169771D01*
X154250413Y-79183941D01*
X154223306Y-79244490D01*
X154196318Y-79236641D01*
X154161904Y-79126082D01*
X154116243Y-78952506D01*
X154070478Y-79122880D01*
X154049194Y-79243840D01*
X154029808Y-79483125D01*
X154019992Y-79785614D01*
X154019328Y-80121675D01*
X154027399Y-80461676D01*
X154043787Y-80775985D01*
X154068076Y-81034969D01*
X154099849Y-81208998D01*
X154134489Y-81320726D01*
X154172332Y-81419875D01*
X154189131Y-81430700D01*
X154196714Y-81384344D01*
X154233067Y-81262097D01*
X154247148Y-81200049D01*
X154204137Y-81202921D01*
X154188725Y-81208115D01*
X154153019Y-81162581D01*
X154141623Y-81044630D01*
X154155173Y-80885692D01*
X154194305Y-80717198D01*
X154212400Y-80673897D01*
X154231165Y-80677137D01*
X154246365Y-80754734D01*
X154259101Y-80917027D01*
X154270475Y-81174355D01*
X154281587Y-81537059D01*
X154290476Y-81865119D01*
X154192488Y-81681705D01*
X154192291Y-81681337D01*
X154110114Y-81479381D01*
X154026609Y-81191832D01*
X153946640Y-80846774D01*
X153875069Y-80472290D01*
X153816760Y-80096467D01*
X153776574Y-79747388D01*
X153759375Y-79453137D01*
X153770026Y-79241800D01*
X153779193Y-79177817D01*
X153775538Y-79118297D01*
X153736851Y-79155012D01*
X153724268Y-79172330D01*
X153684226Y-79203698D01*
X153674462Y-79128149D01*
X153671976Y-79068925D01*
X153647482Y-79048394D01*
X153572471Y-79115603D01*
X153531676Y-79172554D01*
X153490655Y-79295049D01*
X153461585Y-79489959D01*
X153440151Y-79778912D01*
X153429450Y-79959757D01*
X153415561Y-80134563D01*
X153401731Y-80210978D01*
X153385626Y-80199264D01*
X153364914Y-80109681D01*
X153352976Y-80052437D01*
X153308222Y-79873625D01*
X153249442Y-79667118D01*
X153185491Y-79460796D01*
X153125220Y-79282537D01*
X153077486Y-79160217D01*
X153051141Y-79121714D01*
X153048305Y-79165827D01*
X153054848Y-79304617D01*
X153070762Y-79514104D01*
X153094427Y-79770028D01*
X153108891Y-79899908D01*
X153176838Y-80348525D01*
X153272214Y-80829575D01*
X153386402Y-81306074D01*
X153510784Y-81741038D01*
X153636743Y-82097483D01*
X153706290Y-82276525D01*
X153749783Y-82404244D01*
X153757797Y-82452962D01*
X153745943Y-82446042D01*
X153690308Y-82363679D01*
X153611136Y-82209307D01*
X153521383Y-82009431D01*
X153434002Y-81790552D01*
X153389494Y-81674354D01*
X153358596Y-81609326D01*
X153352399Y-81635238D01*
X153370016Y-81759642D01*
X153410559Y-81990091D01*
X153420223Y-82048706D01*
X153422906Y-82129797D01*
X153391645Y-82105142D01*
X153363417Y-82041880D01*
X153312184Y-81853470D01*
X153256382Y-81572765D01*
X153197574Y-81214203D01*
X153137321Y-80792218D01*
X153077185Y-80321249D01*
X153018727Y-79815731D01*
X152963510Y-79290102D01*
X152913094Y-78758798D01*
X152874016Y-78295246D01*
X152978292Y-78295246D01*
X152997780Y-78480963D01*
X153048163Y-78727194D01*
X153126949Y-79014921D01*
X153203368Y-79250798D01*
X153280969Y-79445258D01*
X153337983Y-79526065D01*
X153374361Y-79493157D01*
X153390050Y-79346467D01*
X153408539Y-79126564D01*
X153464672Y-78951383D01*
X153557859Y-78884355D01*
X153619620Y-78875090D01*
X153760364Y-78846996D01*
X153784666Y-78842031D01*
X153827296Y-78846210D01*
X153852601Y-78888241D01*
X153863748Y-78987567D01*
X153863899Y-79163631D01*
X153856222Y-79435876D01*
X153851547Y-79640638D01*
X153851878Y-79845425D01*
X153858379Y-79978632D01*
X153870510Y-80018248D01*
X153878108Y-80002138D01*
X153901769Y-79893834D01*
X153929162Y-79710412D01*
X153955779Y-79480326D01*
X153966329Y-79380018D01*
X153991362Y-79168900D01*
X154013320Y-79017864D01*
X154028397Y-78954480D01*
X154086299Y-78928941D01*
X154208888Y-78893078D01*
X154265805Y-78880629D01*
X154348164Y-78887787D01*
X154369721Y-78960698D01*
X154370706Y-78992235D01*
X154386929Y-79035246D01*
X154442045Y-78976357D01*
X154494413Y-78928739D01*
X154584118Y-78908611D01*
X154649783Y-78903892D01*
X154794721Y-78860312D01*
X154976311Y-78785954D01*
X155064086Y-78750000D01*
X155293622Y-78750000D01*
X155297797Y-78780631D01*
X155332194Y-78788573D01*
X155339119Y-78780093D01*
X155332194Y-78711428D01*
X155314791Y-78702376D01*
X155293622Y-78750000D01*
X155064086Y-78750000D01*
X155127076Y-78724198D01*
X155285918Y-78676749D01*
X155379696Y-78670944D01*
X155400834Y-78685322D01*
X155464902Y-78786911D01*
X155516501Y-78943326D01*
X155570523Y-79183941D01*
X155577605Y-78894647D01*
X155585559Y-78749012D01*
X155605908Y-78671456D01*
X155640774Y-78692141D01*
X155642658Y-78695048D01*
X155686647Y-78746678D01*
X155697747Y-78696963D01*
X155700465Y-78658108D01*
X155723629Y-78636795D01*
X155765360Y-78709707D01*
X155819581Y-78863881D01*
X155880217Y-79086350D01*
X155975013Y-79473235D01*
X155981470Y-78995900D01*
X155983152Y-78916534D01*
X155993777Y-78715140D01*
X156010766Y-78576984D01*
X156031321Y-78528304D01*
X156058404Y-78530128D01*
X156185526Y-78514940D01*
X156357094Y-78479514D01*
X156525611Y-78434527D01*
X156643580Y-78390658D01*
X156738992Y-78369856D01*
X156835915Y-78441668D01*
X156879683Y-78493584D01*
X156908756Y-78506208D01*
X156903332Y-78473047D01*
X157318024Y-78473047D01*
X157324362Y-78542366D01*
X157395003Y-78688126D01*
X157432818Y-78755388D01*
X157500347Y-78864823D01*
X157533275Y-78901843D01*
X157534797Y-78895475D01*
X157522548Y-78814437D01*
X157487967Y-78674423D01*
X157475943Y-78635643D01*
X157414499Y-78510975D01*
X157386990Y-78489636D01*
X157607972Y-78489636D01*
X157636902Y-78518565D01*
X157665831Y-78489636D01*
X157636902Y-78460706D01*
X157607972Y-78489636D01*
X157386990Y-78489636D01*
X157349695Y-78460706D01*
X157318024Y-78473047D01*
X156903332Y-78473047D01*
X156893827Y-78414935D01*
X156885274Y-78368267D01*
X156900296Y-78308233D01*
X156990786Y-78323485D01*
X157090292Y-78346774D01*
X157275590Y-78377295D01*
X157492255Y-78404436D01*
X157499124Y-78405166D01*
X157674764Y-78426070D01*
X157780614Y-78443050D01*
X157793978Y-78452492D01*
X157750117Y-78479649D01*
X157777799Y-78569417D01*
X157777915Y-78569634D01*
X157822767Y-78679021D01*
X157884326Y-78860782D01*
X157949301Y-79075681D01*
X157989103Y-79208267D01*
X158032314Y-79321118D01*
X158056657Y-79330010D01*
X158062647Y-79232311D01*
X158050800Y-79025387D01*
X158021632Y-78706606D01*
X158011480Y-78605353D01*
X158128701Y-78605353D01*
X158157631Y-78634283D01*
X158186560Y-78605353D01*
X158157631Y-78576424D01*
X158128701Y-78605353D01*
X158011480Y-78605353D01*
X157994078Y-78431777D01*
X158186560Y-78431777D01*
X158215489Y-78460706D01*
X158244419Y-78431777D01*
X158215489Y-78402848D01*
X158186560Y-78431777D01*
X157994078Y-78431777D01*
X157988277Y-78373918D01*
X158070843Y-78373918D01*
X158099772Y-78402848D01*
X158128701Y-78373918D01*
X158099772Y-78344989D01*
X158070843Y-78373918D01*
X157988277Y-78373918D01*
X157979576Y-78287130D01*
X158136105Y-78287130D01*
X158248465Y-78305851D01*
X158321818Y-78359454D01*
X158343116Y-78399093D01*
X158355569Y-78355104D01*
X158353595Y-78339427D01*
X158312160Y-78232971D01*
X158227883Y-78065462D01*
X158114852Y-77865557D01*
X157892595Y-77491442D01*
X158030684Y-77491442D01*
X158063968Y-77633742D01*
X158188524Y-77824260D01*
X158304293Y-77968907D01*
X158299707Y-77884504D01*
X158357468Y-77884504D01*
X158381866Y-78107286D01*
X158438093Y-78255907D01*
X158505378Y-78321316D01*
X158558961Y-78293086D01*
X158608405Y-78254238D01*
X158692937Y-78298785D01*
X158710042Y-78311662D01*
X158742049Y-78318467D01*
X158760140Y-78276034D01*
X158765728Y-78167817D01*
X158760222Y-77977271D01*
X158745033Y-77687849D01*
X158739613Y-77595333D01*
X158715868Y-77268381D01*
X158688867Y-77047991D01*
X158655409Y-76926743D01*
X158612291Y-76897218D01*
X158556310Y-76951995D01*
X158484264Y-77083653D01*
X158460805Y-77137898D01*
X158398382Y-77363140D01*
X158363455Y-77624232D01*
X158357468Y-77884504D01*
X158299707Y-77884504D01*
X158288821Y-77684136D01*
X158281464Y-77589539D01*
X158246419Y-77433090D01*
X158181405Y-77377382D01*
X158079116Y-77412966D01*
X158030684Y-77491442D01*
X157892595Y-77491442D01*
X157869568Y-77452682D01*
X157833083Y-77677139D01*
X157813407Y-77768979D01*
X157723118Y-77944731D01*
X157566908Y-78031386D01*
X157331838Y-78038267D01*
X157249511Y-78026110D01*
X157108709Y-77978483D01*
X156966757Y-77881931D01*
X156788379Y-77715502D01*
X156772812Y-77700000D01*
X156743718Y-77672321D01*
X156885960Y-77672321D01*
X156938836Y-77741293D01*
X157103266Y-77839533D01*
X157173632Y-77873563D01*
X157325121Y-77914761D01*
X157408733Y-77869312D01*
X157434396Y-77734052D01*
X157434122Y-77728516D01*
X157492849Y-77728516D01*
X157507769Y-77834532D01*
X157548078Y-77882119D01*
X157558495Y-77880496D01*
X157629154Y-77819472D01*
X157694777Y-77707686D01*
X157723690Y-77596629D01*
X157699982Y-77554205D01*
X157616894Y-77536320D01*
X157530827Y-77573539D01*
X157506398Y-77619191D01*
X157492849Y-77728516D01*
X157434122Y-77728516D01*
X157431483Y-77675183D01*
X157402010Y-77621192D01*
X157316180Y-77602305D01*
X157144484Y-77605429D01*
X157117587Y-77606745D01*
X156945317Y-77628757D01*
X156885960Y-77672321D01*
X156743718Y-77672321D01*
X156623517Y-77557964D01*
X156506033Y-77457412D01*
X156444617Y-77419249D01*
X156428909Y-77413150D01*
X156354968Y-77342146D01*
X156259713Y-77217050D01*
X156222709Y-77164761D01*
X156141463Y-77066921D01*
X156097470Y-77039698D01*
X156030355Y-77063731D01*
X155900094Y-77087544D01*
X155788823Y-77115612D01*
X155728091Y-77186929D01*
X155695464Y-77337221D01*
X155691467Y-77363091D01*
X155647184Y-77550213D01*
X155589610Y-77698871D01*
X155506074Y-77786522D01*
X155348817Y-77896005D01*
X155159367Y-78001485D01*
X154977203Y-78081100D01*
X154841801Y-78112989D01*
X154811990Y-78118455D01*
X154798075Y-78165350D01*
X154801505Y-78197313D01*
X154739964Y-78251729D01*
X154697699Y-78276893D01*
X154680464Y-78335862D01*
X154685273Y-78347096D01*
X154654660Y-78426427D01*
X154547007Y-78520636D01*
X154389603Y-78610059D01*
X154209738Y-78675034D01*
X154064666Y-78696323D01*
X153768517Y-78664372D01*
X153478401Y-78547634D01*
X153232211Y-78358384D01*
X153195906Y-78321495D01*
X153452281Y-78321495D01*
X153514788Y-78391112D01*
X153592683Y-78440254D01*
X153764302Y-78494165D01*
X153954329Y-78509899D01*
X154130281Y-78489286D01*
X154259673Y-78434153D01*
X154310023Y-78346331D01*
X154309660Y-78332777D01*
X154296622Y-78296097D01*
X154367881Y-78296097D01*
X154371039Y-78370052D01*
X154399818Y-78385186D01*
X154483599Y-78316059D01*
X154561590Y-78240231D01*
X154599316Y-78191375D01*
X154577788Y-78179813D01*
X154483599Y-78171413D01*
X154404221Y-78193597D01*
X154367881Y-78296097D01*
X154296622Y-78296097D01*
X154291639Y-78282079D01*
X154229193Y-78253452D01*
X154098586Y-78241018D01*
X153876082Y-78238902D01*
X153797015Y-78239631D01*
X153583217Y-78250042D01*
X153471698Y-78275901D01*
X153452281Y-78321495D01*
X153195906Y-78321495D01*
X153180607Y-78305950D01*
X153075327Y-78209610D01*
X153016401Y-78171413D01*
X152992193Y-78189063D01*
X152978292Y-78295246D01*
X152874016Y-78295246D01*
X152869043Y-78236256D01*
X152832917Y-77736912D01*
X152806279Y-77275204D01*
X152790690Y-76865566D01*
X152790529Y-76847043D01*
X152870863Y-76847043D01*
X152873296Y-77186876D01*
X152873901Y-77201755D01*
X152890024Y-77481387D01*
X152914073Y-77670968D01*
X152950707Y-77795035D01*
X153004588Y-77878127D01*
X153022023Y-77896511D01*
X153137436Y-77979541D01*
X153230899Y-77990963D01*
X153272631Y-77925513D01*
X153287161Y-77906387D01*
X153326423Y-77968907D01*
X153351011Y-78023917D01*
X153373390Y-78043104D01*
X153380216Y-77951812D01*
X153380507Y-77946158D01*
X153426838Y-77812505D01*
X153526299Y-77676983D01*
X153548273Y-77654047D01*
X153609609Y-77567913D01*
X153598623Y-77531050D01*
X153586372Y-77511298D01*
X153659111Y-77464350D01*
X153743298Y-77412478D01*
X153789294Y-77354364D01*
X153804092Y-77334647D01*
X153882867Y-77343070D01*
X153916025Y-77359642D01*
X153913686Y-77396989D01*
X153810544Y-77452273D01*
X153644647Y-77525568D01*
X153800532Y-77530267D01*
X153953331Y-77571690D01*
X154102839Y-77665148D01*
X154190174Y-77751455D01*
X154212776Y-77822780D01*
X154163925Y-77907642D01*
X154129315Y-77951590D01*
X154087664Y-77982467D01*
X154078587Y-77922107D01*
X154088946Y-77871528D01*
X154150911Y-77822335D01*
X154163440Y-77821139D01*
X154177548Y-77790447D01*
X154120905Y-77732956D01*
X154022046Y-77667981D01*
X153909503Y-77614833D01*
X153811813Y-77592825D01*
X153775085Y-77595630D01*
X153617210Y-77663388D01*
X153492682Y-77792719D01*
X153442141Y-77944914D01*
X153442405Y-77962625D01*
X153455999Y-78018331D01*
X153508675Y-78045035D01*
X153625786Y-78048571D01*
X153832688Y-78034772D01*
X154031712Y-78020852D01*
X154265880Y-78008371D01*
X154441101Y-78003302D01*
X154606095Y-77982152D01*
X154693191Y-77913445D01*
X154719588Y-77871091D01*
X154811427Y-77824260D01*
X154847914Y-77832551D01*
X154855850Y-77888317D01*
X154855141Y-77889487D01*
X154866547Y-77923135D01*
X154950870Y-77912147D01*
X155078666Y-77864582D01*
X155220492Y-77788500D01*
X155280100Y-77747748D01*
X155434739Y-77582942D01*
X155508201Y-77368260D01*
X155510333Y-77079625D01*
X155465368Y-76811232D01*
X155317931Y-76439543D01*
X155081292Y-76136259D01*
X154760733Y-75909622D01*
X154572778Y-75840423D01*
X154250562Y-75802321D01*
X153903001Y-75834673D01*
X153565813Y-75933069D01*
X153274717Y-76093097D01*
X153102779Y-76236901D01*
X152975669Y-76399127D01*
X152901675Y-76593483D01*
X152870863Y-76847043D01*
X152790529Y-76847043D01*
X152787712Y-76522438D01*
X152800936Y-76144141D01*
X152833624Y-75651765D01*
X152882551Y-75098981D01*
X152944764Y-74513410D01*
X153017314Y-73922669D01*
X153097248Y-73354379D01*
X153181615Y-72836159D01*
X153194691Y-72761438D01*
X153231487Y-72541545D01*
X153257406Y-72371894D01*
X153267499Y-72284283D01*
X153272250Y-72257663D01*
X153330322Y-72211959D01*
X153359702Y-72229483D01*
X153361802Y-72313212D01*
X153336645Y-72423337D01*
X153297867Y-72636187D01*
X153250555Y-72924086D01*
X153197680Y-73266098D01*
X153142214Y-73641281D01*
X153087128Y-74028698D01*
X153035395Y-74407408D01*
X152989985Y-74756473D01*
X152953870Y-75054954D01*
X152930022Y-75281911D01*
X152921412Y-75416404D01*
X152923171Y-75450067D01*
X152954594Y-75484437D01*
X153049603Y-75445375D01*
X153077923Y-75430515D01*
X153129840Y-75411503D01*
X153111898Y-75451170D01*
X153020673Y-75563496D01*
X153020580Y-75563607D01*
X152898865Y-75761885D01*
X152863553Y-75988569D01*
X152863553Y-76226914D01*
X153051594Y-76045262D01*
X153056229Y-76040802D01*
X153371521Y-75808234D01*
X153736795Y-75672353D01*
X154165376Y-75628168D01*
X154381353Y-75638216D01*
X154734466Y-75715225D01*
X155034010Y-75876842D01*
X155296355Y-76133407D01*
X155537870Y-76495262D01*
X155547469Y-76512105D01*
X155639194Y-76649235D01*
X155725781Y-76707368D01*
X155843280Y-76712100D01*
X155932925Y-76698735D01*
X155996966Y-76649333D01*
X155999374Y-76531623D01*
X155999147Y-76529452D01*
X156002877Y-76424649D01*
X156032344Y-76402478D01*
X156242544Y-76402478D01*
X156252693Y-76702289D01*
X156340259Y-76982941D01*
X156507733Y-77215859D01*
X156538377Y-77245021D01*
X156632721Y-77326154D01*
X156673460Y-77331679D01*
X156682232Y-77268069D01*
X156685307Y-77237558D01*
X156739048Y-77237558D01*
X156763964Y-77364027D01*
X156831611Y-77441988D01*
X156883761Y-77458982D01*
X157012318Y-77477321D01*
X157100453Y-77460672D01*
X157112175Y-77412780D01*
X157102477Y-77376374D01*
X157148434Y-77301472D01*
X157152297Y-77299052D01*
X157195454Y-77244759D01*
X157148762Y-77163294D01*
X157142507Y-77156231D01*
X157027277Y-77090518D01*
X156885638Y-77072436D01*
X156778663Y-77110668D01*
X156766846Y-77125060D01*
X156739048Y-77237558D01*
X156685307Y-77237558D01*
X156689021Y-77200713D01*
X156761141Y-77073588D01*
X156889586Y-77020310D01*
X157046234Y-77046777D01*
X157202961Y-77158884D01*
X157222951Y-77181013D01*
X157282088Y-77268203D01*
X157270905Y-77303531D01*
X157248250Y-77306754D01*
X157202961Y-77359574D01*
X157219103Y-77384347D01*
X157299241Y-77378671D01*
X157353609Y-77366165D01*
X157356772Y-77404420D01*
X157358101Y-77426501D01*
X157425428Y-77442530D01*
X157538941Y-77435227D01*
X157657383Y-77408646D01*
X157739495Y-77366836D01*
X157744086Y-77311498D01*
X157709959Y-77177799D01*
X157641560Y-77001390D01*
X157586759Y-76871084D01*
X157486717Y-76607393D01*
X157407843Y-76369177D01*
X157373155Y-76261772D01*
X157281174Y-76025534D01*
X157185991Y-75828132D01*
X157123103Y-75729078D01*
X156989948Y-75607178D01*
X156836107Y-75592602D01*
X156641647Y-75679924D01*
X156444530Y-75859686D01*
X156307320Y-76112085D01*
X156242544Y-76402478D01*
X156032344Y-76402478D01*
X156035310Y-76400246D01*
X156050781Y-76400310D01*
X156090172Y-76332681D01*
X156120878Y-76193564D01*
X156188884Y-75944587D01*
X156351161Y-75716070D01*
X156612429Y-75539883D01*
X156624457Y-75533446D01*
X157146972Y-75533446D01*
X157171949Y-75616824D01*
X157236354Y-75741344D01*
X157323506Y-75885991D01*
X157285660Y-75741344D01*
X157279535Y-75723465D01*
X157377393Y-75723465D01*
X157388005Y-75848604D01*
X157426981Y-76075037D01*
X157484613Y-76330094D01*
X157550279Y-76567902D01*
X157613359Y-76742589D01*
X157667378Y-76841102D01*
X157730352Y-76859380D01*
X157847472Y-76807561D01*
X157856715Y-76802741D01*
X157967391Y-76737385D01*
X158012984Y-76695849D01*
X158012843Y-76694323D01*
X157990972Y-76623592D01*
X157939078Y-76476775D01*
X157867584Y-76283434D01*
X157860526Y-76264580D01*
X157794209Y-76075093D01*
X157753206Y-75934908D01*
X157746147Y-75873177D01*
X157773776Y-75906032D01*
X157829158Y-76022588D01*
X157901457Y-76197126D01*
X157980493Y-76403070D01*
X158056085Y-76613843D01*
X158118050Y-76802868D01*
X158156208Y-76943567D01*
X158160616Y-76965822D01*
X158170033Y-77080418D01*
X158148126Y-77120145D01*
X158108458Y-77117285D01*
X157995168Y-77142815D01*
X157887393Y-77193157D01*
X157839407Y-77246157D01*
X157861911Y-77309477D01*
X157955487Y-77315642D01*
X158116782Y-77236039D01*
X158229671Y-77151095D01*
X158288496Y-77045515D01*
X158301712Y-76878373D01*
X158283928Y-76702695D01*
X158264439Y-76642977D01*
X158596139Y-76642977D01*
X158605404Y-76699849D01*
X158631096Y-76677933D01*
X158640340Y-76644475D01*
X158626528Y-76567037D01*
X158606777Y-76567933D01*
X158596139Y-76642977D01*
X158264439Y-76642977D01*
X158181131Y-76387698D01*
X158004477Y-76089187D01*
X157774268Y-75846865D01*
X157600393Y-75709263D01*
X157476829Y-75622186D01*
X157409831Y-75599059D01*
X157382364Y-75634584D01*
X157377393Y-75723465D01*
X157279535Y-75723465D01*
X157249938Y-75637072D01*
X157196458Y-75541731D01*
X157166338Y-75515807D01*
X157146972Y-75533446D01*
X156624457Y-75533446D01*
X156683640Y-75501772D01*
X156796595Y-75422711D01*
X156833984Y-75365262D01*
X156790272Y-75318918D01*
X156666961Y-75219420D01*
X156483256Y-75082071D01*
X156258165Y-74920307D01*
X156010696Y-74747565D01*
X155759855Y-74577283D01*
X155524650Y-74422899D01*
X155324090Y-74297848D01*
X155212646Y-74235989D01*
X155058255Y-74177227D01*
X154907060Y-74166635D01*
X154741015Y-74209830D01*
X154542074Y-74312429D01*
X154292190Y-74480051D01*
X153973315Y-74718312D01*
X153922345Y-74756928D01*
X153756692Y-74875661D01*
X153634776Y-74952653D01*
X153580008Y-74972757D01*
X153583737Y-74959896D01*
X153650834Y-74889816D01*
X153782896Y-74776014D01*
X153960639Y-74635570D01*
X154043818Y-74571210D01*
X154209812Y-74436316D01*
X154324853Y-74333515D01*
X154367881Y-74281139D01*
X154348600Y-74235352D01*
X154277097Y-74117501D01*
X154170935Y-73962321D01*
X154060552Y-73800834D01*
X153976347Y-73664044D01*
X154106147Y-73664044D01*
X154154882Y-73780566D01*
X154247066Y-73939778D01*
X154345159Y-74077652D01*
X154443161Y-74183893D01*
X154505581Y-74214162D01*
X154709885Y-74134233D01*
X154896130Y-74088680D01*
X155065033Y-74094190D01*
X155243262Y-74156388D01*
X155457482Y-74280899D01*
X155734362Y-74473347D01*
X155808935Y-74525924D01*
X155977463Y-74635546D01*
X156098209Y-74700712D01*
X156148898Y-74708773D01*
X156150545Y-74689399D01*
X156126092Y-74575241D01*
X156067871Y-74401260D01*
X155988578Y-74200379D01*
X155900910Y-74005522D01*
X155817565Y-73849613D01*
X155810000Y-73837548D01*
X155693154Y-73687920D01*
X155571213Y-73578410D01*
X155564799Y-73574420D01*
X155439789Y-73529319D01*
X155681217Y-73529319D01*
X155806590Y-73705388D01*
X155836585Y-73749537D01*
X155947504Y-73934790D01*
X156049580Y-74131561D01*
X156106387Y-74251236D01*
X156144765Y-74321181D01*
X156149251Y-74295424D01*
X156128452Y-74179157D01*
X156077964Y-73991410D01*
X156009289Y-73819255D01*
X155922907Y-73696168D01*
X155805044Y-73595589D01*
X155719312Y-73549707D01*
X155938098Y-73549707D01*
X156055378Y-73748480D01*
X156117192Y-73892349D01*
X156181318Y-74127560D01*
X156227185Y-74395893D01*
X156254414Y-74578206D01*
X156317569Y-74812541D01*
X156404228Y-74946525D01*
X156518827Y-74989180D01*
X156539408Y-74940966D01*
X156541471Y-74808465D01*
X156527078Y-74621780D01*
X156499449Y-74411089D01*
X156461805Y-74206569D01*
X156417366Y-74038397D01*
X156400984Y-73985903D01*
X156369098Y-73843537D01*
X156370547Y-73763568D01*
X156376480Y-73750495D01*
X156344923Y-73716287D01*
X156318233Y-73703080D01*
X156298114Y-73621262D01*
X156290907Y-73555370D01*
X156220930Y-73512102D01*
X156064265Y-73525577D01*
X155938098Y-73549707D01*
X155719312Y-73549707D01*
X155681217Y-73529319D01*
X155439789Y-73529319D01*
X155412368Y-73519426D01*
X155302394Y-73500093D01*
X156393625Y-73500093D01*
X156401746Y-73535279D01*
X156432566Y-73655733D01*
X156478380Y-73829687D01*
X156482058Y-73843815D01*
X156528525Y-74068182D01*
X156571150Y-74346612D01*
X156601122Y-74622215D01*
X156639795Y-75098837D01*
X156935843Y-75238920D01*
X157231890Y-75379003D01*
X157232473Y-75365262D01*
X157305051Y-75365262D01*
X157576577Y-75505791D01*
X157657478Y-75552540D01*
X157871100Y-75709487D01*
X158050512Y-75881873D01*
X158125491Y-75967717D01*
X158203349Y-76045786D01*
X158230927Y-76045037D01*
X158222018Y-75972779D01*
X158203367Y-75881432D01*
X158166859Y-75694291D01*
X158126511Y-75480980D01*
X158098616Y-75338491D01*
X158047973Y-75091216D01*
X157982595Y-74779113D01*
X157907883Y-74427936D01*
X157829237Y-74063440D01*
X157828300Y-74059129D01*
X157753006Y-73718937D01*
X157683346Y-73415419D01*
X157623909Y-73167708D01*
X157579284Y-72994935D01*
X157554060Y-72916234D01*
X157548776Y-72909129D01*
X157519046Y-72937980D01*
X157485802Y-73063404D01*
X157451092Y-73269545D01*
X157416965Y-73540548D01*
X157385469Y-73860557D01*
X157358654Y-74213716D01*
X157338567Y-74584169D01*
X157305051Y-75365262D01*
X157232473Y-75365262D01*
X157269023Y-74504251D01*
X157273658Y-74402207D01*
X157293268Y-74057994D01*
X157317349Y-73730880D01*
X157343279Y-73453720D01*
X157368432Y-73259372D01*
X157394535Y-73075801D01*
X157406957Y-72918699D01*
X157400208Y-72839896D01*
X157374565Y-72810588D01*
X157292914Y-72804591D01*
X157171370Y-72887564D01*
X157000455Y-73064840D01*
X156892663Y-73176295D01*
X156724069Y-73319173D01*
X156580979Y-73407319D01*
X156556264Y-73417835D01*
X156440387Y-73471189D01*
X156393625Y-73500093D01*
X155302394Y-73500093D01*
X155187914Y-73479968D01*
X154928445Y-73457912D01*
X154670969Y-73455124D01*
X154452492Y-73473470D01*
X154310023Y-73514817D01*
X154197358Y-73576775D01*
X154109366Y-73618336D01*
X154106147Y-73664044D01*
X153976347Y-73664044D01*
X153911177Y-73558177D01*
X153788402Y-73331088D01*
X153705980Y-73145620D01*
X153677663Y-73027829D01*
X153686336Y-73011046D01*
X153727767Y-73057193D01*
X153791008Y-73181094D01*
X153826737Y-73257589D01*
X153893251Y-73379077D01*
X153935197Y-73426993D01*
X153935756Y-73426950D01*
X153976060Y-73375651D01*
X154046423Y-73246012D01*
X154131967Y-73065376D01*
X154167072Y-72984538D01*
X154268545Y-72711065D01*
X154325429Y-72485290D01*
X154334208Y-72325223D01*
X154291365Y-72248880D01*
X154270936Y-72231787D01*
X154325383Y-72216527D01*
X154331092Y-72216337D01*
X154381318Y-72228831D01*
X154406763Y-72284912D01*
X154411867Y-72408435D01*
X154401069Y-72623252D01*
X154400077Y-72638267D01*
X154381203Y-72843996D01*
X154357614Y-72999328D01*
X154334175Y-73071657D01*
X154331321Y-73073908D01*
X154316817Y-73043479D01*
X154331937Y-72935194D01*
X154335690Y-72914779D01*
X154322882Y-72895562D01*
X154269382Y-72972379D01*
X154180809Y-73137700D01*
X154114708Y-73270287D01*
X154038536Y-73433147D01*
X154011324Y-73516951D01*
X154029428Y-73536350D01*
X154089203Y-73505997D01*
X154125772Y-73484314D01*
X154194305Y-73453965D01*
X154317961Y-73420915D01*
X154434765Y-73358158D01*
X154484485Y-73292912D01*
X154492352Y-73261021D01*
X154533964Y-73301132D01*
X154580096Y-73330583D01*
X154690767Y-73353886D01*
X154877991Y-73370456D01*
X155154809Y-73381424D01*
X155534258Y-73387920D01*
X155832448Y-73390697D01*
X156105862Y-73390623D01*
X156300662Y-73384555D01*
X156437200Y-73370147D01*
X156535827Y-73345053D01*
X156616894Y-73306925D01*
X156700752Y-73253417D01*
X156929925Y-73057426D01*
X157131428Y-72772118D01*
X157159834Y-72687265D01*
X157287895Y-72687265D01*
X157316532Y-72730915D01*
X157392388Y-72723338D01*
X157433549Y-72703555D01*
X157444750Y-72638875D01*
X157405900Y-72501253D01*
X157336645Y-72298747D01*
X157305590Y-72501253D01*
X157296108Y-72565854D01*
X157287895Y-72687265D01*
X157159834Y-72687265D01*
X157236633Y-72457859D01*
X157248711Y-72391770D01*
X157298110Y-72254379D01*
X157371292Y-72211959D01*
X157401820Y-72222137D01*
X157450019Y-72284760D01*
X157504149Y-72417177D01*
X157569759Y-72633955D01*
X157652400Y-72949659D01*
X157722799Y-73235573D01*
X157827276Y-73678651D01*
X157930930Y-74137786D01*
X158029255Y-74591581D01*
X158117745Y-75018641D01*
X158191893Y-75397572D01*
X158247194Y-75706979D01*
X158279142Y-75925468D01*
X158285159Y-75974022D01*
X158343036Y-76234038D01*
X158431244Y-76391039D01*
X158515900Y-76459919D01*
X158572263Y-76474244D01*
X158573951Y-76467783D01*
X158567895Y-76377125D01*
X158544291Y-76194590D01*
X158505703Y-75937490D01*
X158454694Y-75623140D01*
X158393828Y-75268853D01*
X158302423Y-74743068D01*
X158207557Y-74174131D01*
X158133955Y-73699393D01*
X158080181Y-73308241D01*
X158044799Y-72990064D01*
X158038617Y-72904229D01*
X158128701Y-72904229D01*
X158160138Y-72957002D01*
X158258884Y-73028365D01*
X158343520Y-73070611D01*
X158352027Y-73058190D01*
X158278846Y-72972542D01*
X158192577Y-72881583D01*
X158141786Y-72854055D01*
X158128701Y-72904229D01*
X158038617Y-72904229D01*
X158026376Y-72734248D01*
X158023475Y-72530182D01*
X158031845Y-72183030D01*
X158065809Y-72472324D01*
G37*
%TD*%
%LPC*%
D12*
%TO.C,J3*%
X147320000Y-76200000D03*
%TD*%
%TO.C,J7*%
X177800000Y-78740000D03*
%TD*%
D13*
%TO.C,J8*%
X143750000Y-81030000D03*
X143750000Y-86810000D03*
D14*
X144280000Y-79600000D03*
D15*
X140100000Y-79600000D03*
D14*
X144280000Y-88240000D03*
D15*
X140100000Y-88240000D03*
%TD*%
D12*
%TO.C,J4*%
X175260000Y-78740000D03*
%TD*%
%TO.C,J2*%
X147320000Y-91440000D03*
%TD*%
D16*
%TO.C,J6*%
X174200000Y-89730000D03*
X177200000Y-89730000D03*
%TD*%
D12*
%TO.C,J5*%
X172705000Y-78765000D03*
%TD*%
D17*
X178750000Y-91840000D03*
X146570000Y-79980000D03*
X175720000Y-91850000D03*
D18*
X156050000Y-83430000D03*
D17*
X172760000Y-91840000D03*
D19*
X169788629Y-83271371D03*
X150072500Y-81217500D03*
X160000000Y-85500000D03*
X164230000Y-81170000D03*
%LPD*%
M02*
