%TF.GenerationSoftware,KiCad,Pcbnew,7.0.10*%
%TF.CreationDate,2024-03-07T14:05:51+00:00*%
%TF.ProjectId,tp4056,74703430-3536-42e6-9b69-6361645f7063,rev?*%
%TF.SameCoordinates,Original*%
%TF.FileFunction,Legend,Top*%
%TF.FilePolarity,Positive*%
%FSLAX46Y46*%
G04 Gerber Fmt 4.6, Leading zero omitted, Abs format (unit mm)*
G04 Created by KiCad (PCBNEW 7.0.10) date 2024-03-07 14:05:51*
%MOMM*%
%LPD*%
G01*
G04 APERTURE LIST*
G04 Aperture macros list*
%AMRoundRect*
0 Rectangle with rounded corners*
0 $1 Rounding radius*
0 $2 $3 $4 $5 $6 $7 $8 $9 X,Y pos of 4 corners*
0 Add a 4 corners polygon primitive as box body*
4,1,4,$2,$3,$4,$5,$6,$7,$8,$9,$2,$3,0*
0 Add four circle primitives for the rounded corners*
1,1,$1+$1,$2,$3*
1,1,$1+$1,$4,$5*
1,1,$1+$1,$6,$7*
1,1,$1+$1,$8,$9*
0 Add four rect primitives between the rounded corners*
20,1,$1+$1,$2,$3,$4,$5,0*
20,1,$1+$1,$4,$5,$6,$7,0*
20,1,$1+$1,$6,$7,$8,$9,0*
20,1,$1+$1,$8,$9,$2,$3,0*%
G04 Aperture macros list end*
%ADD10C,0.150000*%
%ADD11C,0.100000*%
%ADD12C,0.200000*%
%ADD13C,0.360000*%
%ADD14C,0.120000*%
%ADD15C,0.250000*%
%ADD16RoundRect,0.237500X0.237500X-0.250000X0.237500X0.250000X-0.237500X0.250000X-0.237500X-0.250000X0*%
%ADD17R,1.700000X1.700000*%
%ADD18RoundRect,0.250000X-0.350000X-0.450000X0.350000X-0.450000X0.350000X0.450000X-0.350000X0.450000X0*%
%ADD19RoundRect,0.150000X0.150000X-0.825000X0.150000X0.825000X-0.150000X0.825000X-0.150000X-0.825000X0*%
%ADD20R,3.000000X2.290000*%
%ADD21RoundRect,0.237500X-0.250000X-0.237500X0.250000X-0.237500X0.250000X0.237500X-0.250000X0.237500X0*%
%ADD22RoundRect,0.250000X-0.337500X-0.475000X0.337500X-0.475000X0.337500X0.475000X-0.337500X0.475000X0*%
%ADD23RoundRect,0.237500X-0.237500X0.250000X-0.237500X-0.250000X0.237500X-0.250000X0.237500X0.250000X0*%
%ADD24RoundRect,0.250000X0.325000X0.450000X-0.325000X0.450000X-0.325000X-0.450000X0.325000X-0.450000X0*%
%ADD25RoundRect,0.250000X0.475000X-0.337500X0.475000X0.337500X-0.475000X0.337500X-0.475000X-0.337500X0*%
%ADD26C,0.650000*%
%ADD27R,1.450000X0.600000*%
%ADD28R,1.450000X0.300000*%
%ADD29O,2.100000X1.000000*%
%ADD30O,1.600000X1.000000*%
%ADD31R,1.560000X0.650000*%
%ADD32RoundRect,0.250000X-0.475000X0.337500X-0.475000X-0.337500X0.475000X-0.337500X0.475000X0.337500X0*%
%ADD33RoundRect,0.250000X0.450000X-0.350000X0.450000X0.350000X-0.450000X0.350000X-0.450000X-0.350000X0*%
%ADD34C,1.000000*%
%ADD35R,1.000000X1.500000*%
%ADD36R,1.500000X2.000000*%
%ADD37R,0.650000X1.560000*%
%ADD38C,0.800000*%
%ADD39C,0.600000*%
%ADD40C,2.000000*%
G04 APERTURE END LIST*
D10*
X175480839Y-80820466D02*
X174871316Y-80820466D01*
X145688096Y-74222295D02*
X145688096Y-73422295D01*
X146069048Y-74222295D02*
X146069048Y-73422295D01*
X146069048Y-73422295D02*
X146526191Y-74222295D01*
X146526191Y-74222295D02*
X146526191Y-73422295D01*
X146792857Y-73422295D02*
X147059524Y-74222295D01*
X147059524Y-74222295D02*
X147326190Y-73422295D01*
X148050000Y-74146104D02*
X148011904Y-74184200D01*
X148011904Y-74184200D02*
X147897619Y-74222295D01*
X147897619Y-74222295D02*
X147821428Y-74222295D01*
X147821428Y-74222295D02*
X147707142Y-74184200D01*
X147707142Y-74184200D02*
X147630952Y-74108009D01*
X147630952Y-74108009D02*
X147592857Y-74031819D01*
X147592857Y-74031819D02*
X147554761Y-73879438D01*
X147554761Y-73879438D02*
X147554761Y-73765152D01*
X147554761Y-73765152D02*
X147592857Y-73612771D01*
X147592857Y-73612771D02*
X147630952Y-73536580D01*
X147630952Y-73536580D02*
X147707142Y-73460390D01*
X147707142Y-73460390D02*
X147821428Y-73422295D01*
X147821428Y-73422295D02*
X147897619Y-73422295D01*
X147897619Y-73422295D02*
X148011904Y-73460390D01*
X148011904Y-73460390D02*
X148050000Y-73498485D01*
X148850000Y-74146104D02*
X148811904Y-74184200D01*
X148811904Y-74184200D02*
X148697619Y-74222295D01*
X148697619Y-74222295D02*
X148621428Y-74222295D01*
X148621428Y-74222295D02*
X148507142Y-74184200D01*
X148507142Y-74184200D02*
X148430952Y-74108009D01*
X148430952Y-74108009D02*
X148392857Y-74031819D01*
X148392857Y-74031819D02*
X148354761Y-73879438D01*
X148354761Y-73879438D02*
X148354761Y-73765152D01*
X148354761Y-73765152D02*
X148392857Y-73612771D01*
X148392857Y-73612771D02*
X148430952Y-73536580D01*
X148430952Y-73536580D02*
X148507142Y-73460390D01*
X148507142Y-73460390D02*
X148621428Y-73422295D01*
X148621428Y-73422295D02*
X148697619Y-73422295D01*
X148697619Y-73422295D02*
X148811904Y-73460390D01*
X148811904Y-73460390D02*
X148850000Y-73498485D01*
X178700466Y-85529160D02*
X178700466Y-86138684D01*
X177328207Y-80612390D02*
X177252017Y-80574295D01*
X177252017Y-80574295D02*
X177137731Y-80574295D01*
X177137731Y-80574295D02*
X177023445Y-80612390D01*
X177023445Y-80612390D02*
X176947255Y-80688580D01*
X176947255Y-80688580D02*
X176909160Y-80764771D01*
X176909160Y-80764771D02*
X176871064Y-80917152D01*
X176871064Y-80917152D02*
X176871064Y-81031438D01*
X176871064Y-81031438D02*
X176909160Y-81183819D01*
X176909160Y-81183819D02*
X176947255Y-81260009D01*
X176947255Y-81260009D02*
X177023445Y-81336200D01*
X177023445Y-81336200D02*
X177137731Y-81374295D01*
X177137731Y-81374295D02*
X177213922Y-81374295D01*
X177213922Y-81374295D02*
X177328207Y-81336200D01*
X177328207Y-81336200D02*
X177366303Y-81298104D01*
X177366303Y-81298104D02*
X177366303Y-81031438D01*
X177366303Y-81031438D02*
X177213922Y-81031438D01*
X177709160Y-81374295D02*
X177709160Y-80574295D01*
X177709160Y-80574295D02*
X178166303Y-81374295D01*
X178166303Y-81374295D02*
X178166303Y-80574295D01*
X178547255Y-81374295D02*
X178547255Y-80574295D01*
X178547255Y-80574295D02*
X178737731Y-80574295D01*
X178737731Y-80574295D02*
X178852017Y-80612390D01*
X178852017Y-80612390D02*
X178928207Y-80688580D01*
X178928207Y-80688580D02*
X178966302Y-80764771D01*
X178966302Y-80764771D02*
X179004398Y-80917152D01*
X179004398Y-80917152D02*
X179004398Y-81031438D01*
X179004398Y-81031438D02*
X178966302Y-81183819D01*
X178966302Y-81183819D02*
X178928207Y-81260009D01*
X178928207Y-81260009D02*
X178852017Y-81336200D01*
X178852017Y-81336200D02*
X178737731Y-81374295D01*
X178737731Y-81374295D02*
X178547255Y-81374295D01*
X172649533Y-81040839D02*
X172649533Y-80431316D01*
X172954295Y-80736077D02*
X172344771Y-80736077D01*
X172679533Y-86080839D02*
X172679533Y-85471316D01*
X172984295Y-85776077D02*
X172374771Y-85776077D01*
D11*
G36*
X142163706Y-78000000D02*
G01*
X142011103Y-78000000D01*
X142011103Y-77724884D01*
X141463413Y-77724884D01*
X141463413Y-77862442D01*
X141310810Y-77862442D01*
X141310810Y-77724884D01*
X141175793Y-77724884D01*
X141175793Y-77572477D01*
X142011103Y-77572477D01*
X142011103Y-77287201D01*
X142163706Y-77287201D01*
X142163706Y-78000000D01*
G37*
G36*
X142163706Y-77160586D02*
G01*
X141876086Y-77160586D01*
X141876086Y-77008178D01*
X142163706Y-77008178D01*
X142163706Y-77160586D01*
G37*
G36*
X142163706Y-76740879D02*
G01*
X142011103Y-76740879D01*
X142011103Y-76305540D01*
X142163706Y-76305540D01*
X142163706Y-76740879D01*
G37*
G36*
X142023609Y-76880781D02*
G01*
X141873546Y-76880781D01*
X141873546Y-76728374D01*
X142023609Y-76728374D01*
X142023609Y-76880781D01*
G37*
G36*
X142023609Y-76318046D02*
G01*
X141585926Y-76318046D01*
X141585926Y-76167983D01*
X142023609Y-76167983D01*
X142023609Y-76318046D01*
G37*
G36*
X141603511Y-76880781D02*
G01*
X141175793Y-76880781D01*
X141175793Y-76167983D01*
X141328396Y-76167983D01*
X141328396Y-76728374D01*
X141450908Y-76728374D01*
X141450908Y-76305540D01*
X141603511Y-76305540D01*
X141603511Y-76880781D01*
G37*
G36*
X141876086Y-75761367D02*
G01*
X141588466Y-75761367D01*
X141588466Y-75613845D01*
X141876086Y-75613845D01*
X141876086Y-75761367D01*
G37*
G36*
X142163706Y-75478632D02*
G01*
X141588466Y-75478632D01*
X141588466Y-75328569D01*
X142163706Y-75328569D01*
X142163706Y-75478632D01*
G37*
G36*
X142163706Y-76041367D02*
G01*
X141450908Y-76041367D01*
X141450908Y-75748862D01*
X141603511Y-75748862D01*
X141603511Y-75888960D01*
X142163706Y-75888960D01*
X142163706Y-76041367D01*
G37*
G36*
X141603511Y-75618534D02*
G01*
X141450908Y-75618534D01*
X141450908Y-75466127D01*
X141603511Y-75466127D01*
X141603511Y-75618534D01*
G37*
G36*
X141876086Y-74921953D02*
G01*
X141588466Y-74921953D01*
X141588466Y-74774431D01*
X141876086Y-74774431D01*
X141876086Y-74921953D01*
G37*
G36*
X142163706Y-74639218D02*
G01*
X141588466Y-74639218D01*
X141588466Y-74489155D01*
X142163706Y-74489155D01*
X142163706Y-74639218D01*
G37*
G36*
X142163706Y-75201953D02*
G01*
X141450908Y-75201953D01*
X141450908Y-74909448D01*
X141603511Y-74909448D01*
X141603511Y-75049546D01*
X142163706Y-75049546D01*
X142163706Y-75201953D01*
G37*
G36*
X141603511Y-74779120D02*
G01*
X141450908Y-74779120D01*
X141450908Y-74626713D01*
X141603511Y-74626713D01*
X141603511Y-74779120D01*
G37*
G36*
X142163706Y-93000000D02*
G01*
X142011103Y-93000000D01*
X142011103Y-92724884D01*
X141463413Y-92724884D01*
X141463413Y-92862442D01*
X141310810Y-92862442D01*
X141310810Y-92724884D01*
X141175793Y-92724884D01*
X141175793Y-92572477D01*
X142011103Y-92572477D01*
X142011103Y-92287201D01*
X142163706Y-92287201D01*
X142163706Y-93000000D01*
G37*
G36*
X142163706Y-92160586D02*
G01*
X141876086Y-92160586D01*
X141876086Y-92008178D01*
X142163706Y-92008178D01*
X142163706Y-92160586D01*
G37*
G36*
X142163706Y-91740879D02*
G01*
X142011103Y-91740879D01*
X142011103Y-91305540D01*
X142163706Y-91305540D01*
X142163706Y-91740879D01*
G37*
G36*
X142023609Y-91880781D02*
G01*
X141873546Y-91880781D01*
X141873546Y-91728374D01*
X142023609Y-91728374D01*
X142023609Y-91880781D01*
G37*
G36*
X142023609Y-91318046D02*
G01*
X141585926Y-91318046D01*
X141585926Y-91167983D01*
X142023609Y-91167983D01*
X142023609Y-91318046D01*
G37*
G36*
X141603511Y-91880781D02*
G01*
X141175793Y-91880781D01*
X141175793Y-91167983D01*
X141328396Y-91167983D01*
X141328396Y-91728374D01*
X141450908Y-91728374D01*
X141450908Y-91305540D01*
X141603511Y-91305540D01*
X141603511Y-91880781D01*
G37*
G36*
X141876086Y-90761367D02*
G01*
X141588466Y-90761367D01*
X141588466Y-90613845D01*
X141876086Y-90613845D01*
X141876086Y-90761367D01*
G37*
G36*
X142163706Y-90478632D02*
G01*
X141588466Y-90478632D01*
X141588466Y-90328569D01*
X142163706Y-90328569D01*
X142163706Y-90478632D01*
G37*
G36*
X142163706Y-91041367D02*
G01*
X141450908Y-91041367D01*
X141450908Y-90748862D01*
X141603511Y-90748862D01*
X141603511Y-90888960D01*
X142163706Y-90888960D01*
X142163706Y-91041367D01*
G37*
G36*
X141603511Y-90618534D02*
G01*
X141450908Y-90618534D01*
X141450908Y-90466127D01*
X141603511Y-90466127D01*
X141603511Y-90618534D01*
G37*
G36*
X141876086Y-89921953D02*
G01*
X141588466Y-89921953D01*
X141588466Y-89774431D01*
X141876086Y-89774431D01*
X141876086Y-89921953D01*
G37*
G36*
X142163706Y-89639218D02*
G01*
X141588466Y-89639218D01*
X141588466Y-89489155D01*
X142163706Y-89489155D01*
X142163706Y-89639218D01*
G37*
G36*
X142163706Y-90201953D02*
G01*
X141450908Y-90201953D01*
X141450908Y-89909448D01*
X141603511Y-89909448D01*
X141603511Y-90049546D01*
X142163706Y-90049546D01*
X142163706Y-90201953D01*
G37*
G36*
X141603511Y-89779120D02*
G01*
X141450908Y-89779120D01*
X141450908Y-89626713D01*
X141603511Y-89626713D01*
X141603511Y-89779120D01*
G37*
D12*
X161691101Y-89367219D02*
X161357768Y-88891028D01*
X161119673Y-89367219D02*
X161119673Y-88367219D01*
X161119673Y-88367219D02*
X161500625Y-88367219D01*
X161500625Y-88367219D02*
X161595863Y-88414838D01*
X161595863Y-88414838D02*
X161643482Y-88462457D01*
X161643482Y-88462457D02*
X161691101Y-88557695D01*
X161691101Y-88557695D02*
X161691101Y-88700552D01*
X161691101Y-88700552D02*
X161643482Y-88795790D01*
X161643482Y-88795790D02*
X161595863Y-88843409D01*
X161595863Y-88843409D02*
X161500625Y-88891028D01*
X161500625Y-88891028D02*
X161119673Y-88891028D01*
X162119673Y-88700552D02*
X162119673Y-89700552D01*
X162119673Y-88748171D02*
X162214911Y-88700552D01*
X162214911Y-88700552D02*
X162405387Y-88700552D01*
X162405387Y-88700552D02*
X162500625Y-88748171D01*
X162500625Y-88748171D02*
X162548244Y-88795790D01*
X162548244Y-88795790D02*
X162595863Y-88891028D01*
X162595863Y-88891028D02*
X162595863Y-89176742D01*
X162595863Y-89176742D02*
X162548244Y-89271980D01*
X162548244Y-89271980D02*
X162500625Y-89319600D01*
X162500625Y-89319600D02*
X162405387Y-89367219D01*
X162405387Y-89367219D02*
X162214911Y-89367219D01*
X162214911Y-89367219D02*
X162119673Y-89319600D01*
X163024435Y-89367219D02*
X163024435Y-88700552D01*
X163024435Y-88891028D02*
X163072054Y-88795790D01*
X163072054Y-88795790D02*
X163119673Y-88748171D01*
X163119673Y-88748171D02*
X163214911Y-88700552D01*
X163214911Y-88700552D02*
X163310149Y-88700552D01*
X163786340Y-89367219D02*
X163691102Y-89319600D01*
X163691102Y-89319600D02*
X163643483Y-89271980D01*
X163643483Y-89271980D02*
X163595864Y-89176742D01*
X163595864Y-89176742D02*
X163595864Y-88891028D01*
X163595864Y-88891028D02*
X163643483Y-88795790D01*
X163643483Y-88795790D02*
X163691102Y-88748171D01*
X163691102Y-88748171D02*
X163786340Y-88700552D01*
X163786340Y-88700552D02*
X163929197Y-88700552D01*
X163929197Y-88700552D02*
X164024435Y-88748171D01*
X164024435Y-88748171D02*
X164072054Y-88795790D01*
X164072054Y-88795790D02*
X164119673Y-88891028D01*
X164119673Y-88891028D02*
X164119673Y-89176742D01*
X164119673Y-89176742D02*
X164072054Y-89271980D01*
X164072054Y-89271980D02*
X164024435Y-89319600D01*
X164024435Y-89319600D02*
X163929197Y-89367219D01*
X163929197Y-89367219D02*
X163786340Y-89367219D01*
X164976816Y-88700552D02*
X164976816Y-89510076D01*
X164976816Y-89510076D02*
X164929197Y-89605314D01*
X164929197Y-89605314D02*
X164881578Y-89652933D01*
X164881578Y-89652933D02*
X164786340Y-89700552D01*
X164786340Y-89700552D02*
X164643483Y-89700552D01*
X164643483Y-89700552D02*
X164548245Y-89652933D01*
X164976816Y-89319600D02*
X164881578Y-89367219D01*
X164881578Y-89367219D02*
X164691102Y-89367219D01*
X164691102Y-89367219D02*
X164595864Y-89319600D01*
X164595864Y-89319600D02*
X164548245Y-89271980D01*
X164548245Y-89271980D02*
X164500626Y-89176742D01*
X164500626Y-89176742D02*
X164500626Y-88891028D01*
X164500626Y-88891028D02*
X164548245Y-88795790D01*
X164548245Y-88795790D02*
X164595864Y-88748171D01*
X164595864Y-88748171D02*
X164691102Y-88700552D01*
X164691102Y-88700552D02*
X164881578Y-88700552D01*
X164881578Y-88700552D02*
X164976816Y-88748171D01*
D13*
G36*
X152250935Y-92968340D02*
G01*
X152250935Y-92624983D01*
X153230446Y-92624983D01*
X153230446Y-92968340D01*
X152250935Y-92968340D01*
G37*
G36*
X151936155Y-92653120D02*
G01*
X151936155Y-92315479D01*
X152279071Y-92315479D01*
X152279071Y-92653120D01*
X151936155Y-92653120D01*
G37*
G36*
X153202309Y-92653120D02*
G01*
X153202309Y-91668333D01*
X153539951Y-91668333D01*
X153539951Y-92653120D01*
X153202309Y-92653120D01*
G37*
G36*
X152250935Y-91707900D02*
G01*
X152250935Y-91364544D01*
X153230446Y-91364544D01*
X153230446Y-91707900D01*
X152250935Y-91707900D01*
G37*
G36*
X151936155Y-91392681D02*
G01*
X151936155Y-91049324D01*
X152279071Y-91049324D01*
X152279071Y-91392681D01*
X151936155Y-91392681D01*
G37*
G36*
X152250935Y-91088891D02*
G01*
X152250935Y-90745535D01*
X153539951Y-90745535D01*
X153539951Y-91088891D01*
X152250935Y-91088891D01*
G37*
G36*
X154139616Y-92968340D02*
G01*
X154139616Y-92624983D01*
X155119127Y-92624983D01*
X155119127Y-92968340D01*
X154139616Y-92968340D01*
G37*
G36*
X153824836Y-92653120D02*
G01*
X153824836Y-92315479D01*
X154167753Y-92315479D01*
X154167753Y-92653120D01*
X153824836Y-92653120D01*
G37*
G36*
X155090991Y-92653120D02*
G01*
X155090991Y-91668333D01*
X155428632Y-91668333D01*
X155428632Y-92653120D01*
X155090991Y-92653120D01*
G37*
G36*
X153824836Y-91707900D02*
G01*
X153824836Y-90745535D01*
X155428632Y-90745535D01*
X155428632Y-91088891D01*
X154167753Y-91088891D01*
X154167753Y-91364544D01*
X155119127Y-91364544D01*
X155119127Y-91707900D01*
X153824836Y-91707900D01*
G37*
G36*
X156657857Y-92968340D02*
G01*
X156657857Y-92624983D01*
X157637369Y-92624983D01*
X157637369Y-92968340D01*
X156657857Y-92968340D01*
G37*
G36*
X157609232Y-92653120D02*
G01*
X157609232Y-92315479D01*
X157946873Y-92315479D01*
X157946873Y-92653120D01*
X157609232Y-92653120D01*
G37*
G36*
X156343077Y-92653120D02*
G01*
X156343077Y-91049324D01*
X156685994Y-91049324D01*
X156685994Y-92653120D01*
X156343077Y-92653120D01*
G37*
G36*
X157609232Y-91392681D02*
G01*
X157609232Y-91049324D01*
X157946873Y-91049324D01*
X157946873Y-91392681D01*
X157609232Y-91392681D01*
G37*
G36*
X156657857Y-91088891D02*
G01*
X156657857Y-90745535D01*
X157637369Y-90745535D01*
X157637369Y-91088891D01*
X156657857Y-91088891D01*
G37*
G36*
X158231758Y-92968340D02*
G01*
X158231758Y-90745535D01*
X158574675Y-90745535D01*
X158574675Y-91364544D01*
X159492637Y-91364544D01*
X159492637Y-90745535D01*
X159835554Y-90745535D01*
X159835554Y-92968340D01*
X159492637Y-92968340D01*
X159492637Y-91707900D01*
X158574675Y-91707900D01*
X158574675Y-92968340D01*
X158231758Y-92968340D01*
G37*
G36*
X160120439Y-92968340D02*
G01*
X160120439Y-91055039D01*
X160463356Y-91055039D01*
X160463356Y-91364544D01*
X161386594Y-91364544D01*
X161386594Y-91055039D01*
X161724235Y-91055039D01*
X161724235Y-92968340D01*
X161386594Y-92968340D01*
X161386594Y-91707900D01*
X160463356Y-91707900D01*
X160463356Y-92968340D01*
X160120439Y-92968340D01*
G37*
G36*
X160435219Y-91088891D02*
G01*
X160435219Y-90745535D01*
X161414731Y-90745535D01*
X161414731Y-91088891D01*
X160435219Y-91088891D01*
G37*
G36*
X163270000Y-92968340D02*
G01*
X163270000Y-91674048D01*
X163612917Y-91674048D01*
X163612917Y-92968340D01*
X163270000Y-92968340D01*
G37*
G36*
X163270000Y-91392681D02*
G01*
X163270000Y-91049324D01*
X163612917Y-91049324D01*
X163612917Y-91392681D01*
X163270000Y-91392681D01*
G37*
G36*
X162009120Y-92968340D02*
G01*
X162009120Y-90745535D01*
X163298136Y-90745535D01*
X163298136Y-91088891D01*
X162352037Y-91088891D01*
X162352037Y-91364544D01*
X163298136Y-91364544D01*
X163298136Y-91707900D01*
X162352037Y-91707900D01*
X162352037Y-92968340D01*
X162009120Y-92968340D01*
G37*
G36*
X164212582Y-92968340D02*
G01*
X164212582Y-92624983D01*
X165192093Y-92624983D01*
X165192093Y-92968340D01*
X164212582Y-92968340D01*
G37*
G36*
X165163956Y-92653120D02*
G01*
X165163956Y-91707900D01*
X164530000Y-91707900D01*
X164530000Y-91364544D01*
X165501598Y-91364544D01*
X165501598Y-92653120D01*
X165163956Y-92653120D01*
G37*
G36*
X163897801Y-92653120D02*
G01*
X163897801Y-91055039D01*
X164240718Y-91055039D01*
X164240718Y-92653120D01*
X163897801Y-92653120D01*
G37*
G36*
X164212582Y-91088891D02*
G01*
X164212582Y-90745535D01*
X165501598Y-90745535D01*
X165501598Y-91088891D01*
X164212582Y-91088891D01*
G37*
G36*
X165786482Y-92968340D02*
G01*
X165786482Y-90745535D01*
X167390279Y-90745535D01*
X167390279Y-91088891D01*
X166129399Y-91088891D01*
X166129399Y-91364544D01*
X166757201Y-91364544D01*
X166757201Y-91707900D01*
X166129399Y-91707900D01*
X166129399Y-92624983D01*
X167390279Y-92624983D01*
X167390279Y-92968340D01*
X165786482Y-92968340D01*
G37*
G36*
X168936043Y-92968340D02*
G01*
X168936043Y-91674048D01*
X169278960Y-91674048D01*
X169278960Y-92968340D01*
X168936043Y-92968340D01*
G37*
G36*
X168936043Y-91392681D02*
G01*
X168936043Y-91049324D01*
X169278960Y-91049324D01*
X169278960Y-91392681D01*
X168936043Y-91392681D01*
G37*
G36*
X167675164Y-92968340D02*
G01*
X167675164Y-90745535D01*
X168964180Y-90745535D01*
X168964180Y-91088891D01*
X168018081Y-91088891D01*
X168018081Y-91364544D01*
X168964180Y-91364544D01*
X168964180Y-91707900D01*
X168018081Y-91707900D01*
X168018081Y-92968340D01*
X167675164Y-92968340D01*
G37*
D10*
X167926667Y-86812295D02*
X167660000Y-86431342D01*
X167469524Y-86812295D02*
X167469524Y-86012295D01*
X167469524Y-86012295D02*
X167774286Y-86012295D01*
X167774286Y-86012295D02*
X167850476Y-86050390D01*
X167850476Y-86050390D02*
X167888571Y-86088485D01*
X167888571Y-86088485D02*
X167926667Y-86164676D01*
X167926667Y-86164676D02*
X167926667Y-86278961D01*
X167926667Y-86278961D02*
X167888571Y-86355152D01*
X167888571Y-86355152D02*
X167850476Y-86393247D01*
X167850476Y-86393247D02*
X167774286Y-86431342D01*
X167774286Y-86431342D02*
X167469524Y-86431342D01*
X168612381Y-86278961D02*
X168612381Y-86812295D01*
X168421905Y-85974200D02*
X168231428Y-86545628D01*
X168231428Y-86545628D02*
X168726667Y-86545628D01*
X146963333Y-78092295D02*
X146963333Y-78663723D01*
X146963333Y-78663723D02*
X146925238Y-78778009D01*
X146925238Y-78778009D02*
X146849047Y-78854200D01*
X146849047Y-78854200D02*
X146734762Y-78892295D01*
X146734762Y-78892295D02*
X146658571Y-78892295D01*
X147268095Y-78092295D02*
X147763333Y-78092295D01*
X147763333Y-78092295D02*
X147496667Y-78397057D01*
X147496667Y-78397057D02*
X147610952Y-78397057D01*
X147610952Y-78397057D02*
X147687143Y-78435152D01*
X147687143Y-78435152D02*
X147725238Y-78473247D01*
X147725238Y-78473247D02*
X147763333Y-78549438D01*
X147763333Y-78549438D02*
X147763333Y-78739914D01*
X147763333Y-78739914D02*
X147725238Y-78816104D01*
X147725238Y-78816104D02*
X147687143Y-78854200D01*
X147687143Y-78854200D02*
X147610952Y-78892295D01*
X147610952Y-78892295D02*
X147382381Y-78892295D01*
X147382381Y-78892295D02*
X147306190Y-78854200D01*
X147306190Y-78854200D02*
X147268095Y-78816104D01*
X159282295Y-77093332D02*
X158901342Y-77359999D01*
X159282295Y-77550475D02*
X158482295Y-77550475D01*
X158482295Y-77550475D02*
X158482295Y-77245713D01*
X158482295Y-77245713D02*
X158520390Y-77169523D01*
X158520390Y-77169523D02*
X158558485Y-77131428D01*
X158558485Y-77131428D02*
X158634676Y-77093332D01*
X158634676Y-77093332D02*
X158748961Y-77093332D01*
X158748961Y-77093332D02*
X158825152Y-77131428D01*
X158825152Y-77131428D02*
X158863247Y-77169523D01*
X158863247Y-77169523D02*
X158901342Y-77245713D01*
X158901342Y-77245713D02*
X158901342Y-77550475D01*
X158482295Y-76369523D02*
X158482295Y-76750475D01*
X158482295Y-76750475D02*
X158863247Y-76788571D01*
X158863247Y-76788571D02*
X158825152Y-76750475D01*
X158825152Y-76750475D02*
X158787057Y-76674285D01*
X158787057Y-76674285D02*
X158787057Y-76483809D01*
X158787057Y-76483809D02*
X158825152Y-76407618D01*
X158825152Y-76407618D02*
X158863247Y-76369523D01*
X158863247Y-76369523D02*
X158939438Y-76331428D01*
X158939438Y-76331428D02*
X159129914Y-76331428D01*
X159129914Y-76331428D02*
X159206104Y-76369523D01*
X159206104Y-76369523D02*
X159244200Y-76407618D01*
X159244200Y-76407618D02*
X159282295Y-76483809D01*
X159282295Y-76483809D02*
X159282295Y-76674285D01*
X159282295Y-76674285D02*
X159244200Y-76750475D01*
X159244200Y-76750475D02*
X159206104Y-76788571D01*
X152502295Y-83299523D02*
X153149914Y-83299523D01*
X153149914Y-83299523D02*
X153226104Y-83261428D01*
X153226104Y-83261428D02*
X153264200Y-83223333D01*
X153264200Y-83223333D02*
X153302295Y-83147142D01*
X153302295Y-83147142D02*
X153302295Y-82994761D01*
X153302295Y-82994761D02*
X153264200Y-82918571D01*
X153264200Y-82918571D02*
X153226104Y-82880476D01*
X153226104Y-82880476D02*
X153149914Y-82842380D01*
X153149914Y-82842380D02*
X152502295Y-82842380D01*
X153302295Y-82042381D02*
X153302295Y-82499524D01*
X153302295Y-82270952D02*
X152502295Y-82270952D01*
X152502295Y-82270952D02*
X152616580Y-82347143D01*
X152616580Y-82347143D02*
X152692771Y-82423333D01*
X152692771Y-82423333D02*
X152730866Y-82499524D01*
X156616667Y-74682295D02*
X156350000Y-74301342D01*
X156159524Y-74682295D02*
X156159524Y-73882295D01*
X156159524Y-73882295D02*
X156464286Y-73882295D01*
X156464286Y-73882295D02*
X156540476Y-73920390D01*
X156540476Y-73920390D02*
X156578571Y-73958485D01*
X156578571Y-73958485D02*
X156616667Y-74034676D01*
X156616667Y-74034676D02*
X156616667Y-74148961D01*
X156616667Y-74148961D02*
X156578571Y-74225152D01*
X156578571Y-74225152D02*
X156540476Y-74263247D01*
X156540476Y-74263247D02*
X156464286Y-74301342D01*
X156464286Y-74301342D02*
X156159524Y-74301342D01*
X156921428Y-73958485D02*
X156959524Y-73920390D01*
X156959524Y-73920390D02*
X157035714Y-73882295D01*
X157035714Y-73882295D02*
X157226190Y-73882295D01*
X157226190Y-73882295D02*
X157302381Y-73920390D01*
X157302381Y-73920390D02*
X157340476Y-73958485D01*
X157340476Y-73958485D02*
X157378571Y-74034676D01*
X157378571Y-74034676D02*
X157378571Y-74110866D01*
X157378571Y-74110866D02*
X157340476Y-74225152D01*
X157340476Y-74225152D02*
X156883333Y-74682295D01*
X156883333Y-74682295D02*
X157378571Y-74682295D01*
X177673333Y-74032295D02*
X177673333Y-74603723D01*
X177673333Y-74603723D02*
X177635238Y-74718009D01*
X177635238Y-74718009D02*
X177559047Y-74794200D01*
X177559047Y-74794200D02*
X177444762Y-74832295D01*
X177444762Y-74832295D02*
X177368571Y-74832295D01*
X177978095Y-74032295D02*
X178511429Y-74032295D01*
X178511429Y-74032295D02*
X178168571Y-74832295D01*
X159073604Y-79888332D02*
X159111700Y-79926428D01*
X159111700Y-79926428D02*
X159149795Y-80040713D01*
X159149795Y-80040713D02*
X159149795Y-80116904D01*
X159149795Y-80116904D02*
X159111700Y-80231190D01*
X159111700Y-80231190D02*
X159035509Y-80307380D01*
X159035509Y-80307380D02*
X158959319Y-80345475D01*
X158959319Y-80345475D02*
X158806938Y-80383571D01*
X158806938Y-80383571D02*
X158692652Y-80383571D01*
X158692652Y-80383571D02*
X158540271Y-80345475D01*
X158540271Y-80345475D02*
X158464080Y-80307380D01*
X158464080Y-80307380D02*
X158387890Y-80231190D01*
X158387890Y-80231190D02*
X158349795Y-80116904D01*
X158349795Y-80116904D02*
X158349795Y-80040713D01*
X158349795Y-80040713D02*
X158387890Y-79926428D01*
X158387890Y-79926428D02*
X158425985Y-79888332D01*
X158425985Y-79583571D02*
X158387890Y-79545475D01*
X158387890Y-79545475D02*
X158349795Y-79469285D01*
X158349795Y-79469285D02*
X158349795Y-79278809D01*
X158349795Y-79278809D02*
X158387890Y-79202618D01*
X158387890Y-79202618D02*
X158425985Y-79164523D01*
X158425985Y-79164523D02*
X158502176Y-79126428D01*
X158502176Y-79126428D02*
X158578366Y-79126428D01*
X158578366Y-79126428D02*
X158692652Y-79164523D01*
X158692652Y-79164523D02*
X159149795Y-79621666D01*
X159149795Y-79621666D02*
X159149795Y-79126428D01*
X148726667Y-88669795D02*
X148460000Y-88288842D01*
X148269524Y-88669795D02*
X148269524Y-87869795D01*
X148269524Y-87869795D02*
X148574286Y-87869795D01*
X148574286Y-87869795D02*
X148650476Y-87907890D01*
X148650476Y-87907890D02*
X148688571Y-87945985D01*
X148688571Y-87945985D02*
X148726667Y-88022176D01*
X148726667Y-88022176D02*
X148726667Y-88136461D01*
X148726667Y-88136461D02*
X148688571Y-88212652D01*
X148688571Y-88212652D02*
X148650476Y-88250747D01*
X148650476Y-88250747D02*
X148574286Y-88288842D01*
X148574286Y-88288842D02*
X148269524Y-88288842D01*
X148993333Y-87869795D02*
X149526667Y-87869795D01*
X149526667Y-87869795D02*
X149183809Y-88669795D01*
X150457024Y-75052295D02*
X150457024Y-74252295D01*
X150457024Y-74252295D02*
X150647500Y-74252295D01*
X150647500Y-74252295D02*
X150761786Y-74290390D01*
X150761786Y-74290390D02*
X150837976Y-74366580D01*
X150837976Y-74366580D02*
X150876071Y-74442771D01*
X150876071Y-74442771D02*
X150914167Y-74595152D01*
X150914167Y-74595152D02*
X150914167Y-74709438D01*
X150914167Y-74709438D02*
X150876071Y-74861819D01*
X150876071Y-74861819D02*
X150837976Y-74938009D01*
X150837976Y-74938009D02*
X150761786Y-75014200D01*
X150761786Y-75014200D02*
X150647500Y-75052295D01*
X150647500Y-75052295D02*
X150457024Y-75052295D01*
X151218928Y-74328485D02*
X151257024Y-74290390D01*
X151257024Y-74290390D02*
X151333214Y-74252295D01*
X151333214Y-74252295D02*
X151523690Y-74252295D01*
X151523690Y-74252295D02*
X151599881Y-74290390D01*
X151599881Y-74290390D02*
X151637976Y-74328485D01*
X151637976Y-74328485D02*
X151676071Y-74404676D01*
X151676071Y-74404676D02*
X151676071Y-74480866D01*
X151676071Y-74480866D02*
X151637976Y-74595152D01*
X151637976Y-74595152D02*
X151180833Y-75052295D01*
X151180833Y-75052295D02*
X151676071Y-75052295D01*
X148726667Y-89634795D02*
X148460000Y-89253842D01*
X148269524Y-89634795D02*
X148269524Y-88834795D01*
X148269524Y-88834795D02*
X148574286Y-88834795D01*
X148574286Y-88834795D02*
X148650476Y-88872890D01*
X148650476Y-88872890D02*
X148688571Y-88910985D01*
X148688571Y-88910985D02*
X148726667Y-88987176D01*
X148726667Y-88987176D02*
X148726667Y-89101461D01*
X148726667Y-89101461D02*
X148688571Y-89177652D01*
X148688571Y-89177652D02*
X148650476Y-89215747D01*
X148650476Y-89215747D02*
X148574286Y-89253842D01*
X148574286Y-89253842D02*
X148269524Y-89253842D01*
X149412381Y-88834795D02*
X149260000Y-88834795D01*
X149260000Y-88834795D02*
X149183809Y-88872890D01*
X149183809Y-88872890D02*
X149145714Y-88910985D01*
X149145714Y-88910985D02*
X149069524Y-89025271D01*
X149069524Y-89025271D02*
X149031428Y-89177652D01*
X149031428Y-89177652D02*
X149031428Y-89482414D01*
X149031428Y-89482414D02*
X149069524Y-89558604D01*
X149069524Y-89558604D02*
X149107619Y-89596700D01*
X149107619Y-89596700D02*
X149183809Y-89634795D01*
X149183809Y-89634795D02*
X149336190Y-89634795D01*
X149336190Y-89634795D02*
X149412381Y-89596700D01*
X149412381Y-89596700D02*
X149450476Y-89558604D01*
X149450476Y-89558604D02*
X149488571Y-89482414D01*
X149488571Y-89482414D02*
X149488571Y-89291938D01*
X149488571Y-89291938D02*
X149450476Y-89215747D01*
X149450476Y-89215747D02*
X149412381Y-89177652D01*
X149412381Y-89177652D02*
X149336190Y-89139557D01*
X149336190Y-89139557D02*
X149183809Y-89139557D01*
X149183809Y-89139557D02*
X149107619Y-89177652D01*
X149107619Y-89177652D02*
X149069524Y-89215747D01*
X149069524Y-89215747D02*
X149031428Y-89291938D01*
X161936104Y-82413332D02*
X161974200Y-82451428D01*
X161974200Y-82451428D02*
X162012295Y-82565713D01*
X162012295Y-82565713D02*
X162012295Y-82641904D01*
X162012295Y-82641904D02*
X161974200Y-82756190D01*
X161974200Y-82756190D02*
X161898009Y-82832380D01*
X161898009Y-82832380D02*
X161821819Y-82870475D01*
X161821819Y-82870475D02*
X161669438Y-82908571D01*
X161669438Y-82908571D02*
X161555152Y-82908571D01*
X161555152Y-82908571D02*
X161402771Y-82870475D01*
X161402771Y-82870475D02*
X161326580Y-82832380D01*
X161326580Y-82832380D02*
X161250390Y-82756190D01*
X161250390Y-82756190D02*
X161212295Y-82641904D01*
X161212295Y-82641904D02*
X161212295Y-82565713D01*
X161212295Y-82565713D02*
X161250390Y-82451428D01*
X161250390Y-82451428D02*
X161288485Y-82413332D01*
X162012295Y-81651428D02*
X162012295Y-82108571D01*
X162012295Y-81879999D02*
X161212295Y-81879999D01*
X161212295Y-81879999D02*
X161326580Y-81956190D01*
X161326580Y-81956190D02*
X161402771Y-82032380D01*
X161402771Y-82032380D02*
X161440866Y-82108571D01*
X154066667Y-77162295D02*
X153800000Y-76781342D01*
X153609524Y-77162295D02*
X153609524Y-76362295D01*
X153609524Y-76362295D02*
X153914286Y-76362295D01*
X153914286Y-76362295D02*
X153990476Y-76400390D01*
X153990476Y-76400390D02*
X154028571Y-76438485D01*
X154028571Y-76438485D02*
X154066667Y-76514676D01*
X154066667Y-76514676D02*
X154066667Y-76628961D01*
X154066667Y-76628961D02*
X154028571Y-76705152D01*
X154028571Y-76705152D02*
X153990476Y-76743247D01*
X153990476Y-76743247D02*
X153914286Y-76781342D01*
X153914286Y-76781342D02*
X153609524Y-76781342D01*
X154828571Y-77162295D02*
X154371428Y-77162295D01*
X154600000Y-77162295D02*
X154600000Y-76362295D01*
X154600000Y-76362295D02*
X154523809Y-76476580D01*
X154523809Y-76476580D02*
X154447619Y-76552771D01*
X154447619Y-76552771D02*
X154371428Y-76590866D01*
X163900476Y-86322295D02*
X163900476Y-86969914D01*
X163900476Y-86969914D02*
X163938571Y-87046104D01*
X163938571Y-87046104D02*
X163976666Y-87084200D01*
X163976666Y-87084200D02*
X164052857Y-87122295D01*
X164052857Y-87122295D02*
X164205238Y-87122295D01*
X164205238Y-87122295D02*
X164281428Y-87084200D01*
X164281428Y-87084200D02*
X164319523Y-87046104D01*
X164319523Y-87046104D02*
X164357619Y-86969914D01*
X164357619Y-86969914D02*
X164357619Y-86322295D01*
X164662380Y-86322295D02*
X165157618Y-86322295D01*
X165157618Y-86322295D02*
X164890952Y-86627057D01*
X164890952Y-86627057D02*
X165005237Y-86627057D01*
X165005237Y-86627057D02*
X165081428Y-86665152D01*
X165081428Y-86665152D02*
X165119523Y-86703247D01*
X165119523Y-86703247D02*
X165157618Y-86779438D01*
X165157618Y-86779438D02*
X165157618Y-86969914D01*
X165157618Y-86969914D02*
X165119523Y-87046104D01*
X165119523Y-87046104D02*
X165081428Y-87084200D01*
X165081428Y-87084200D02*
X165005237Y-87122295D01*
X165005237Y-87122295D02*
X164776666Y-87122295D01*
X164776666Y-87122295D02*
X164700475Y-87084200D01*
X164700475Y-87084200D02*
X164662380Y-87046104D01*
X148625714Y-84319795D02*
X148359047Y-83938842D01*
X148168571Y-84319795D02*
X148168571Y-83519795D01*
X148168571Y-83519795D02*
X148473333Y-83519795D01*
X148473333Y-83519795D02*
X148549523Y-83557890D01*
X148549523Y-83557890D02*
X148587618Y-83595985D01*
X148587618Y-83595985D02*
X148625714Y-83672176D01*
X148625714Y-83672176D02*
X148625714Y-83786461D01*
X148625714Y-83786461D02*
X148587618Y-83862652D01*
X148587618Y-83862652D02*
X148549523Y-83900747D01*
X148549523Y-83900747D02*
X148473333Y-83938842D01*
X148473333Y-83938842D02*
X148168571Y-83938842D01*
X149387618Y-84319795D02*
X148930475Y-84319795D01*
X149159047Y-84319795D02*
X149159047Y-83519795D01*
X149159047Y-83519795D02*
X149082856Y-83634080D01*
X149082856Y-83634080D02*
X149006666Y-83710271D01*
X149006666Y-83710271D02*
X148930475Y-83748366D01*
X149882857Y-83519795D02*
X149959047Y-83519795D01*
X149959047Y-83519795D02*
X150035238Y-83557890D01*
X150035238Y-83557890D02*
X150073333Y-83595985D01*
X150073333Y-83595985D02*
X150111428Y-83672176D01*
X150111428Y-83672176D02*
X150149523Y-83824557D01*
X150149523Y-83824557D02*
X150149523Y-84015033D01*
X150149523Y-84015033D02*
X150111428Y-84167414D01*
X150111428Y-84167414D02*
X150073333Y-84243604D01*
X150073333Y-84243604D02*
X150035238Y-84281700D01*
X150035238Y-84281700D02*
X149959047Y-84319795D01*
X149959047Y-84319795D02*
X149882857Y-84319795D01*
X149882857Y-84319795D02*
X149806666Y-84281700D01*
X149806666Y-84281700D02*
X149768571Y-84243604D01*
X149768571Y-84243604D02*
X149730476Y-84167414D01*
X149730476Y-84167414D02*
X149692380Y-84015033D01*
X149692380Y-84015033D02*
X149692380Y-83824557D01*
X149692380Y-83824557D02*
X149730476Y-83672176D01*
X149730476Y-83672176D02*
X149768571Y-83595985D01*
X149768571Y-83595985D02*
X149806666Y-83557890D01*
X149806666Y-83557890D02*
X149882857Y-83519795D01*
X164646667Y-75646104D02*
X164608571Y-75684200D01*
X164608571Y-75684200D02*
X164494286Y-75722295D01*
X164494286Y-75722295D02*
X164418095Y-75722295D01*
X164418095Y-75722295D02*
X164303809Y-75684200D01*
X164303809Y-75684200D02*
X164227619Y-75608009D01*
X164227619Y-75608009D02*
X164189524Y-75531819D01*
X164189524Y-75531819D02*
X164151428Y-75379438D01*
X164151428Y-75379438D02*
X164151428Y-75265152D01*
X164151428Y-75265152D02*
X164189524Y-75112771D01*
X164189524Y-75112771D02*
X164227619Y-75036580D01*
X164227619Y-75036580D02*
X164303809Y-74960390D01*
X164303809Y-74960390D02*
X164418095Y-74922295D01*
X164418095Y-74922295D02*
X164494286Y-74922295D01*
X164494286Y-74922295D02*
X164608571Y-74960390D01*
X164608571Y-74960390D02*
X164646667Y-74998485D01*
X164913333Y-74922295D02*
X165408571Y-74922295D01*
X165408571Y-74922295D02*
X165141905Y-75227057D01*
X165141905Y-75227057D02*
X165256190Y-75227057D01*
X165256190Y-75227057D02*
X165332381Y-75265152D01*
X165332381Y-75265152D02*
X165370476Y-75303247D01*
X165370476Y-75303247D02*
X165408571Y-75379438D01*
X165408571Y-75379438D02*
X165408571Y-75569914D01*
X165408571Y-75569914D02*
X165370476Y-75646104D01*
X165370476Y-75646104D02*
X165332381Y-75684200D01*
X165332381Y-75684200D02*
X165256190Y-75722295D01*
X165256190Y-75722295D02*
X165027619Y-75722295D01*
X165027619Y-75722295D02*
X164951428Y-75684200D01*
X164951428Y-75684200D02*
X164913333Y-75646104D01*
X174933333Y-74052295D02*
X174933333Y-74623723D01*
X174933333Y-74623723D02*
X174895238Y-74738009D01*
X174895238Y-74738009D02*
X174819047Y-74814200D01*
X174819047Y-74814200D02*
X174704762Y-74852295D01*
X174704762Y-74852295D02*
X174628571Y-74852295D01*
X175657143Y-74318961D02*
X175657143Y-74852295D01*
X175466667Y-74014200D02*
X175276190Y-74585628D01*
X175276190Y-74585628D02*
X175771429Y-74585628D01*
X149743333Y-92262295D02*
X149743333Y-92833723D01*
X149743333Y-92833723D02*
X149705238Y-92948009D01*
X149705238Y-92948009D02*
X149629047Y-93024200D01*
X149629047Y-93024200D02*
X149514762Y-93062295D01*
X149514762Y-93062295D02*
X149438571Y-93062295D01*
X150086190Y-92338485D02*
X150124286Y-92300390D01*
X150124286Y-92300390D02*
X150200476Y-92262295D01*
X150200476Y-92262295D02*
X150390952Y-92262295D01*
X150390952Y-92262295D02*
X150467143Y-92300390D01*
X150467143Y-92300390D02*
X150505238Y-92338485D01*
X150505238Y-92338485D02*
X150543333Y-92414676D01*
X150543333Y-92414676D02*
X150543333Y-92490866D01*
X150543333Y-92490866D02*
X150505238Y-92605152D01*
X150505238Y-92605152D02*
X150048095Y-93062295D01*
X150048095Y-93062295D02*
X150543333Y-93062295D01*
X151263333Y-82634819D02*
X150930000Y-82158628D01*
X150691905Y-82634819D02*
X150691905Y-81634819D01*
X150691905Y-81634819D02*
X151072857Y-81634819D01*
X151072857Y-81634819D02*
X151168095Y-81682438D01*
X151168095Y-81682438D02*
X151215714Y-81730057D01*
X151215714Y-81730057D02*
X151263333Y-81825295D01*
X151263333Y-81825295D02*
X151263333Y-81968152D01*
X151263333Y-81968152D02*
X151215714Y-82063390D01*
X151215714Y-82063390D02*
X151168095Y-82111009D01*
X151168095Y-82111009D02*
X151072857Y-82158628D01*
X151072857Y-82158628D02*
X150691905Y-82158628D01*
X151834762Y-82063390D02*
X151739524Y-82015771D01*
X151739524Y-82015771D02*
X151691905Y-81968152D01*
X151691905Y-81968152D02*
X151644286Y-81872914D01*
X151644286Y-81872914D02*
X151644286Y-81825295D01*
X151644286Y-81825295D02*
X151691905Y-81730057D01*
X151691905Y-81730057D02*
X151739524Y-81682438D01*
X151739524Y-81682438D02*
X151834762Y-81634819D01*
X151834762Y-81634819D02*
X152025238Y-81634819D01*
X152025238Y-81634819D02*
X152120476Y-81682438D01*
X152120476Y-81682438D02*
X152168095Y-81730057D01*
X152168095Y-81730057D02*
X152215714Y-81825295D01*
X152215714Y-81825295D02*
X152215714Y-81872914D01*
X152215714Y-81872914D02*
X152168095Y-81968152D01*
X152168095Y-81968152D02*
X152120476Y-82015771D01*
X152120476Y-82015771D02*
X152025238Y-82063390D01*
X152025238Y-82063390D02*
X151834762Y-82063390D01*
X151834762Y-82063390D02*
X151739524Y-82111009D01*
X151739524Y-82111009D02*
X151691905Y-82158628D01*
X151691905Y-82158628D02*
X151644286Y-82253866D01*
X151644286Y-82253866D02*
X151644286Y-82444342D01*
X151644286Y-82444342D02*
X151691905Y-82539580D01*
X151691905Y-82539580D02*
X151739524Y-82587200D01*
X151739524Y-82587200D02*
X151834762Y-82634819D01*
X151834762Y-82634819D02*
X152025238Y-82634819D01*
X152025238Y-82634819D02*
X152120476Y-82587200D01*
X152120476Y-82587200D02*
X152168095Y-82539580D01*
X152168095Y-82539580D02*
X152215714Y-82444342D01*
X152215714Y-82444342D02*
X152215714Y-82253866D01*
X152215714Y-82253866D02*
X152168095Y-82158628D01*
X152168095Y-82158628D02*
X152120476Y-82111009D01*
X152120476Y-82111009D02*
X152025238Y-82063390D01*
X153664819Y-88826666D02*
X153188628Y-89159999D01*
X153664819Y-89398094D02*
X152664819Y-89398094D01*
X152664819Y-89398094D02*
X152664819Y-89017142D01*
X152664819Y-89017142D02*
X152712438Y-88921904D01*
X152712438Y-88921904D02*
X152760057Y-88874285D01*
X152760057Y-88874285D02*
X152855295Y-88826666D01*
X152855295Y-88826666D02*
X152998152Y-88826666D01*
X152998152Y-88826666D02*
X153093390Y-88874285D01*
X153093390Y-88874285D02*
X153141009Y-88921904D01*
X153141009Y-88921904D02*
X153188628Y-89017142D01*
X153188628Y-89017142D02*
X153188628Y-89398094D01*
X153664819Y-88350475D02*
X153664819Y-88159999D01*
X153664819Y-88159999D02*
X153617200Y-88064761D01*
X153617200Y-88064761D02*
X153569580Y-88017142D01*
X153569580Y-88017142D02*
X153426723Y-87921904D01*
X153426723Y-87921904D02*
X153236247Y-87874285D01*
X153236247Y-87874285D02*
X152855295Y-87874285D01*
X152855295Y-87874285D02*
X152760057Y-87921904D01*
X152760057Y-87921904D02*
X152712438Y-87969523D01*
X152712438Y-87969523D02*
X152664819Y-88064761D01*
X152664819Y-88064761D02*
X152664819Y-88255237D01*
X152664819Y-88255237D02*
X152712438Y-88350475D01*
X152712438Y-88350475D02*
X152760057Y-88398094D01*
X152760057Y-88398094D02*
X152855295Y-88445713D01*
X152855295Y-88445713D02*
X153093390Y-88445713D01*
X153093390Y-88445713D02*
X153188628Y-88398094D01*
X153188628Y-88398094D02*
X153236247Y-88350475D01*
X153236247Y-88350475D02*
X153283866Y-88255237D01*
X153283866Y-88255237D02*
X153283866Y-88064761D01*
X153283866Y-88064761D02*
X153236247Y-87969523D01*
X153236247Y-87969523D02*
X153188628Y-87921904D01*
X153188628Y-87921904D02*
X153093390Y-87874285D01*
X171132295Y-92456666D02*
X171703723Y-92456666D01*
X171703723Y-92456666D02*
X171818009Y-92494761D01*
X171818009Y-92494761D02*
X171894200Y-92570952D01*
X171894200Y-92570952D02*
X171932295Y-92685237D01*
X171932295Y-92685237D02*
X171932295Y-92761428D01*
X171132295Y-91732856D02*
X171132295Y-91885237D01*
X171132295Y-91885237D02*
X171170390Y-91961428D01*
X171170390Y-91961428D02*
X171208485Y-91999523D01*
X171208485Y-91999523D02*
X171322771Y-92075713D01*
X171322771Y-92075713D02*
X171475152Y-92113809D01*
X171475152Y-92113809D02*
X171779914Y-92113809D01*
X171779914Y-92113809D02*
X171856104Y-92075713D01*
X171856104Y-92075713D02*
X171894200Y-92037618D01*
X171894200Y-92037618D02*
X171932295Y-91961428D01*
X171932295Y-91961428D02*
X171932295Y-91809047D01*
X171932295Y-91809047D02*
X171894200Y-91732856D01*
X171894200Y-91732856D02*
X171856104Y-91694761D01*
X171856104Y-91694761D02*
X171779914Y-91656666D01*
X171779914Y-91656666D02*
X171589438Y-91656666D01*
X171589438Y-91656666D02*
X171513247Y-91694761D01*
X171513247Y-91694761D02*
X171475152Y-91732856D01*
X171475152Y-91732856D02*
X171437057Y-91809047D01*
X171437057Y-91809047D02*
X171437057Y-91961428D01*
X171437057Y-91961428D02*
X171475152Y-92037618D01*
X171475152Y-92037618D02*
X171513247Y-92075713D01*
X171513247Y-92075713D02*
X171589438Y-92113809D01*
X150507024Y-80862295D02*
X150507024Y-80062295D01*
X150507024Y-80062295D02*
X150697500Y-80062295D01*
X150697500Y-80062295D02*
X150811786Y-80100390D01*
X150811786Y-80100390D02*
X150887976Y-80176580D01*
X150887976Y-80176580D02*
X150926071Y-80252771D01*
X150926071Y-80252771D02*
X150964167Y-80405152D01*
X150964167Y-80405152D02*
X150964167Y-80519438D01*
X150964167Y-80519438D02*
X150926071Y-80671819D01*
X150926071Y-80671819D02*
X150887976Y-80748009D01*
X150887976Y-80748009D02*
X150811786Y-80824200D01*
X150811786Y-80824200D02*
X150697500Y-80862295D01*
X150697500Y-80862295D02*
X150507024Y-80862295D01*
X151726071Y-80862295D02*
X151268928Y-80862295D01*
X151497500Y-80862295D02*
X151497500Y-80062295D01*
X151497500Y-80062295D02*
X151421309Y-80176580D01*
X151421309Y-80176580D02*
X151345119Y-80252771D01*
X151345119Y-80252771D02*
X151268928Y-80290866D01*
X156056667Y-89172295D02*
X155790000Y-88791342D01*
X155599524Y-89172295D02*
X155599524Y-88372295D01*
X155599524Y-88372295D02*
X155904286Y-88372295D01*
X155904286Y-88372295D02*
X155980476Y-88410390D01*
X155980476Y-88410390D02*
X156018571Y-88448485D01*
X156018571Y-88448485D02*
X156056667Y-88524676D01*
X156056667Y-88524676D02*
X156056667Y-88638961D01*
X156056667Y-88638961D02*
X156018571Y-88715152D01*
X156018571Y-88715152D02*
X155980476Y-88753247D01*
X155980476Y-88753247D02*
X155904286Y-88791342D01*
X155904286Y-88791342D02*
X155599524Y-88791342D01*
X156323333Y-88372295D02*
X156818571Y-88372295D01*
X156818571Y-88372295D02*
X156551905Y-88677057D01*
X156551905Y-88677057D02*
X156666190Y-88677057D01*
X156666190Y-88677057D02*
X156742381Y-88715152D01*
X156742381Y-88715152D02*
X156780476Y-88753247D01*
X156780476Y-88753247D02*
X156818571Y-88829438D01*
X156818571Y-88829438D02*
X156818571Y-89019914D01*
X156818571Y-89019914D02*
X156780476Y-89096104D01*
X156780476Y-89096104D02*
X156742381Y-89134200D01*
X156742381Y-89134200D02*
X156666190Y-89172295D01*
X156666190Y-89172295D02*
X156437619Y-89172295D01*
X156437619Y-89172295D02*
X156361428Y-89134200D01*
X156361428Y-89134200D02*
X156323333Y-89096104D01*
X172473333Y-74082295D02*
X172473333Y-74653723D01*
X172473333Y-74653723D02*
X172435238Y-74768009D01*
X172435238Y-74768009D02*
X172359047Y-74844200D01*
X172359047Y-74844200D02*
X172244762Y-74882295D01*
X172244762Y-74882295D02*
X172168571Y-74882295D01*
X173235238Y-74082295D02*
X172854286Y-74082295D01*
X172854286Y-74082295D02*
X172816190Y-74463247D01*
X172816190Y-74463247D02*
X172854286Y-74425152D01*
X172854286Y-74425152D02*
X172930476Y-74387057D01*
X172930476Y-74387057D02*
X173120952Y-74387057D01*
X173120952Y-74387057D02*
X173197143Y-74425152D01*
X173197143Y-74425152D02*
X173235238Y-74463247D01*
X173235238Y-74463247D02*
X173273333Y-74539438D01*
X173273333Y-74539438D02*
X173273333Y-74729914D01*
X173273333Y-74729914D02*
X173235238Y-74806104D01*
X173235238Y-74806104D02*
X173197143Y-74844200D01*
X173197143Y-74844200D02*
X173120952Y-74882295D01*
X173120952Y-74882295D02*
X172930476Y-74882295D01*
X172930476Y-74882295D02*
X172854286Y-74844200D01*
X172854286Y-74844200D02*
X172816190Y-74806104D01*
X166980476Y-76282295D02*
X166980476Y-76929914D01*
X166980476Y-76929914D02*
X167018571Y-77006104D01*
X167018571Y-77006104D02*
X167056666Y-77044200D01*
X167056666Y-77044200D02*
X167132857Y-77082295D01*
X167132857Y-77082295D02*
X167285238Y-77082295D01*
X167285238Y-77082295D02*
X167361428Y-77044200D01*
X167361428Y-77044200D02*
X167399523Y-77006104D01*
X167399523Y-77006104D02*
X167437619Y-76929914D01*
X167437619Y-76929914D02*
X167437619Y-76282295D01*
X167780475Y-76358485D02*
X167818571Y-76320390D01*
X167818571Y-76320390D02*
X167894761Y-76282295D01*
X167894761Y-76282295D02*
X168085237Y-76282295D01*
X168085237Y-76282295D02*
X168161428Y-76320390D01*
X168161428Y-76320390D02*
X168199523Y-76358485D01*
X168199523Y-76358485D02*
X168237618Y-76434676D01*
X168237618Y-76434676D02*
X168237618Y-76510866D01*
X168237618Y-76510866D02*
X168199523Y-76625152D01*
X168199523Y-76625152D02*
X167742380Y-77082295D01*
X167742380Y-77082295D02*
X168237618Y-77082295D01*
D14*
%TO.C,R4*%
X167497500Y-84424724D02*
X167497500Y-83915276D01*
X168542500Y-84424724D02*
X168542500Y-83915276D01*
%TO.C,J3*%
X145990000Y-77410000D02*
X145990000Y-77530000D01*
X145990000Y-77530000D02*
X148650000Y-77530000D01*
X147320000Y-74870000D02*
X148650000Y-74870000D01*
X148650000Y-74870000D02*
X148650000Y-76200000D01*
X148650000Y-77410000D02*
X148650000Y-77530000D01*
%TO.C,R5*%
X161272936Y-76265000D02*
X161727064Y-76265000D01*
X161272936Y-77735000D02*
X161727064Y-77735000D01*
%TO.C,U1*%
X153490000Y-83430000D02*
X153490000Y-86880000D01*
X153490000Y-83430000D02*
X153490000Y-81480000D01*
X158610000Y-83430000D02*
X158610000Y-85380000D01*
X158610000Y-83430000D02*
X158610000Y-81480000D01*
%TO.C,R2*%
X156495276Y-75227500D02*
X157004724Y-75227500D01*
X156495276Y-76272500D02*
X157004724Y-76272500D01*
%TO.C,J7*%
X179010000Y-80070000D02*
X179130000Y-80070000D01*
X179130000Y-80070000D02*
X179130000Y-77410000D01*
X176470000Y-78740000D02*
X176470000Y-77410000D01*
X176470000Y-77410000D02*
X177800000Y-77410000D01*
X179010000Y-77410000D02*
X179130000Y-77410000D01*
%TO.C,C2*%
X161238748Y-78265000D02*
X161761252Y-78265000D01*
X161238748Y-79735000D02*
X161761252Y-79735000D01*
%TO.C,R7*%
X149342500Y-85812776D02*
X149342500Y-86322224D01*
X148297500Y-85812776D02*
X148297500Y-86322224D01*
%TO.C,D2*%
X152957500Y-77250000D02*
X152957500Y-75330000D01*
X152957500Y-75330000D02*
X150097500Y-75330000D01*
X150097500Y-77250000D02*
X152957500Y-77250000D01*
%TO.C,R6*%
X147812500Y-87755276D02*
X147812500Y-88264724D01*
X146767500Y-87755276D02*
X146767500Y-88264724D01*
%TO.C,C1*%
X159265000Y-82461252D02*
X159265000Y-81938748D01*
X160735000Y-82461252D02*
X160735000Y-81938748D01*
%TO.C,R1*%
X154745276Y-77477500D02*
X155254724Y-77477500D01*
X154745276Y-78522500D02*
X155254724Y-78522500D01*
%TO.C,J8*%
X143050000Y-79220000D02*
X141050000Y-79220000D01*
X139150000Y-79220000D02*
X137250000Y-79220000D01*
X137250000Y-79220000D02*
X137250000Y-88620000D01*
X143050000Y-88620000D02*
X141050000Y-88620000D01*
X139150000Y-88620000D02*
X137250000Y-88620000D01*
%TO.C,U3*%
X163740000Y-85880000D02*
X165540000Y-85880000D01*
X165540000Y-82660000D02*
X162590000Y-82660000D01*
%TO.C,R10*%
X146757500Y-84894724D02*
X146757500Y-84385276D01*
X147802500Y-84894724D02*
X147802500Y-84385276D01*
%TO.C,C3*%
X165485000Y-77738748D02*
X165485000Y-78261252D01*
X164015000Y-77738748D02*
X164015000Y-78261252D01*
%TO.C,J4*%
X176470000Y-80070000D02*
X176590000Y-80070000D01*
X176590000Y-80070000D02*
X176590000Y-77410000D01*
X173930000Y-78740000D02*
X173930000Y-77410000D01*
X173930000Y-77410000D02*
X175260000Y-77410000D01*
X176470000Y-77410000D02*
X176590000Y-77410000D01*
%TO.C,J2*%
X145990000Y-92650000D02*
X145990000Y-92770000D01*
X145990000Y-92770000D02*
X148650000Y-92770000D01*
X147320000Y-90110000D02*
X148650000Y-90110000D01*
X148650000Y-90110000D02*
X148650000Y-91440000D01*
X148650000Y-92650000D02*
X148650000Y-92770000D01*
%TO.C,R8*%
X150735000Y-84847064D02*
X150735000Y-84392936D01*
X152205000Y-84847064D02*
X152205000Y-84392936D01*
%TO.C,R9*%
X150745000Y-88587064D02*
X150745000Y-88132936D01*
X152215000Y-88587064D02*
X152215000Y-88132936D01*
D15*
%TO.C,J6*%
X171510000Y-87970000D02*
X171510000Y-91280000D01*
X171510000Y-91280000D02*
X173220000Y-91280000D01*
X171970000Y-87970000D02*
X171510000Y-87970000D01*
X172230000Y-91280000D02*
X172250000Y-91280000D01*
X172250000Y-91280000D02*
X172250000Y-93060000D01*
X172250000Y-93060000D02*
X173220000Y-93060000D01*
X173220000Y-93060000D02*
X173220000Y-91280000D01*
X174970000Y-87970000D02*
X173430000Y-87970000D01*
X175180000Y-91280000D02*
X175200000Y-91280000D01*
X175200000Y-91280000D02*
X175200000Y-93060000D01*
X175200000Y-93060000D02*
X176220000Y-93060000D01*
X176220000Y-93060000D02*
X176220000Y-91280000D01*
X177970000Y-87970000D02*
X176430000Y-87970000D01*
X178180000Y-91280000D02*
X178240000Y-91280000D01*
X178180000Y-91280000D02*
X179890000Y-91280000D01*
X178240000Y-91280000D02*
X178240000Y-93060000D01*
X178240000Y-93060000D02*
X179200000Y-93060000D01*
X179200000Y-93060000D02*
X179200000Y-91280000D01*
X179890000Y-87970000D02*
X179430000Y-87970000D01*
X179890000Y-91280000D02*
X179890000Y-87970000D01*
D14*
%TO.C,D1*%
X152957500Y-79682000D02*
X152957500Y-77762000D01*
X152957500Y-77762000D02*
X150097500Y-77762000D01*
X150097500Y-79682000D02*
X152957500Y-79682000D01*
%TO.C,R3*%
X158772936Y-88065000D02*
X159227064Y-88065000D01*
X158772936Y-89535000D02*
X159227064Y-89535000D01*
%TO.C,J5*%
X173915000Y-80095000D02*
X174035000Y-80095000D01*
X174035000Y-80095000D02*
X174035000Y-77435000D01*
X171375000Y-78765000D02*
X171375000Y-77435000D01*
X171375000Y-77435000D02*
X172705000Y-77435000D01*
X173915000Y-77435000D02*
X174035000Y-77435000D01*
%TO.C,U2*%
X169340000Y-80760000D02*
X169340000Y-78960000D01*
X166120000Y-78960000D02*
X166120000Y-81910000D01*
%TD*%
%LPC*%
D16*
%TO.C,R4*%
X168020000Y-85082500D03*
X168020000Y-83257500D03*
%TD*%
D17*
%TO.C,J3*%
X147320000Y-76200000D03*
%TD*%
D18*
%TO.C,R5*%
X160500000Y-77000000D03*
X162500000Y-77000000D03*
%TD*%
D19*
%TO.C,U1*%
X154145000Y-85905000D03*
X155415000Y-85905000D03*
X156685000Y-85905000D03*
X157955000Y-85905000D03*
X157955000Y-80955000D03*
X156685000Y-80955000D03*
X155415000Y-80955000D03*
X154145000Y-80955000D03*
D20*
X156050000Y-83430000D03*
%TD*%
D21*
%TO.C,R2*%
X155837500Y-75750000D03*
X157662500Y-75750000D03*
%TD*%
D17*
%TO.C,J7*%
X177800000Y-78740000D03*
%TD*%
D22*
%TO.C,C2*%
X160462500Y-79000000D03*
X162537500Y-79000000D03*
%TD*%
D23*
%TO.C,R7*%
X148820000Y-85155000D03*
X148820000Y-86980000D03*
%TD*%
D24*
%TO.C,D2*%
X152122500Y-76290000D03*
X150072500Y-76290000D03*
%TD*%
D23*
%TO.C,R6*%
X147290000Y-87097500D03*
X147290000Y-88922500D03*
%TD*%
D25*
%TO.C,C1*%
X160000000Y-83237500D03*
X160000000Y-81162500D03*
%TD*%
D21*
%TO.C,R1*%
X154087500Y-78000000D03*
X155912500Y-78000000D03*
%TD*%
D26*
%TO.C,J8*%
X143750000Y-81030000D03*
X143750000Y-86810000D03*
D27*
X145195000Y-80670000D03*
X145195000Y-81470000D03*
D28*
X145195000Y-82670000D03*
X145195000Y-83670000D03*
X145195000Y-84170000D03*
X145195000Y-85170000D03*
D27*
X145195000Y-86370000D03*
X145195000Y-87170000D03*
X145195000Y-87170000D03*
X145195000Y-86370000D03*
D28*
X145195000Y-85670000D03*
X145195000Y-84670000D03*
X145195000Y-83170000D03*
X145195000Y-82170000D03*
D27*
X145195000Y-81470000D03*
X145195000Y-80670000D03*
D29*
X144280000Y-79600000D03*
D30*
X140100000Y-79600000D03*
D29*
X144280000Y-88240000D03*
D30*
X140100000Y-88240000D03*
%TD*%
D31*
%TO.C,U3*%
X163290000Y-83320000D03*
X163290000Y-84270000D03*
X163290000Y-85220000D03*
X165990000Y-85220000D03*
X165990000Y-84270000D03*
X165990000Y-83320000D03*
%TD*%
D16*
%TO.C,R10*%
X147280000Y-85552500D03*
X147280000Y-83727500D03*
%TD*%
D32*
%TO.C,C3*%
X164750000Y-76962500D03*
X164750000Y-79037500D03*
%TD*%
D17*
%TO.C,J4*%
X175260000Y-78740000D03*
%TD*%
%TO.C,J2*%
X147320000Y-91440000D03*
%TD*%
D33*
%TO.C,R8*%
X151470000Y-85620000D03*
X151470000Y-83620000D03*
%TD*%
%TO.C,R9*%
X151480000Y-89360000D03*
X151480000Y-87360000D03*
%TD*%
D34*
%TO.C,J6*%
X174200000Y-89730000D03*
X177200000Y-89730000D03*
D35*
X172700000Y-87450000D03*
X175700000Y-87450000D03*
X178700000Y-87450000D03*
D36*
X174200000Y-91810000D03*
X177200000Y-91810000D03*
%TD*%
D24*
%TO.C,D1*%
X152122500Y-78722000D03*
X150072500Y-78722000D03*
%TD*%
D18*
%TO.C,R3*%
X158000000Y-88800000D03*
X160000000Y-88800000D03*
%TD*%
D17*
%TO.C,J5*%
X172705000Y-78765000D03*
%TD*%
D37*
%TO.C,U2*%
X166780000Y-81210000D03*
X167730000Y-81210000D03*
X168680000Y-81210000D03*
X168680000Y-78510000D03*
X167730000Y-78510000D03*
X166780000Y-78510000D03*
%TD*%
D38*
X178750000Y-91840000D03*
X146570000Y-79980000D03*
X175720000Y-91850000D03*
D39*
X156050000Y-83430000D03*
D38*
X172760000Y-91840000D03*
D40*
X169788629Y-83271371D03*
X150072500Y-81217500D03*
X160000000Y-85500000D03*
X164230000Y-81170000D03*
%LPD*%
M02*
